<mxfile host="app.diagrams.net" agent="Mozilla/5.0 (Windows NT 10.0; Win64; x64) AppleWebKit/537.36 (KHTML, like Gecko) Chrome/134.0.0.0 Safari/537.36 Edg/134.0.0.0" version="26.1.1">
  <diagram name="Trang-1" id="q7D1C00wIaDFVtjJNffa">
    <mxGraphModel dx="1267" dy="226" grid="1" gridSize="10" guides="1" tooltips="1" connect="1" arrows="1" fold="1" page="1" pageScale="1" pageWidth="850" pageHeight="1100" math="0" shadow="0">
      <root>
        <mxCell id="0" />
        <mxCell id="1" parent="0" />
        <mxCell id="fik9IuDUR1Fv5bedAydr-26" style="edgeStyle=orthogonalEdgeStyle;rounded=0;orthogonalLoop=1;jettySize=auto;html=1;" edge="1" parent="1" source="fik9IuDUR1Fv5bedAydr-1" target="fik9IuDUR1Fv5bedAydr-2">
          <mxGeometry relative="1" as="geometry" />
        </mxCell>
        <mxCell id="fik9IuDUR1Fv5bedAydr-27" style="edgeStyle=orthogonalEdgeStyle;rounded=0;orthogonalLoop=1;jettySize=auto;html=1;curved=1;" edge="1" parent="1" source="fik9IuDUR1Fv5bedAydr-1" target="fik9IuDUR1Fv5bedAydr-23">
          <mxGeometry relative="1" as="geometry" />
        </mxCell>
        <mxCell id="fik9IuDUR1Fv5bedAydr-62" style="edgeStyle=orthogonalEdgeStyle;rounded=0;orthogonalLoop=1;jettySize=auto;html=1;exitX=0;exitY=0.5;exitDx=0;exitDy=0;entryX=0.5;entryY=0;entryDx=0;entryDy=0;curved=1;" edge="1" parent="1" source="fik9IuDUR1Fv5bedAydr-1" target="fik9IuDUR1Fv5bedAydr-59">
          <mxGeometry relative="1" as="geometry" />
        </mxCell>
        <mxCell id="fik9IuDUR1Fv5bedAydr-1" value="&lt;b&gt;&lt;font style=&quot;font-size: 18px;&quot;&gt;ReLU&lt;/font&gt;&lt;/b&gt;" style="rounded=1;whiteSpace=wrap;html=1;" vertex="1" parent="1">
          <mxGeometry x="300" y="520" width="80" height="40" as="geometry" />
        </mxCell>
        <mxCell id="fik9IuDUR1Fv5bedAydr-42" style="edgeStyle=orthogonalEdgeStyle;rounded=0;orthogonalLoop=1;jettySize=auto;html=1;entryX=0.5;entryY=0;entryDx=0;entryDy=0;" edge="1" parent="1" source="fik9IuDUR1Fv5bedAydr-2" target="fik9IuDUR1Fv5bedAydr-38">
          <mxGeometry relative="1" as="geometry" />
        </mxCell>
        <mxCell id="fik9IuDUR1Fv5bedAydr-2" value="&lt;font style=&quot;font-size: 18px;&quot;&gt;&lt;b&gt;Conv1&lt;/b&gt;&lt;/font&gt;" style="rounded=1;whiteSpace=wrap;html=1;labelPosition=center;verticalLabelPosition=middle;align=center;verticalAlign=top;spacing=0;" vertex="1" parent="1">
          <mxGeometry x="280" y="600" width="120" height="80" as="geometry" />
        </mxCell>
        <mxCell id="fik9IuDUR1Fv5bedAydr-6" value="" style="shape=image;verticalLabelPosition=bottom;labelBackgroundColor=default;verticalAlign=top;aspect=fixed;imageAspect=0;image=data:image/png,iVBORw0KGgoAAAANSUhEUgAABAgAAAFnCAYAAAArA3syAAAAAXNSR0IArs4c6QAAAARnQU1BAACxjwv8YQUAAAAJcEhZcwAADsMAAA7DAcdvqGQAAP+lSURBVHhe7J0FgFRVF4AP3d0N0t0hjSLSIIqCgISCoihKCAYIJmKBCiooKKA/iqQCIt3S3d3dtUv+77szb3kMs8subMzMnk8fMy/n7bv33XPuueecG+eWhShKFHHz5k3p3LmzNG/eXB599FGJEyeOe4+iKIqiKIEC6mTfvn2lSJEi0rJlS/dWRVEUxd+I6/5UlEjl4sWLsm7dOrOcPHlSdu3aZb7zqTYpRVEURQkMgoKCZP369UbGHzt2TPbt22e+b926VeW9oiiKH6IeBEqkQ5X65ptvpEePHuY7XgR4DrDkzp1btm3bJnHjqm1KURRFUfydv/76S5566ikj6215j4xPlCiRnDt3TuW9oiiKn6GtthLpoBw0adJE4sWLJ9evXzcKw40bN8z3GjVquI9SFEVRFMXfqV69uqROnfoueV+5cmX3EYqiKIo/oQYCJUrIkSOHURqcIwcJEiQwBgIdTVAURVGUwCBFihTStGlTMzhgw/datWrdsU1RFEXxD7SnpkQJKAUoDE5jQIYMGaRs2bLuNUVRFEVR/B3kfePGjSVhwoTuLSIpU6aUKlWquNcURVEUf0INBEqUUb58ecmUKZP5jgKRN29eyZ8/v1lXFEVRFMX/Qb4XKlRIcuXK5d7iMhCUKVNGPQgURVH8EDUQKFECSkGBAgUke/bsZh1Pgk6dOkn8+PHNuqIoiqIogQGynukNkf3kH2rTpo0kS5bMvVdRFEXxJ9RAoEQZjCDUqVPHKAupUqW6K0ZRURRFURT/h/ACkhPbBgIGBBRFURT/RKc5VMKE6sFy9epVuXbtmntr+GEeZDIZMwXSDz/8EGEDAYkNUTw4T40LiqIoihI12PIeWY/MjyhnzpwxYYQVK1Y0Ux9GNCExHoZMjajyXlEUJWZRA4ESKlSNLVu2yOhRP8umTVvkSlAQW107wwlTHi1YsFAeypNHcuTMaQl9945wkiRJEilZooQ817ad5MuXT5UGRVEURYl0bsnevfuMvF+1eo1cvnTZ2hIxeY82uXjxIsmYIaPkL1AgwvI+YcJEUrhQAWn5bCspU6asyntFiSXQ31i0aJFUqFDBGAmVmEcNBIpXGD34/fex8sE7r0jdYpelXulbkjO9JcAjmELAVbtcVSyiwj74msjB0yKTV8SVv1bHlfcHDJW27dob90VFURRFUR6cGzduyOzZs6Rr59ZSKfdpaVruljyUSSRxAvcBEcBWKSMq76/dEDl2VmTa2rjyxxKRTq/1lR49e2lnQVFiAQwmtmzZUoYMGSLp01udDSXGUQOB4pXJkyZK3+7PyvCOQVI0u0hcS9bHhDGf2kkF3XJQpO+k9NLv62lmdgRFURRFUR4MVMD/li6VF9o0lsGtT0ulfLckHpEByHzXIdGGLe/3nxTp82dyebbbL9K06RPqSaAoAQ5GSgwEQ4cOVQOBj6BJCpW74EX9d+ZM+bB5kJTIKUZZiCn5zO9inCiSQ6RB8TPy04/D3HsURVEURXlQ5s6bJ+2rnpHKBW5J/HguuRsTIt+W97ms/kGLihflpx8Gh3gkKIqiKNGHGgiUu8DV59Kli5IjnXuDD4CykirJTTl54pj1TRUGRVEURXlQ6IBfuHBBsqeNGaNAaKRKKnLqxFE1ECiKosQAaiBQvGPJZE+vgbOXRFp9LZKzs0i1PiJdR1rLCJFuv4gcOXPvbjs5Bd4dK1Kih8jCLffRzbfuR5UFRVEURYl61uwRqfuRSOaOIk9/KfKaJfNfGibSb5zIucthy/Br10U++FOkyBsisza4N0YYlfeKEsig0+O1zMAk3/lkXXX9mEcNBEq4SZVMZOgLIvkyi7R/ROSrdtbSXqRzHZF6H4v8tZKX3X2wFxIlsBSL5ngCiFy/aW3Q919RFEVRfJJSuUWGWDKf5MS9m4oMsmT+0I4iNYuKtP7GlVQwNBJY57zzpFve33BvVBRFcYMRYOTIkVK/fn1p2LChmcWgRYsWZr1Xr15qJIhh1ECghBscCshHwEKcoL3kzSxSrbDI+GWuTMRhwfFpkrtX3DjbAL5qm6AoiqIoMQtehBgHrA+J65D71Qq5PALnbrrTzm/kt+urgWPTpnCvWHju91xXFCV2QULCmTNnmuXo0aMyb9488z2u1eCogSBmUQOB8sBcuCKyfp9IuYdcxgObQ6dFth4S2XxQ5Mwl90YP2D9lpcie4yI3rbZg1S6RiStc7ouKoiiKovgWx8+5vAJK5XIZD4AwQ+Q5Mw6duuje6ABVf8dhl6fhrqOudeT9ZEveh6YfKIoSuDA7SdWqVSV79uwhxgA+EydOLE8++aQxEigxhz595b4gNnGSJdiHzxL58m+Rno1Fnn/EZSDgPccoMHiaK9EQisTnU1zbXU3AbdImF/loosiS7S5FI2lCkYGTRQ5byoaiKIqiKDHL1esub4GJy0W++Evkh5mWnG4tUiCra/+WQyKfWnIbeY/XwSBLJ7hJGKED5DveBJw/f4trPUUS69ipIgdPmUMURYllJEuWTB5++GFjLAA+ixYtKrly5TLrSsyhBgLlviidR6RJOZEGZUUuX3UJeHIMQLClTHQfJVK1kEim1C4lYvsRkY0HXPudpE8pkiuDy3gAfE9pKQ3gaUxQFEVRFCV6IZ9AzSIijS2ZX8P6XLVb5FKwK4QA48Hbv7nCDrJY8j5vJpEDlj6wbp/7ZAfpU4jkdMr79CKpk6msV5TYSsKECY0Xge0tgIGgdOnSkiZNGrOuxBxqIFDuGwx+Wa13uFkFkT6/i+xmBkKLY+dc30lgNGOtyJyNIpXyi8QPpbYljOf+oiiKoiiKT8HYHvIeD8FyeUWaWjL/h1kiQddETl5wyfvj50X+seT97A2u5IbxQ5HrCZzbXYOGiqLEYmrXrh3iQYChgCSF8ePHN+tKzKEGAuWBIUyA5IQ7iSu8JZLYeq+TJhIpnF2kbimRetbStb5I7ozuEzxwtwsGZje4oRmPFUVRFMUnyZ1BZN8JkStXLXmfQCRJQpFC2Sx5X9q1dKnr8iTwBl4HNjdU3itKrAbDQKFChaR48eLme9KkSeWRRx4JMRgoMYcaCGIxJAMJbfHm9MeW81dcIQVHz7pcCyFzamtJJbLjqCvR4K5jIq/XF/l7tesYzlu8zTrXPW8ySgVzJANNQP7MIqcvuM49ZX2evihylqRFHOzEvX7TOtDbPduLoiiKoii38SYrncvdAteVR+DwaZfhHtlsDrPA+I88vxzsktWtqrmSDTOzAccs2+lKNIxMN/L+xu1zH8rkkvHsO2N94nnANez9Ttjm7V6di6IovoH9Tt60Go6ILJzTu3dv4z3Qpk0bSZ48udfjwlq0LYh84lgPVZ+qH+MsPr7fuHFDrl+/fsenvdgv0tWrV+X8+fNmuXTpkgQHB0tQUJD5fu3aNTl37pxMGD9Ohj+zWgq6kxABxoEhM0TiWb16frVwNldMIreAUeCnOa6YwiYVXAaDeZtFNh1wjS6UfcilVPwyT+S7f0WKWN8HtxdJl0LkUpDIN9NFsqYVSZvMNV0iSkX/p12jEjbjl8WRz+YWlmdbtzXrNCLEL5HkJFGiRCbzKdbHBAkSSMqUKc1Cg+NtiRcvnllwY7K/2xZLp+VSrZiKoiiKL+Ap75HnyHmnrLe/2/Ke9QsXLsjZs2eNjEf+X758Wa5cuWK+I+9nzJghnUrOkyblblkyz/0DFsxKQDJiQgsY7X+shEuWcxvI6R1HXDL68ZIiq/e4khcnTeya3aB4TpFfF1py3pLthSw94qt2rhwFF5D300SypRNJnVRk+hqRExdc8r5YDtfvcn0GFV4dk0HadupmZDZyHtmeIkUKI/eTJEliZD6yH10gderUd8l5e7FlvHNhO6i8V5QHg3bm7NkzsmvXLlm+bJkcP3bU6iPcbqvuiXXoDesaX331lbRu3VoyZcp0Rzt0LxInTiK5cuU2yQ4zZc5i+gH6Lj84aiDwU+jUHzx4UA4fPmyWI0eOmM+TJ08aZYAFJQGBijBFGPLdFo4IVAQs2/iko4ygtTvM//vtV/n+qeV3GAhiGgwEXy4oKu2ff9Gs8/eh4GDc4DsKD8oQ23g+Fy+65lrC6EE191SiaEBoSFA8eB4YFJiTlSVjxoySIUOGkO/s1wZHURRFiW6QYYcOHbpD1vN5/PhxY+hH1nEM8ht5jwznuy33kXMs7KNTzX7kPp/s/+uvv6RD0Vl3GQhiihADwa8Z5eXX3zWyl04Ich35jvzGyIEst7dh/OAYp7y3P9kGtrxnQd6nTZs2RNY7F3twQVGUsOGdGz16tIwZMViyxlkrRbLfkpRJ7+/duXXTan+cMUjh5MaNW3Ls3C1ZezC5JM5eR/r17y9FixZz71XuFzUQ+DC29R/hdurUKVmxYoX8999/5nPTpk1mO4Iuf/78JoancOHC5jNnzpxmXlH2RRQEMdft1PF5eb34GGP59xUwEEzY31DGjZ8U0ll/kOqLYeHo0aNG0eITBWzfvn2ye/dus6CE8SwoB0YneLZFihQxU7Cw8LxRrpxeCKpUKIqiKBHF2ZllVH/VqlUh8n79+vXGAE7n/qGHHjKyx5b3TAeGvE+VKpX7SuHH7ni/++67UjLoU58zEPSZml8WLttsZKvN/cp8DAknTpww8p4FeX/gwAEz6rlnzx7znWO4PrpTwYIFzTO25T2yHwMD92LLfJX3Smzn99/HSp83Wsuf3W9KvsyudzMmmhDzy9Y/Y5fElWHLCsm8xatMe6ncP2og8BEoBhY6rSgDmzdvlm3btpmOKtZxBFO2bNkkR44cZsEIwCcWcFt42p1m+/N+QWHo3v0NKX39G2n+sKUwuLfHJNTSof/Gk8PpusgXXw5yb40cnK+A8zvKGm6ZGGfwzDh27JgZseGThW08K2A0BiWNxS6jPHnyGKWN8rAXRVEUJXZjy3uMARj7WZD3O3fuNIYAvPmyZs16h6znE482OqcQWfKe+/ji88/l3PK35K2mN+5IIhhTIIYZEJh0oK78Mf7vSO2Ihybv8UbAMHP69Gmv8p7vHAPO8rFlPvI+Xbp0Ku+VWANePI0b1peXyy6QeqV9o6/AzCrPfx9fGr/0o7Rt6wpHVu4PNRDEIPaj53PDhg0yYsQI+f33302Hv2bNmmaqD7J50sm0wwOiy2I9bdo0adeqmcx856rkzxKzLz5P6eSFONJsUEr5feoqyZs3r2tHDEF5YRiwwxVYMCQw4rN8+XJZs2aN+cTAgFL32GOPSZ06daRatWohFs3IUu4URVEU38cp7/fu3Wvk/a+//mqU7CpVqki9evWMnMDFHSOAHSIQ1XA/yKx6dWrJb69ckMoFYl4lDLoWRxp+Gl8+/m6GVK9RM8blJDLeKfMJZ1i3bp0sXbpUli1bZrw88D7AUIC8Z6levboZ2AGV90oggtGsfr3HZWLHtZIhpXujG3dzdydW9Q/vG2Cffz+vzHvjrL5SoR7yyScD3FuU+0ENBDEELm4Il7lz58r27dtNjHvZsmWlatWq5tNTsEQ3CMFffh4pv474Uoql3mYSDqVMen/uhyauiBMjeO6tmyQ0iiNr9tyS1aeKyCtde0uLFi1DPCZ8DeerhNfHjh07jCcIo0OMDOGJgIEgc+bMUqpUKePCWKBAATMSoYqDoihKYMKoNOEC8+bNM4MBGPxLly5tDAMVK1Y0Me8Qk3KAPATfftlfciVYK2Xz3JQ0yaz7uQ/7BGLQ/BUR/VOs8y4Fx5GN+2/JkoM5pWW7N+TFlzqbvAm+iFPeoy/h7Wl7gyD78Trg3jH4lChRwoQrIO8ZNNDQBCUQsA0EkzqtlfQp3BstLgaJzNlo9XPOiGRKJZLK6s4wawkJy8vkEUl8j1c66KoryTkJzGuXcJ0fEfqNs/oIBbvLgAGfurco94MaCKIJHjMLguPzzz+XWbNmGaHRsWNHKV++vMnMS+cRBcFXOou3rB76ieMnZMHCBbJk0QI5euSg3LwZsUmL+ZtRiLJkySLp02ew/jb3jnAQP34CSZ8hszxSu47JTpo2bTqfNQ54w361+MSV1M4cTbzjP//8Y5RF4h5RGBo0aCBPPPGE8Y5AeVCDgaIoiv/CiDMDAWTmnjhxouTOnVteeOEFqVGjhjEIMAjgW/L+lpw5fVqWr1guc+fMkkMH9sr1667kfuEFkbdt21ajzxASGRGQ7anTpJdq1WtJjZo1rY51xpBwCn+BZ8iC96At78llxCwRc+bMMQMFJEWsW7euPPnkkya3AfJeDQaKPxKageC61U3YfNDq3H8gMuR5kUeKWe+GtX3qamtZJfJdR9cMZqFB5C7Tnz47WGT4SyJ5M7l3hBM1EEQOaiCIYni8xLUxeoCSsHXrVuMl8NRTT0nx4sWNUPT1zqBdRe6nqqAkde7cWZ5++mkTLhHRv9U+3tefUUThWTLqsH//fuNJQv0gBhWlkXrBqBLJqFAqyW8QaH+/oihKoEG7jvs54WaTJ082rudlypQx8p42Hc+BQJb3nPPee++ZhH4tWrRwb40YPJ9AlPfoQiRDRtYvWbLEeBdiAMGTkAEQkk0j89EB1GCg+AOhGQjghNXBL9ZdZMyrrulRgalSG3wi8kwVkXY1eNdd273Bsa2/FvnQakbyZnZvDCdqIIgctBWKImyBQIwh8WhDhgyRZs2aybhx4+SDDz4w7oUIB38QhLbAti3d97Pc7/n2bwca/E2UPwpBq1at5OuvvzZ147PPPjMGAnJRNGnSRBo1aiTDhw83LqrUqftR2hRFUZSow26bp0+fbnIJ9OvXz4QPjB07Vr788kuTfwZ3c3+QZbbM9SaPw7NExvmBBn8Tg0F4VeA58MUXXxh5P3jwYKlVq5bxKGQQBc8CPE7wPFF5rwQivN7Xr7tX3IRWy+2mwN7veZy+HVGLGgiiAJLV4D5O527MmDHy0UcfyaRJk0wCItzLEIKK4gQFgmSU+fLlk+bNm8uoUaNMEqROnToZ90QSVr744ovy999/mxAFXBgVRVGUmAVPMJLStm7dWj799FN57bXX5N9//zUDAnQI/SksTok+yDvFzAfI9mHDhhl5/9Zbb5mEkU2bNpXnnntO/vzzT5OjipxGiuJ3WD34kxdEDp4W2XFEZNoakRzpRJqUv935P35O5MfZrn0/zBT5b4druw1GAHISDLP2lezhmv702g2Rvr+LZH9J5MAp13FK5KM91UgEj4HVq1dLy5YtzahBly5dQjwI/CGUQIl5qCP2gqshowqMQlGPGjdubIwFbdq0McvUqVONcqqjDIqiKNEL7S4x5e3bt5d3333XeHz98ccfJpzAH0IJlJjHKe+ZOhFjwS+//GLqEVO0EarCIAGDBr/99pvJZaTyXvEnqK4s2w6LjJ4v8np9kYypXPvIVdBzjNXRTytSt5RI/TIir/wocvqiaz/QipLUsMOjYhKncq34Vs+1c527PRGUyEUNBJEADfb58+eNW/jzzz9v4sno1OEuZs+Lqyj3A3UHZZPkhQ0bNjShCGSbJrElsZ7UMUYZDh48aEYZVHlQFEWJOmhjSUA3c+ZMEx6WKVMm06GjE8d3lffK/ULdYTApV65cUrt2bfnkk0/MQACDA0OHDjUJLjEgME1mUFCQynvFt7GaQqY/xGuggdX5r1VM5M1fRS67HWL2nRSZtV4kc2qRs5dEkiRwGQH2W9ud0KKypHTMZpAgPu+Le0WJEtRAEAmQeLBDhw4yfvx4+emnn6RHjx6SLFkyVRSUSIfwlDRp0ki3bt2Mgtq7d29ZvHixGbXq2rWrrF+/XpUGRVGUKIJEc6+//rqJFWdGooEDB5o2WeW9EtlQp9AlGXgiTwE5ipgJCy9VPAsWLlyo8l7xC2gei+WwOv8nRI6cdm0LvubyCDh3xeU1cPayyPedRAqFYwIUrfZRjxoIHgBGbCdMmGBGdsnQzygCyQdVUVCiA5RS6h3hLHPnzpWsWbOauojisGvXLjPCoCiKojw45H2hQ8YobubMmc3ILjMSqbxXogNyFlSuXNkkuV60aJFUqlRJ2rVrZwYHmEqa2TMUxVdgFgISCBBGYJM+pcilYJFTF0WuXLXWU4gUzOrq7DOVIUvCeK4ZEOCmtd22A9DMJk9EzhfXOtMg8htMiahEDfH6kW5XiTA0xu+//77Mnj3bjCIQf6h5Bu4G6zaKFPP9krFfn0/kwvNkIQyhevXq8swzz5hwF0a3MBokTpzYTJUYqNmhFUVRohJkGMaBQYMGGfduQrvomPnLLETRDXInQ4YMZjYeJXKx5T3yvFy5cibEBb3z22+/lSlTppjthCOqLqo8CLZXCp/kVrtw4YIcOHBAdu/ebabnxCCFt+ratWtl5sx/pX3Vc5LU6rzbnL8iMnmlyOVgq8OfQCRdCleoQepkIqcviZy56Eo8mMpab1ROZOk2V9jBvhMu4wDTGs5YJzJhmUiShCIl84gkiGt9t35j+xGRazdFTl0Q+XuVK+ygNPsduWDnbY4rJ27llytXrpg8McwKwnf0ZBYbfUfCJo5VAWwDjRIOeFxnzpwxLl4kkRs5cqSkTp3avVexIXkeCXVoXF599VUztQ/T+SC4NIFT1EIdZZk4caIJd2FOauIXs2fProYCRVGUcEI7Sr4BZBihhOR7yZIli7ahHiDnbXnPwEnhwoVNgl2ek79M7+jP8NwXLFhgEmMzKIBeitxXea+EB7sbiN5OXTp06JCZiQVjH7NqsM4x1Ke0adOa2dh4r1nWr10t6wacN94ANlzNfUkDNdCuhmxnl1m1/uHzjm18Wl+M94C1sC1OXPdxLPzjhGOsnc5q3m9cPNlyo75cuHhRLloLxg0Gzrh/3gsSx5MzhnaKbfRLQN+VO1EDQQQhGRzxhwULFjTx3ylSON4KxUCVItyCURa+M/rCS8hSqlQpEzNvv5BK1IIxi+zH5Mcg/IVYRhpIJyh2+/btMyMP2kAqiqK4OH36tPTq1ct4C9DxZWRcuZulS5capRtZ75T3dCRIqMd3JWpB18KYRdgrSbIJg+ncubOULVv2DrlOB5BRVdvTQIndYBTYtGmTMQYwXSs6I/0aptxmyZEjhwlf5V1mKm7aQpsTJ05I/XqPy6ROa+8wEMQ0GAikYHf55JMBZp13AwMBhg7q/rZt24wHxKlTp0ybTqhYzZo1pUCBAuZ4xYW22hEA4wBZ43GXx81QjQPeQRiRgRdFITg4OMSbgO8YCFRZiD7IU4CSMHnyZGP5rVevngwYMMC4W9FoUjZ4GTz77LNy7Ngx91mKoiixF9pGFGU835BnhBGqcSB0MD4zcu2U9+Ro0jCD6IN6SkJDwg7GjRtnZtNilJSExufOnTN1muW7776TRo0amTxFrCuxEwxF27dvNzNkoK/TccYYymxso0aNMrkuGOR79NFHzUh7+vTpQ7x/7YX1+PETmBkIfInzQXGNMcO+T/oceHozOMbfi847YsQI857wfcWKFcZA0LRpUxNCwbNRNAdBuNm/f79paOvUqSNvvfWWca1RQgdlAWukUwixjUz7qjRELzSQzLGMlZSkhmRD/vXXX00DStKtDz/80Lhg0SgiDNSAoyhKbMU2DvTs2VNy5swpn376qUkQp4QOMgMZsnLlSvcWMSONeKxVqVLFyCAlerA7bhhtMAT8999/MmzYMKN/0QlEByMmm4XOknNEWAl8MODxnn700UcyevRoadCggclhQbJLvE7QFe38Ks7FGxy7Y8c2mTF3mVQpeEsSJ6D+uXdGM/Qy6Gqs3RdHRi9NKz3e+cR4PThx/j14z9CP4xiSe2McwJDGuzJnzhxjbMN7grYttL8/0NEQg3vA48E4gPvciy++KK+99pppfJWw4bkRB0dGfRokIHYTNybCM5SYg5EdDAMdO3Y0Lla4XgEKxP/+9z/TUCqKosRGaBNJOswIbP/+/U2uIeXezJgxw3Q4kS+A99rff/9tnmNsVbB9ATw5V61aJS+99JIJJTx79qzRz+gc4RlD3gItn9gB7yZl/sMPPxgPAQxIjKw/SPmTwLDLyy/KjpV/yOv1bkqtoiLJk7AnOruWcUyCw98WiYxdnkLeHzBUnmnR0vq7IjbYxXvB+4FRjbYfwzDGE/ossfEdUQPBPcCiRCcX15R3331XY7bCCdWKDKc0QMT9YIUjSeH06dPVwBLDUDZko8VbAOOX3QTQAJYpU8ZkQybmTFEUJTaBi3z37t2NIv31118bo6kSPvbs2WNG4rZs2WLW8+fPL6tXrzYjcUrMcvToUXniiSdk2bJlIfIemFnqr7/+uisvkRJ4kAsEowAdeqbGzpYtW6R1eglZnTD+T5Pr6vjx4yI3g++oZ1HNLYkriZMkl8KFC0n7Di8YPfZBPGG5dwbOvv/+e5k2bZrxsiAMNzKfmT+gBoIwQEl44YUXTOwhcdvasY0YTAVJbBPWOF5WRqeJiYuNljhfAo8OEmyiABMr6mwCGFUghIYcG1pOiqLEFgix6tu3rzGaDhkyRHMMRRD0pRYtWsikSZOMvEeG9OnTx71XiUmYohOZjwHMCQNexJnjVv0gHSrFd0G/I/ynffv2JsT0lVdeCYnPj0z4HdoADBDUs+jsWlKPkyRJYtps6nFk/W3IBAwrzAJGcvVPPvnETCceW94VNRCEAhWc2MP58+ebpB3p0qXTDtN9QOZnFtwNaaR0RCbm4ZXHysvsBihz5IlghMFOzIKRgBgsdQ1VFCU2gBs2SatwJyWha548edx7lPCCXGEQ4LnnnjOxyWQKZ2pdJebBbZrRXcoHeU/CbQYKKDM6V2wnBl3lfWBB+eLBSy4QElQTIq2GoIiDboynDfm68IrGyELS70B/X9RA4AUeCW7WxNDjYkLiDuX+QBiRAbVt27Ym7kkbJ9+CaZFQ5DCEUd83bNhgtpcvX95Ml4RLlaIoSiBDjDbZrH/66Sfjdq3cH4RkkmuIUbapU6dqSKaPERQUZHQyRkPHjBkjixYtMtsxiJEvolChQmokCCAYCOrQoYNJFEpySs2ncv/QLySHx+DBg00Y1RdffGFCcwL5fVEDgQc8DuKziaUbPny4z2fgxTLM6O+SJUtk2fLlcvTYcTl5+nRIYsCY5tbNm7J921bJmCmz8SKwHqZ7T/SRIH4CyZg+naW4ZJaaNWpIyZIljRITU5mp6ZSTQZjO+Jy5c+Ww9f34iZNy9do19xHRjFXnqfe0BJcuXTTTHV62PnPkzCVp0qZ1HxS9xLXqSfp06SRjhvRSqWJFqVSpkjFWPGhCHUVRFCco0UxfTI4h4rR9uX3BfRd5T2z/goUL5cjRY3Li5Em5dv26+4gYxhIiZMpPlSqlZMiQMUbkffx48S3ZkUYyZcwoVSpXNsZucuqkTJkyRsqWTjlltnXrVpk9e7bsO3DAKrNTcsXaHiPY8t76euXyFav+H5OLVr3KlCmTpadlipEyg/SWroHML126lNSoXt3Iezx3dVDp/qAP8PHHHxsPAlzk9Tk+OLw3hOUyVSiDx+RyYGa7QDWEqoHAAzIYY3Ejdp6sr76Yd4AiwzDw62+/ydRp0yRI4kuOAoUlx0P5JWmKFJIgYSKfUXKoXFctQRgvfvwYm06H5xUcdEUuXTgve7dtlsM7tkm65EmkZcsWZp5rGs7oeF6EreCm9Psff8jxcxclY+688lChopI8ZSpJmCSJ1SmO+QbcNAbW87p88YIkTJTI1KWYItiqN8GXL8mBPTtlv1Vu8YIvGfeu5633UxNfKYryoJAn54033jAxuSTw8sUQOOQXRuXxEyaY5eyVa5I1bwHJXaCQJEuRUhImTuIz8h6uXg227idujOpOyPsrFy/Kvp3b5OCOLZJEbsiTzZqZ8IfomqKasBUGAJhKbu/ho5I+Rx7JW6S4pEyTVhIh7+P6RqcCmR9kyVn0IFOXXJujnWtWvQmy6vnhA3tl39ZNcvXMCXn8sceMHs7gki8b7nwRPEDJM0X9I9RHn1/kQcjBvHnzTG46kn0TuoHsCLRnrAYCBxQ6yVpIqkc8oi9a3LjHI0ePSnurk3TszHlp27OP5Ctawoy4WrXTfZQSGlR3ljVLFsioLz6W8iWLyeBBg8xcqFH1cvN7ZETt/dZbMnXGTHmu29tSruajEi+ea65ZJWxME2UtB3bvkBGfvi83L1+QMaN+MaEr+vwURbkfaFcw2DK6hnu1L84Hzz2ePXdOXunSRVasXS9tu78jxStWNp1LbfvuDc+PZdem9TJi4PuSLlkS+XnkCMmVK1eUynuyug/87DMZ9tMIaf7S61Kj4ROSIGFCLbNwgufpyWNH5efPPpADWzfJr2NGScWKFX1SJ/c1qH+4wpN5H3d4BjuVqIGEts2aNTMeaCRkxfgYSO+4GggcMEf/O++8I6NGjZJ8+fK5t/oOFNU/M2ZItx49pXaLtvJo06clvs6scN+cO31K/vl9tJzYsUm++/abKElMRZkRr8RUmdlLlJem7V80HgPK/cHI0KLpf8myaRPlg/f6mKy8qnQpihIRaJdx+W7Tpo0xEFSoUMG9x3fgHlesWCEdLdlR5rGGUv/ZdpIkqXpO3S94xc2dPF42LZwlg7/8XEqVKhUlsoNOA0nMbqVML81ffFXSZSKHlcqo++H69Wuycv5smTNujLzUvp31vrZWeX8PGEQknwq50/hUo0rUcvLkSXnzzTfNcyekI5CmCFcDgRtc9oklef3116Vly5Y+2Qjt3rNH6tarL68NHCK5Cmgymcjg5s0bMu23X2TyT0Nk9apVplGNzOdKvWrYqJGUrN1Q6j5tCTdtrB8YmqwNy5bI+y+1kVkzZ0rVqlXdexRFUe4NceHPPPOMMQwwrauvKdG0cST8q1mrljR9uYeUrVpTZUckcOvWTVny7zT5+p1usmLZMpNkLDKhXrVu3UauJUstz/fup56dkQDvwv4d26R366Yy4scfdbaFMOBZYfhkenZmqGKKdiVq4ZkTTsRMEXgKMztYoCSDjNfPwv091kIB//LLL6aQmSvWFxNOkJyIsILKTZ6R0lVqRKiBvHHjuuzavEG2r1sjp48flYvnz0mK1Knl1LGjRjHC9S0q4Lla/8j+ndvlanCQiZf0NYiVfKhIMbloKWPrly8x8USRVf6uJDGfyJXEKeSpjl0ipOBRZrutMttml5l1fylSWWVmfTfxnVEYR8lIy9a1q2Xfti1y4sghSZsxs8kh4StQ9zNmyyE58xeSSb/+Io0bNYy2uFJFUfwb5NL06dNNoj8yUfti20EirNe6dpWMhUpK7WZPR1B23JDdWzZZsmO1kRcXzp01suP0iWNmP7llogJb3h/cvVOuXLooya3f9DWQHTkeymfdWyqZOWWC1KtbN9JyJfD3jxg5UtbtOiCd3v3QpUdEQE+7du2qbFr5n+y15O6Zk8cl+MoVSZo8hXmeqdOldx8V+VBWW9eulH3bt8qxg/slXeYsPifvU6VNJyUeria//vCtVWaPx1iCaV+H0WwMny+//LIJyVBDStTDM+ZdJz8WiceZDYzEqOS1YR/tgmkb3cf6E2qStmCUl+mNevbs6bNxiKNGjZYjp89J1XqNI1TJEDqjvhogC6dPkQIlSpsFF/eZ48fKz59/ZJSHqAIFZeQXH8l3778le7duDnlJfI348RNI885dZf7yVSaDf2SxfPly+fHnX6RRmxcipOBdt5TDMYM/k3lTJ0mBkq4yw6Aza9IfJgb/wtnT7iMjH5IEzf97ojxUuJgUKVdRlvw7Xf4a/ZPPlR3vQMVaj8m1RMnNlKSKoijhgc73559/Lr169ZIkSZK4t/oWGDBmzp0n9Z5tZ7V1ETMO/G/IlzJ3yp+Sv0QpKWjJjlRp0smcSX/Kj5/0M2F1UQWDECMtnWJIv16yY+M691bfA1lcp3krOXj6gpneMrIgtODtd96RBq3bR7iDjSHnneeekqMHD0hRS+7mK1ZSLl84L3/8MFj+/ePXKJO/rpC9KUbe87vL5s6UiT9955PyPr/1TDIXLC7Dhg/3WV0yJuGZTJ482cxGgRe0hhZEL/QdGW/PnTu3SaxJv5Iy2bFjh9SvX1/27NnjPtJ/iPU1iCzGL774orH++GLeAbh48aL89dcUaflqzwhZ/1EWxn3/tdVyiLTv/o6JhUuSLLlkzpFLytV41AggV9r6qKFQqbLSzvpdhI9rUh3fJWHCRFK6ai0ZNHiwiSV6ULjG2N9/l1pNnpL0mbO4t94bzvvj+8Fy4/o1eb5nH0mX0VVmmbLnlPJWmTETQ1Syf9d2o9wkTZ5ckqdMKU91fEXmTh4nN6265GvEjRdPyj/ymAz87HPj/aMoihIWtBOEFDDfe9myZSNkbI8uMGBMnDhJmr3QRZJHwOsO2THuh6/NiHCHN/tK+kxZjOzImC27kfd4Dloaq/voyIdkye17vms+fVzcmwTBFR99XL748stI6Wzy7P8cP16KV6wquQtGLGzhanCw/PDhu/L0S13lsWbPGM8Lck2gP9EpZlaIKMH6uw/v3WPuPalVT5IlTyEtXn5DlsycZukfvidPeVMrPFJHRv4yyrhyK3dCeAthBWTW98WBzthAIqt/xvMvU6aMdO3a1XgT4JVMfjuS3/sbsdpAgGBYuHChsex069bNJ0MLALehi0HBRmBERKHZsWGtTB87SqrWbYgJ1r3VRYYs2aRKvUauVteCZ0F8HtljzacRmreM8KBzyCfbXZ/WPnO8tZ991sJ5QEy/cz3kV31cYeD55C9eygh519/+YGDU2bJ5s9Rs/KR7y73hd3duXC9Tf/tZqjze8C6vg3SWwletQRPr2+2y5DmbMnE/b+A7xiE+nYvZ5y4zFAC+m3VzvHvd+r52yUL3L8SRBFaDhwJz9dpVs8XXyFukhOzZt89k7VUURQkN2rd169bJv//+K++//75PTmkIdH72Hdjvktvhxfrbdm3eKJNG/iBVLdnhqcswOFCzcbM79Afa+siTHbev4S/ksTryi5f+Z2T1g4JRhxxGj1od/IjoaDzDxTOmmnCCEpWq3nmu9b1AiTKSLfdDZtX1zN1lEqKjuYwTRu9yb3d9hqWjWcewzX299csWm99iIdyC8o0yo8SDYN1f7gKF5er1G7J27Vr3RsWGZKs5cuTw2YHO2ALvMP1JkpN36dJFDh06ZNoHvDt49/yJWG8g+N///mfcQphXPSINe3TCHMgJk6eMsMvQxuVLTSczS648d/1trD9cu76J7UIgbFq1TGaN/0NWLpwrsyb8YYwLN2/ekuVz/pXODWvK9P/9ImsWL5TZE3+XP374Wm5YFX3fjq3y/QfvSPenG8h263gYN+xb6dvxWdm9dbNZ9xd4HsTenT512rgGPSiU2ZXgq5I5R073lvBBDKJdZp5wj5Ufqy+p06c3ShnHzpzwu6yizCb+IdvWrTJKwLK5/8orjWrJNMpsyQKZPekP+f17l2fEvh3b5IeP+ki3p+rJ9vVrzHXH/zhU+j7f0iiYhDP0/GKoEca8H2dOHJP0mbNK4kS+qUynSptWEidNatw7bYVJURTFE9qH33//3cTnMq2tr8IUeXETJpaEEWhzafm2rF5uvmfLk9d8OrFlR5qMmUzncLN17Mzxt2XH1jUrLflwQ1bMny2vNnlU/v51pJEdc6b8KWO/G2Rkx4FdO2T4J+/J60/WNcfDpJ+Hybvtn5EdG9ebdX8idQbqQBw5ePCga8MDEBwcbAZy8hYpbp51eKFOzrF0qqw5c3sNS0iZJq1UqdvIPP+ta1fJv3+OdZWZpaORN4CyXG2tv9qktvw95idj3J/313j53SozdDTyF/w4oJ8ps82rV5hrTrbK7J32TxsdL0+hotLj86EhQw5nTp6QlJZOmNhHQ2/IvcSz2rt3r3uLQh3ieXz66afSvn37SMupodwftAWEr5GPgLac8mFhKl2MBf5ErDYQzJ8/X86cOSPVq1ePUKMe3WDRjxsv4i5DuKPHsf4LTdHAhTxR4sRyeN8eWTz9L6nZ6Anjxl6tXiNLAP1uktVVql1XslsKB4Kj5MNV5GFLyVizeL6cPn7MWHNbdX3TdKyNW6FF6crVTVhB3iLFzLo/YZJVWfWAl/pBocxcAj9i9erShXOmLoYWSkL+iESJk8jRA/tl/t+TpFbjJ02ZVW/QxCh8F63zK9SqIznzFpBTVhmVqFjFKsN6sm7pItPZz12gkLRxlxnui9xdqYerSrse75oy47ftd4HEkr9987k89eKr5rn4IsTnJk2WIlLKTFGUwAUvo2XLlknTpk19Oj4X2RHnPrwZkde006HJDpIEJ06SVI4fOSTzpoyXWk1csqNW42YyZ/I4k5+AUARkxMmjh12y49F6smnlMiPvc+YrIM+90VsyZs0meS15j0QoUbGytLdkB7LE36CziTHeVuIfBDrwV69elSTJIj4NJQkJE1p6mDcdlHqaIUtWOXX0iMz/a4KR95QRnwumTpLT1rmuMissxw8fMmX2sCXvMSZwTo68+a0ye0syZ89pQj2huFVm6GgFS5Yxv2l+11quXQ2WEQPflyfav2T9rm9600LiZMlV3jug7v7555/SuHFj49quxCzGmLd1q2nHnWA4+P77791r/kGsNRAwKwAxIiTzSJEihXurD+NFeNyLTNlzmFGBi+e9j4ijUARfCZIta1aYDmN8dzbnhFYHFNfyNYvmmXUEKUKKuD2+x7OEB3GOkMLqsJLTgLnpsWZvsQQTVnT/JOY7wRmz5TTPkVkLvIHRB3fEbdZzTpsxk8R3W4sTJEhorP5rFy9AYphyQpHDSMEx8eJTZpfMsUmSJ5dsufOaxJXXb1w3ZZYfhc9Rx65Zys6/436TOs2fNUYfb8qLz2Dd2oMqeIqiBC7E5yLvGzRoYJJ4+Tr309pmyJrdeJCFlngYeR905bJsX7daUqZJFyI7kOtJk6c0o89GdliyhGu5ZIe1WJ+2vMc4nTN/QVn0z19GdpCIuEDxUr4tH0LFdc+RKjsi+Bw4+iFLX7pAQjOr7Dxh28ljR4y3ALkJkOtA2SRLkcrS0eab9TvkffwEpswuh5RZYjMtNmWGboG3J56CTkiMTOJq5D0GB1/GP+ta1EHbNmfOHOnbt6/PhknHJkh8O3XqVCNvnNOmYzAYO3asGZT2F2KlgQCBMHHiREmfPr2xugUqjCQnSpJUdm3acJcQZH3HhnVmlgOEgzchSey5TTxL6DixhRmJ4io+Ukd++/Zz2b11k5R6uJrZrriIiCijISlfs7YZ5SEjtFUo7j23ITs0lv7r10Mrs9u5AjzLDGMRMDpAgqZfB39mplRi1MGp2HDddf8tNKMS5WvUNiNLxFApiqL4I4sWLTJuuMwPHogdDP6mstVqmWnxkOveZMf29WuNTHfJ+7s7o9eQ9zwa61q28cBgrduygxH3CjUfkz++G2SmxStStqLZr9wn1rNr9vzLZipodDFPGBA4tGdXqDoauoBN/ATu6TrdxeEsszJW3Rg/fIgJMSxcurzZbsN1yUOQNVceqfRoXTl/5rQZIFB8H8qO8EqmfcyaNatpB5SYhTJInTq1CfnAs+Oxxx4znkBsJwyJ2c28vcu+SKw0ENDZGT9+vHz99deSNGlS99bAI02GjNL14y/NSDGdPAQGFRMrMtPqXA2+YtwOSX547MC+ECGEa/nFc2eNUGEdY4D5NN/dn46sg0XKVDBeB8vn/itZcua6o5HiKHMO36zzlLBJkz6DvP7pYFk84285S5lZZcXztsss+MplSZYylXEPPH7oQEiZoVycP3tGSletYa6Dm5NRAnnmlJdjoXyKlKXMEpscE1kceRL4nQ3Ll5j6wqgDo1GElGhWXEVR/BHaQhQ1cg2lTZs2YJVo5sp/86vvZMnMqcb1PER2WHKfcDO8AFKkSi0FLNlx6ujRENmBJ8DZUyekVJXq5jpGT2AAIERm3Jb/PLuClr6QOGkyWTbrH8mULbs5J4SQc1yLEjY8z5x580vJylVl8i/D5fKFC9Zzcz1vBgGOWTI+U7Yc5pmftuS/XWbkIDpz4riUrlLD9ayt8nLJfL67nz2LmwIlSlm6XgpZ8u9U42lgvwOcQy4jQkoIQbhg6RAbli0xngiK70M5Dx8+XB5++GGfDpuKbsx7YC3U75haeMcoF3IPfPDBB5IhQwaTEHXWrFlej4/uxX5GYRHHOiBWteL8uStXrpSBAwfKmDFjzLQUvs769eulW9/3peuAryOs3FARdm1aL2uWLjRT+WE0SGx15klEQ9wgIwUInZULZhvLMdPqnTx21AiRkg9Xk82rlsmQvm9K7kJFTawh4Qh4C1Sr30TqPdPGZNbnmdKJxFPhyY6vhDRUJ44ckhXzZpl8BtkfyidlqtY0oxwpUqcx+32NU9bf/WrjR2Tzxg2SPbuH4hNBSEbS6rm20u2bn42XRURA2O/cvMG4fOI6GFqZrVo4x3Tk02bIJKctZSF9psxGydu8arkM7dfbuIK26/6ubF+/Wn79xiqzeo2l7jOtTdJBWL1onpk1oXmnLmaUAfZs3Syf93jZeJ4AZYtS2X/4ryHH+BLU79eb1ZFvPh9o5pqN6PuhKEpgc/jwYeM5QELiVKlSubf6LuRKeOGVV+XVgUMjLjus9hrvM2QHRl0jO6y2PEWatJK/eEkTPkBSYtp+ZEa6jC7ZQbganU1c2b/v/5ZkyfWQkfdc69dvPpPKdRrI40+3svQCl1xcu2SBSXrHtHi2vCdPwbLZ/5ikh66plB+x5P0jJtGeLxJ05Yq8XL+6TP9rsondfhDZQWLjJ554Ql6z5D3POKJcDQqSNUvmy/4d2yVpipSSOl0600nPapUDuhNGA8IJ0FGYNhmDT1qrbBkQ2LZujXz//ltmKuT2PfvI7i0bZeyQL40HKfI+Y7Ycpl7Q8V/33yJ59tXuJqzEqi1ycPcuGditswlLwPPAlvf9ho8xnoa+yGfW/bZsVNfMNR/bYcaTEiVKyLhx46RcuXKq/1jQ3i9evNjkAWDEnqnsYxrCC1avXm0SF2IoaNiwYYyVFf2HtGnSSLZs2aRSpUpSqlSpUENTYp2BgHmQ69atK61atZJ27dr5xQv1IAYCg1XErkLmX9f55l/HtbxVA36L7fY++7dZ51ucuObfkG1wx/1xLv+5L82++7r/aMJXDAQQUh58Op6Z8/mFHOOA/Wz3LA8UDBJWcq3b2+48Bsy5Vqf7Dqz9cTnGcZyvoAYCRVFCg/bsxRdfNO15nz59/KJ9eBADAdjtuvXljjbbs533hP2m/Xfvs48Pr+ywNt4+333sHft9DF8yEID9TK1v1uK6F/Ov+75u778N9xzyzN3rYK/HvYeOFnKuex+Y/dbyIM8jKlEDwW3IPUA/ZseOHX4x2BlVkAAQg0Df9/rJ/IULJVuuPFKkXCVJnyWrMaT5grHLetOMvnr21ElJlyHm8uBcvHBeTh45JAd2bJPNa1ZIsiRJpH+/96RpkyYmVMXpiRLrDATMXNCmTRvjReDLUx05eWADgRIufMlAoIQPNRAoiuINVJtt27ZJlSpVzIhSoUKF3Ht8mwc1ECjhw9cMBEr4UAOBC9q3Dz/8UE6cOGHCpWMjPIMtW7bIpwMHyu4jx6V0tUelRKUqkiFLNm0774X17DAW4CW2fPYMObV3h7z6ysvy5JNPWm2YKweN7/kMRyF4D+Bm2LNnT78xDtxJrLLlRC9RZCfTEotq9AkrinI3KI+43jJTUYECBdxbFcVGZYd/ouUGjJozeNiiRQv3ltgF7fuBAwekXv0GkiRHAenx1TAzCwfhTYTnYPDTJYwlblwTTkRi+Y7vfCDPv/+FvNP/A5MvgWcLscqDgNiU9u3bmxkM/Ck54TqrEXj1zbelfa/3rBKLVTadaOSWnD15Qvo+30K2bNoUKR4ELVu1lrZ9P/XZWL5AgHCI/i+2lqGDvlQPAkVRQmAq4+bNm8vIkSMlS5Ys7q2+Dx4EbTu9JM/16m+Je5UdUQVJmt95rrnMmPZ3pHkQtHrnE3eCP5VDUcUPH7wtbZ9qKp07d3ZviZ3gOdC6dWuZMmVKrAwvwCuswwsd5cnO3aRS7brqMfCg3LplkqJ+1/8taVy7prz55puxx0DAn/nTTz/Jnj17jFuOP3UkVqxcKbVq1ZIEiRJrBygKwV2duaI3btjwwCNOO3fulMfq1JEz587fEdOjRC6815TZ14MHS6dOnfT9UBTFtAtLly6VH374QUaMGOFX84Nv375dqlarJteu3/DJxLCBgi3vJ0+aZPJSPYjsOH78uLnGnv0HVAZFMZcvXpRub7wuH3/8sXtL7IS+TK9evYxXtD+1b5EB3hNPNGsmNZ59QQqXqRABHfuWXLlyRSaPHGbi8MlRkDNvASlTvZasXjhPHn6sXpS9vwxmBQcHybgfvpbWXXv5ZDuB3Ay6fFkGdn1BhnwxMPYYCIKCgqRmzZrGOFC7dm33Vv9g3bp10r17d+natasKnyjk9OnT0qVLF9m8efMDexAcPHjQuLYSzqIGgqiD5uu1116TwYMHS6NGjfT9UBTFhBM+9dRTZiEhsT+1C3v37pUOHTrIG2+8oe1ZFEIng1HoadOmSdmyZR/oWZ85c8Z4ELz++us6JXAUwwxkTz/9tNHVYivoPbNnz5bp06fL559/HuvaiWHDhsmkOQulU5+PXDNwhAOe2ZolC+SfsaOk8XMdpXCZcsa7l1HzhdMmy5F9e+XVD6PmWWKMXLd0oRw5sE+m/fazfDNpls8af3lOzD43c/QPscNAwJ/477//GoH733//ScqUKd17/APijGgUR40apZ3NKISwgOLFi5vnHRkhBoSzoHyowhB1MH0M7qGMJmiIgaIogFH98ccfN1NLZc3qmtbVXyDEoFu3bvLHH3/EupHB6ITpzwoXLmxCTiMrxGDGjBmSMKEmKYxKiLlnsC82JymkT8NgZ6ZMmYznZGyC9zZvvvzyxudDpGi5Su6t9waD4DvPPSndP/tWsuTM7d7qYt+OrTJr/Fjp0Ou9KNUhL5w7Kx93eV4+/mWcT3uHXbsaLH3aPxM7khReu3bNCFumO0qRIoV7q6IoiqIogQSjNXT6mjZt6nfGAUVRlPCAp2tsa98wjKxatUpuWp34fMVKurfeG86bPPIHSZ0+o6TLmNm99TYZs+Yw17NNA0FXLsvhfXvk6MH9cvLIYRMecN3qR+7ctF42rVomZ04eN54He7dtlotWpx9YX//fItm4fKlcvnDBnMOxG6x13Pb9iQQJE0mVuo1ih4Hg6NGjJq6P+UJ1hFFRFEVRApNz587JkiVLTJIlRVGUQITp/fAgiG3s3r1b8hYpZjqx4QUDwbI5MyRdpswSL8HdHr2JkyaVio8+LlYHUc6eOiHDP+4rN65fN+ELG1YsNQvET5BQfvz4PVm7eIHxDD64Z5d80/dNY5Tm2BXzZ8vCf6ZInLhWP9O61tH9+8z1zLqfUbBUmcA3EFAxcBkvUaKE34UW+As8Y3tx4rnuDW/netsWGuE9DiJybKBjPwvn84jIs/E833M9LKLqWEVRYje0E8Twp0+fXnLnvtONVIkkaIvtxcZzPQycp9uneNsWFhGVCbFehvC324uTcD4T5+nOU7xtC4uIlEOsL7MwYAYDDKGZM989Gh7oXLx4UVKmSR/heUIY0XcNEN99JtsTJkpsjvl7zEjJX6yk5MibX9JnziKFSpWV4R/1MV4FOa1tSZInlyy58kjajJmlQPHSsmX1Crl0/pwxPlSt20g2/LfE5DaANBkySvkatSVR4iRm3Z9IlSZd7DAQEF5APKISNRDvOXPmTFm7dm1Ig75//36ZO3dumA08+8gJsXDhQrNghTt16pRJvvLnn3/K1q1b3Ud65+TJk7JixQqTXwKlMCzIMrxy5UoTI0gCwdgMzx2j2axZs2TNmjV3lBnP/l4wXShuXv/8848cO3bMJHfkvPHjxxu3t7DKnPKlHPhtsvCGhV1mlC/z3SqKotyL33//3cQoa76eKOD6dbk6YbwEj/hJgr8bKreuXEGgyE1LJgQP+0FunTnjPjB0Zvwj8uVnIv37iGzaaE6XNatFxowS+X6oyM4d7gNDgQ7C8uXLZc6cObJxo3WBMEAWIZOQI5MmTTLhprGOGzfk6sSJrjIb8q3cunzpdpl9/53csuR3WFA+/85wldn7fUU2rndtv3pVZPo0kV/HuBaraoTJtm3bTDlMnjz5nuXA6DjHEioUK8ssDKjTPJ/kVkc1Q4YM7q2xB/7+iI7IYwCo8EgdOXXsqNy4fnd9wltgx4a1ZpaBfdu3SJ7Cxdx7rI5y2nRyxXpndm/eKGi2iZMklSTJkhkzQ/yEJEi8ZXJhwUOFixqjwMoFc4zRgO14J/gncQLfQICljc4MyecCMbyAbM100s6fP29eHNbpWNH5uhxJcS/MJ02nkMR7/NaRI0dCrs3zXbRokVSuXNm4/vBCIMBHjx5tBAKQHARrJ1y1pArn22BcKF++vBEEzDRBUimsomwbO3asMRqQAIh9/H1MUULGYNixY4ckSZJE0qRJYwwM7Kezah/LPXIubNq0SVKnTi1JrZcV99OYxC4z+5nYZYaRI7LKjDLwLDOeHc+FZzJv3jx5+OGHTT3h90n88uuvv95hlKEzz7ME9lPHwE78hQK+bNkys54xY0apWLGimXIH+A1+D/ib7DJj+keSODHCt2DBAnM/LNwn98F3juU7QhCvH/KGUMfYpyiKEhrIl6lTp5qkc4EI8tVTdiCDI1Pe09aHJu9vWbL8uvV8Ez7TQq7/Y/UOTxyXG7t2ydW/psj1X0danU/3cVZbzTXsNh257NINRL4fKPJYXZE8eUV6v2LJCks09O0lUqSIyOPWdku3NqB38LucjxxiQIDvyEr25cuX7w6DNvdL+QPyB70DGGwoVaqU0UeQKdENz4B7psy4f2eZ8awjA1ves9xVZtYzuT71L0n49DNyfcY0uWXtv7Fnt1Vmf8n10T/JLcc9OOUw8p8yu2SV2Q+fidSpJ5L7IZFeL4sQdm0VvSxdIFKrlvX9MHHbrnLntykHvqMz2HoA72XJkiWNnoM+xn7uFwMA33k+dpmhD3IsOl5MlJmvg66dJ08eTYgZTuj7PdGhs5w+flTOutsRJxfPn5WbVl2PFy++JEmewurcu/oNcI02xTo8ZZq0xijAtfjPrITguh4hCE937ipL/p0qi/75W0pUrGy2+ysBbyAYN26cyVSbI0cO95bAYujQoWbaxilTpphG44MPPjBzP/fv39+shxdeGDrjLJ4vD8JszJgx8t1335kO5M8//yzz5883DToj+Ag5BEvatNYLZL08WOyrV68ech0EAB1SrP2MHCN4bJ555hlTRgiDRIkSyaOPPmrKC+HJJ9dDGZgwYYJs2LDB/J22UKWDmypVKtPhL1bMZfHjWEYKOBZLtS0kGVGiMcUqXbRo0bv+xuiC3/3+++/lscceM/dJGZGNlm39+vUzHejwElaZoUxhpKEuIGApMzw6KDOeAQoFnhSUGR19BHbVqlXvuA7H/mUpERhx+LQFfYMGDYwgpzyLWFpdLUtD4JnaZQZcnzLDU+Hvv/8261ChQgXzmxh0OMcGpQKDAV4ojA7xN1GHMACx7jxWURTFE9ouPNkwAhcqVMi9NXDg72N6L7wh6fTS0froo4+MXH7vvfdCDPLh4V6yY+TIkTJ8+HAj75k9Cdlx9swZiWO1xwl79JTgsf+TOMmTi6RIKfHy5pXEL3S0zrxzAAb5gmEXLzUGafgdTvlsmEj+/FYn/rRI1lyWUh1fpFQ5kRfbiLzSTiRzNu5PjLxB7iBnmA2Izib6wEMPPWTkAXKFgR/7/rlvvAr4PX6Xji7H9+nTx+gkdFrz88PRDM+RMkPPYYYKygy9rW/fvvf0knRyrzIbMWKE/Pjjj6YeIPt5Fhjb41h6T8KeveTqH38QbC1xUqeReHkeksQdKTO4fS30OGSzs8ySWWU28HtXmWEYyJqbjpBIkqQim9ZZOlxDkf+WWKXv7k2g3/Eeojeg99keAMwiRi4wdDRbT0C3RCfkWH7XPvatt94yeguGoYIFC97198ZmeBa8+zwXJfwktPoXLbt0l7FDv5Rt61YbrwFCCphZYKu1njV3HqteJ5Dq9ZvIzD//J0GXL5n929avNt4H2R/KZ559sFUnMZzxncSFHHPzhuudpL0pXv5huXLposlRQNiCDfvNsTdveH2HfZGANhAgEOhQMi1KIE41RwVjpJ0kjAieV155RZ599ll59913jYAPb6eKTjQCuFevXmZOedz+nRDLSWOU11IE6LSxjkUel3SEcK5cucw+Gng6n8mSJTOdcfslwhWqXr168uWXX5p99n1RPrxQrVu3NoYGBAvrdDQRDk2aNDHrGHf4jlBF0NpTECJoGLmuU6eOMQZAzpw5TeebYznHzvLKsXgm0JnFFT4mocwQjLjNU2YtW7YMKTNyZYQHygwXf7vMPL0iKJMCBQqYcqlWrZqxNjPXM2WGEGY/IzCcx7NHqXaWGXAOniE8S6Zw4lkDihplgIEGd167zDAGNGvWzKxny5bNfP/222+NAcsuMwwFuMXVrVvXvJvA8Yz4Uf48g0ceecTcC2VGEh7WMTYoiqKEBkoXI4/Nmzc3ciYQQXbQTiLzX375ZWNgR3b88ssvUrp0afdRYUPHm7Ct3r17G9lBZ9oJMhTZgXzAaIwMwTtsj9UpuWnJrZs7d0ritu2sjmZKCZ4y0X2WjUt20KaXK1fOyDg6qxjobR3M6t/LwvmWTL4k0uNdkaPHRJbNFZk4U6RgSZEp4yhLMfIGGf7NN98YfQN5BMg+PMuYC5+/wwbZyW/QSUZPoA5QJ+g8Y0hA/mMoj05sHY0yQ+Yj76mfGC0wvITX04WOMp3usMoM4wdlhrznE9m9a9cuuWn9/Te3b5NEzz0ncTOkleDJHrLU0U+hzDDW85yQuzxPqyglj1VmixZYsv+CSM8+VsfB6jlsXOfyKvj5T5FL50X+MM6DcYx+h7cm5YCcp6x4DniRMKCA7sGACFBmDAxxLHocuiLH8rwoM/S3n376yRyr3AZ9H52c90wJH6ZNqv6IvNxvgAkB+PrdHvLbkC9k4bQpUq7aI5IqbXpzTFnrmFZd35RJPw+XKaN+krPWe9u+57vGYDBm8KdycPcOGTv0Kzmyf5/879svJF78BDJu2DfuX8FQFldqNn5SSlaudkf5zJ74hwx57005dvCA9H/pOZn628/GWODLBKyBgEaG0VmESaDmH6Dy0eGik441nZFoBDvb7eVe0NnD8oyAwbKNMKbjFxp02hAgdCxx7UdxQHjhZk7DnyVLFmO1puNod/oZieb+6Mwy8sx2oJGjY7906VLToURQYElGeCJM6Cwi4HEz43wEI9ZmhB7liyEDF3eMCYwqABZqLOccyzl0XDl28eLFxnjBfhSemAQPCDrpGGUYRaDMGMUPT3kBz5Myo9Ntl1mVKlXce++Ev90uM54BgptRfIwzjBJwDYQw1/zjjz/MM0KhAkZdeMavv/66KSdGhLgeo0mUE88WRQRvDUawcOtEmHMMZYSHBKMGlIddZpQX1+TadpmxHY8UFELm9EURok5xv9QVXygzRVF8G1yrkQUYycPblvobdO5pu6dPn25maaCTEFHZQWeMzjL6ArKDDqU3aJfRL3ADx7sLeU+OgevT/5Zrluy6dfW6xC9UxHRAr5JYwJIz16y227pBcy6jxwwmdOjQwchtZJ61SwZ/JvJ2V5E1S0T69RKJF8/qgBYWWWWpBdVqiFSuhW4jxriAERkZgoyhbLkuhmhkECPc6Bw2yAv2YzixPQ7QN5BrnMvfgqyNTigX7gF5hj7SvXt3M3pul1l4yg35jecI8jEiZcYzSpcundy05DLhIKbMgq+6yszSy679Y5XZRUsXmT3LhI4AZYZOgBwmXxN1jV3ffCHSu4vI6sUi7/UkbEIkdVqRsxdFtm4RqVlXpGx5cwdGxnPPnTt3NvUUXY7rYLyjHNAPeQbcK3ok+utLL71kBjyonzwvvC3QEbhOIHoDPQg8H0JWorsuBwqEAbR+rae88clX0urVnlK/5XNWJ//2ADLvZPY8+aTFy69Lk3YdpU7zZ82MCclTpZa23d6WkfNWSe/BwyRrrjzS9aMvrfWV8uI7H4S8y3xWr9dYMmTJZtZtajd7xjpvuDm+//BfpWGr9lY74Epm6KvEsV7SgPTd4c+ig0LHg5FrGmR/BYE4cOBAY3F2/h38jYzuEquPiz5C/+23377rGFz0cDVHsDgFEvsQPPXr1zcde2C/p8JBJ/2vv/4y7t808Ah9OvGMOgOjzmCfy3XtODZGgvnOkjhxYrMNgUEMOt/tcyGepSmwbruZYb1mQeDxW1ybe8HoQ1w631m4DvtYECiMHNjHolBhlXYey++w3xPc67Ba87ztEe/7hWu1b9/eKCr2yAnw+5SFXWZ02AktcD5vDAi4kGJcwXDDSLzzfm2XRds7gnPtZ2/D71D/KXv+HjrjdOJx2QfPMgOeO+dRZmxHWPPseF6UH4KJZ2ufy/PkXM6xy4xjOZ8y47fsMnWWGcfb57IfGF1BmeF3KTOMRXz3dqwTrs0ozMcff2zqMecoihL7oGPyxRdfmLbV2Rb6GxjOu3XrZjq2zjaPtpCRXQznGHlpZzEQO9s8jkFGE3aAvPfE9tDCIA+cy+J8XlwD+UO4GwZjRqZteW9+iV6+/Zu2bLPkg9UYu3r7CRKYQWnklx12SPuPPOB3goNcHgLAz1r6ujnV+lkDl2DhnATWtZCfyABkCiGF3B/tPp+hyRA65Lb+wLnAJ8fafytylo4qHVdkiPM5RhSM43jZ0ammXGy4R3L7UB6M6PP30Ml3Pm86z+Tu4Xkh0/EwsP8mzkfvwwPDWWac77xf/jY7hIGQPMrsnXfeMfLaUvJd5QN85/7sbY4ysy54xzPk+ZgyjxPXFLk92MmtM8Oc87LAJeD06VPGmMQ1+Nv45JnYZca98hzAWUfQL/i72ed5rPNvxSOY54FRITbCAA6eNdRb26sztkCdwCt16qJl8kq/T81ovRI14OkQ0E8X6yWu7c7GOJDgZWF0Fmsv7na4GaIksR0BaScGQtAygsx2T7BEYjVGGUHA8Bla7gI6qz179jRuYnQ6abRZbEFM4846zxuBYHfyaOBRDux9GAfAeS6Lvc6xLLZgoGNpX5tP1oFrcTzH2ftxZ3MeSwfX89iYrA+UAW6RjKqgCKA8MKKOIERAIjApEwwVjNxTnnSYndhlRnndq8wIz8AtkTLDwAP2c2axnxWLs8wAZYz9wLG22y7bWOznzj67zGzlyDYsAJ/OMnOea0PYAfv4bZQS9oV2rKIoihPaVUapCS+z269Ag78RnaZt27by1FNPmU48I7DIDjpidBz4jpGcEARv0AFk0MQpO/Du8gZGcgwDdKLxNjPwbC0ZYTqZLMhSFr5b7b/5tI6hDJDzdptuG+2BsFzi11n4zmariQ+5pN3UIwdo+zmf9h95BKzbsjw0GeLUHzjGliP2PUQXdpm1adPGyHs6dbang11mlAmeIHg92vmBnLAfDw6njhZariKMCHglMuoeUmb8zfbDpeysZxKyzVFm4HyGyHDXd9dpzjJzXsJe2MaCgcG+BvqErRNQBpQb6+xjcdYRBpAoI2/HKrdBH6T+2Hq0okQV0dtaRiN0jO2R00CFjj/JSlCKsE5jVXzhhReMovTJJ58YoUJDG1aCRsIJ8DwgDt5evLlz0yCxEF/GNWmkYvt0gfcDhhuEO3H5hGc8+eSTxliAW/2nn35q3ALx0CCeFOMAZYGy46RSpUomNt9ZZrj6hwbGAQQvv61lpihKoEHHGHlHrHqgQvuN2zWyg1hxBgXwUmPU+rPPPjOGZzpbGPJD61TheUDHwik7wkrcR8eVTh6dWUanlYiBnoQXH/H15ADCSIC8x2iAVyhlR6ceXQDjACETtjHdhhwGdLrDW2YYB9AZ8PpDP1QCC+oUdSRWG05umf9D+iW6RP7CEw7IEAP+JKa/QWiSkM4eRfZXQgsxIC6PjLW4ttFpxyiC+w2CnBg1ss1jgSUe7dVXXzXWZ+f5wLMiiRCubVjsgc6m03UJSzRWb9zIce1iNICcA3Q66eAGCtERYoCywIwBPDe222WGILfLjOeKIsixuIPigue8hmeZISgwhGE0sCFHAAozSgKJJfGsoMyoJ4w+BQo8Pw0xUJTYDXKQZLe0t/4+N3hoIQbIDdp1OpnICNo+QgzxHiMHTaNGjUxnHm/Brl27mvM9sWUHIYXG/dxqL0n+xyCBDfIPDzWOZeABd3FkB2CUCBSiI8SAMsNzj+dmlxnhBnhtMDjDoA7HExZiy3s6f5SjjV1mlJGtyyLvnWWGLog3KVBm6AyUGYYzElkGErE9xID38/333zf6fGzTd6jPAz79VAZ9O0Ry5tNZHKKSq0FBgWkgoBKRIAXLLBl+PTvF/kZoBgKKzrOBcBYn++jUkzDw66+/liFDhpiRB89zOAa3dTqTgLXaaVTxvCbY2wKpgYoOAwF4lpvn8yX5X6tWrUwZMPo/YMAA437n5F5lBp7XDcQyUwOBoijIRzpZJEn1d3kfmoEA7iU7aA9teT948GAz+uz5PJAZJHS0ZQedSc9R69ggO6IrBwGEVWYYdBgwQH7jGYAnoacsp6yQ93auH88y87wmBGKZQWw3EJBjAiMTiaoDrWzvBXX6q6++Mt5SzAgS2/7+6AQZEZAGArKkMhpLQh5vHWJ/IzQDQXjxJjyUu4kuA8G9oLycZebvCm9UogYCRYnd4P6O59WLL74YEN5RYRkIwoPK+/ARHQaC8OCU99yDllnYxHYDAd7R6JWff/55rKsrvCd43OIxw1SZqhtHHXg1B+TTZVo8XK+JR9TG9rbQ0WfhH1BONHz2oiiKonhn//79JpEbsfmKynt/wynvtcyUsKCDzOCTM7xEUaKKgOx9bN26VWrVqhXhkVtFURRFUfwDFGaSvpYoUcLkWVEURQlkyCnmzDelKFFFwBkIyD/AtHG4HCqKoiiKErisWLHCZInX0VdFUQIZDKJMhZ06dWr3FkWJOgLSQIDLIdPFqMIQPdBonT9/3sy/zPO34TvbFd+EcqPMKCO+g5aZoij+Au0Wmf3xIFB5H33cYi7206fl1vHjcivoCgWB8JBbZ85Y60HuoxRf4o4ys74bKLOzVpnZ64rPg35mzzim+Ba2Ts1iJ4EFpqYkV05YcDzHXbx4MSQZKVPbsn7u3Lk7+lbe4FjOd+rzoRHeYwPOQECCHx4kU/Mo0QPTIE6YMMEk6GFaHyocC6EeH3744T0rthIzjB07VhYtWmQy4pKxlDLbvn27fPDBB/dsYBRFUWKay5cvm7aLWVyU6ONK9zckeORIudLvPbn69SDT0bw69W+50q6VXGO6PZUfvoVVPkG9erjK7L2+cnXwF6aMrk6dKlc6PCfXZs10H6j4OnTqPGe1UnwDZtL5888/Zf78+aZfhB5NZ5wZZegbgdNwAPb6ypUrzcIUs7NmzZLg4GCTmJ5kgb/++qtJTAlst6FvxcLvDBs2zISfkLyRqW/BeSwJvTmO47/55htzLPfF9UMj4AwEf/31l+TOnfuuaXtiC0ePHpV27dqZJTI75p988on06dPHTMfz/PPPm3mW8dSgck+ZMkVq1KghBQsWNFmBgcrIC6IN2b1h+iJmPGAe78jsmB88eNBk/H377bfNlDBMnchUl5QZM32QBZf5sNu2bSsZM2Y0ZUYDpWWmKIqvQ1u5cOFCM+VbbDUQ4G78wgsvmLnuI1N2MPUe8oJpopkymu9MnWgrs/FbtpIEDRrIra2bRTJkJtOeJKzfQOIkSWRprTfMMYp3KLNOnTpJ8+bNI1VHs8usb9++pszQJwYNGuQqM6t84j/dUhI0bCi3dmwTSZ/JVWbWetykieWWJfsV34d3HANBkiRJ3FsUG/TXZcuWGZ2Xzjgj9nTUaRtJYBtZ7SOd6l69ekmjRo3Me8zsOeTB4fpMv8jMeUyxX7JkSbPtn3/+kXz58oX8/ty5c00YPF4CzEixdOlSs71ixYpSqVIlOX36tGTIkMHMhvLcc8+Zqc4TJUpkPAlg+PDhJhE/50+ePNn0+aBLly7mPGZnyZkzp9mGvr9r1y5z7KRJk+TkyZPG06579+5GZuJFENaMbQFlIKAA6KzyoGOru2H69OmNxSqiDQjPjql6ULj+/vtvE9dpV2ho3LixmVYGAwEWKio80wHanU2gov7vf/8zozq8mNWrVzfbnddR7oYyozGjzCJSbz3LjPlxnc+aF79u3brSsWNHY9DBIJAnTx7j7UHWbyAbLnOHU152mamrrqIovg5tHQMCKGQRnVouUMBTkk7m/cgO3FZt2YFi7eysYjiuV6+eUX5fe+01M/f4Qw89ZEbHLKEvcW7dlJuWshm3TFmRE0flFiNV5vdVdtwL4sd5/hF1E+ccOod4/dllRqfIBllOmdFpefXVV41BhzJjusxb169ZF7DK7NQpiVuqtMhJQkOCtMz8EN5bNRDcDZ5kY8aMMYNcGzdulH79+pnws3feecdMgx1eGHVfvXq1TJ8+3bxndNidNGnSxBhl6RPRAc+fP3+IgQC9mk/6QIz645HLFKrMUMJ2FowV/AbGu2TJkknVqlXNdelL0YdKkCCB8YQHBusY6CPhfrNmzcy2l19+2UzziKGiaNGipq0G+hCcT/vCM4DXX3/dDNRyLAYL+hrA7/O8MK7zt4ZGQBkIGInFxQMrTCCB4A+vpRkBcuDAAXnkkUfMOhUyPFCJcC2nslGBqUxOhYPv9kJlpxJj0eITa1mOHDmM1wZWbLbjvoIyQeVDCfEH7Gd8P3NPexLVZcYxNH7vv/++UQwoM2/TejqnTuI7CiWND2WGVZIGgwaFbZQZxgPKDGNBeOtOTEPDGhllpiiK/4CSgztmtWrV7mr3/Bn+lvC2vchaPPnsKR7DKztQMBlpxnOMc0uXLn3XM3SuIzuQE7ij3rDkxNW2z0jcdOkkbuUqcmP+bIJaXQf6UTFEtrznGdkeFmHBCB/PkcSaEN6ypszw6GCU0C4zftOJLe/t+6HM9uzZIzcOHpKr7VpIXKtDEPfhynJjwZzbeQf87NWJzfKeukJ8e0QNgrEB9GC8mBk0+/TTT6VHjx7GUEZ+mgoVKoTredGxxxjKJx133jPeISf2+2W/Yyx0zlln5J6BOfpC9EfR62fOnGnCA+YQeuU+HwMGfaZt27aZdcr1l19+MddBj1+1apXZhk7O+XhBEG5gn8/fSF8N4wFgNOrfv78xVjDDhfO3qC8cy7UAgwdtf4ECBYwXwYIFC8x2bwSMgYCHiXGASoLVNJCgI0chhwcsSFiGUBree+89M3rMuQgJXE28QYWhwjLCjGcAVqvQRmRwbcEyxidGBBpq3GBwlcFdhRcSpQP3NqaafPzxx8N0YfEVqD88BwweqVKlcm+9fygzrPu2W1Bo8LuUl92YYPUkhAOjATkc1q5da0YM7KQlNjQQGAi++OKLe5YZjQ7lQ+efUQdGGLBcErOE8Yb3pU2bNneVGY2Lr0Odo9xsy6iiKLED23WybNmyftFWhRfacRRUZMO9YMQKozxzo6MgEi6GbMDgy+iVt2sgW5ArjGChJNqyw9szpDOGS+z48eONhxqu6/EsxTbBkBFyY81q/Nol0cDBEsdSoq/NniVxS5aVW9a2G7u96xq+BM+Jv48O94PWH0b4kidPbjr+9yo3QgxQ7FHYGZRB7qIn0FlApnuT95QZHpuUGZ2gsMoMvQPDGZ4DeIISXhg/Vy5JOOQnucFooaUjUmZx06QxuQfiFCvF6Jrc2LnDfQXfhWeLnhRb5T11ljJXD4K7oW4wco4+jPGYttHz/cAoSNtIX9EbhAMQOlClShXTyec9wwDgCb/FdX777TfTt8IwwG8xyk/nHp0U7ysMDHgacD0MesA7jo5Np798+fLmXji3YcOGph3gunhr8xt03sknQF8Oz3jgHuvXry/PPvusmdqXOkGfhXYEIyK6PSEEgAcEM/pxLH8LfUEGCemz0Z7gQYCHWGjEsW4ifOZLH4c/A9d3Gmji5b0Vqr9Cpx/XftwpKVxvQsEGYY5LDSPAhFsg0H///XfTCUUYUok8QTCRtMI5jzS5BIhns5/j5s2bjSUNoYOFiutRial0YFcjz3tje1j36ytwn/xtP//8s0ydOvWB6w8CnpeS5YknnnBvvRt+l0aAkQESk+DWhPsSsUW4L5FAECWCUAF7lAhQjjHo2Mk4ecYoDpSZ07qO1RFLKIoCDQnl6hxx81Y+/lJmgKLLSAyNKAqaoiixA2IqUdCQb/7SXoUHlETiaEnwy2hSaNBOE8vKSBkjRow00f7juceIEu09xmbPZ4MCio6EcgjsR6nGSExH14aBAGTF4sWLjWLJMRiQzfWs3w7Bvr63bT4MnWiUY2TIg8p7OuUo5RjWu3XrFub16MTQaccQQGJnOgrI/h9++MEYAAYOHGhC/ehE2GVHp5gyc45m2mXGoAZQHwjx5FwM/3gqkI/r0UcfDblOSBn5aZlhCHv44YeNnps3b1731tgDujo6PO+658h2bIA6/u2335qOMP0953uGwe2xxx4z+QHQ4envkIib94PzAGMq7RkDcryDnqCvM7Jv69C8Nwyy8h7Z0H4y6Ib8wTCALo4rvx0yZP9WyDtnwTZ7HSOF8749153H2teyYTttjX1/3n7LSUSO9YS+9IO1ij4EfzyVBmtJeB+Av4AbCKP1xJTdy20dQUJMJiCAiH+hQWWkwLOy2VCxmzZtahSSjz76yCw0Qp6VlgXvANuVB1d0Z6Xz9tz9pSx4kRDSGD0i455plOi40sFnlDssKDPKCWi8GBHD2jhixAhzHSyhnl4YGGacZcYnyoLTOACUD38P10Mh5LcQsjb+XGb8bSjGTz/9tBoHFCUWwbuPhxWdn0CDEaDKlSsb7zDPkWRP8BS0Q8uWLFli5AjnIp9D0xWQHcTROmUHSY2dxgGwZTu6B4ZoBipsl1brB28vNt62+Sj8bXQyGUmLDHmHroQRn3w+GGbCgjLD7Rnw6KPMKEM6PLa8t5OM2eCRyMimU0dr3759iHHAxi4zrs+oIh0hyszeflf52OuR8AyiGv4GBr54VuRSio1Qtyjz0LxFYzMMYvIuP/XUU8aFnpF5dGgS8zH4hxdO1qxZpVChQqG2jejeb7755h1to9M4APa7hIGG95T+Fu+xvZ178GxTnOvOfhV4rjuPta9lL+DU8Z3bvRGRY70RMAYCwIJE4Uf0Ifg6CG6SzGHRxwgSFuRfwD1xwIABRkAQ12KP8ocG8SlYxVAw7ErkfIZUfNtljU/iXBA8XJsOWojw8VO4f9xt6DwzSh9Z9YeOK40S8UehPSN+izLDiMDIAa5jjPpjtEEpQIlhRIJn7gRDDfXdzoDqWWaAlwfeCYwoYVFl9IeRIBpAexoUf4aRNrxkGEFTFCX2QHuKAojrZqBBO07nD6UzrFwwHEdsLSNlyA6UQUbM7pX8jgEHOqEYo8Gb7GC/LTuQX8hFZAdtLeGF/g6ykwEUPC48//b7gWuQQ4hRbcogLJ3IDomhzPgcN26ckfvIe8oE12QMPM77osxwW6ZM2G4vTugIsZ/r4YbMaCplhmcD4Sb+Dp06PDyZTcuzUxVbsA0E1BXlNrY86Nmzp3mXyPxPCC0Z/zF+ooeHZxAJb188tUN7x/gddHLaRbx00MPRswnfxfs3rPfeHwmYEAMs7cR64G7odJUPFCgmLMy4in/55ZehuhdxnF2kduWm80lHnkybzrAAJ5xDJ9IWJAg6nqd9DW/XZd3bS+Rv4LZFw4DFkFH5yPp7eD7EIzHNII1Vrly5vF7bfq72J8KP+oxBhnhFjF5YjGvWrGn223A8yhsjaVyXXAKUmVN4cgyL5+/6c5nx99hTRaEgIxQ8PScURQlc8PiizUYmMioUaNDGMWXW0KFDjexAEQ2v7GCAAOWVxMO40HszGHA8Cq0d/8ooGbLD6UXAMSyBJjswDmC8x0uSznhkdjYZZKBDQqIz20vAE/u5gv0s6fwi7/HSIDM58gyDg/NZcw5lhrwH9Ak8Qewy83ZdJ/5cboTMkJ+J9/6zzz6LtR1k+jcYSagHsRHqd2ghBp5139v7wAxvtI12aJZn28jxvF/o1ZzDQltBUm8bb9dl3T4+UCDEICAMBPwJuLvTccalJFAbD2LKsJ7S0eflYOQ/PBXSzprLSIOd4CY0nNUhkCq7N/hbSTCCktCyZUujMES26xYdfdwOCTUYOXKkcY8Lj0LCeYxwIBBRHkhQ4i15oufrGxvKjFER4sd4HuRnsPMwKIoSO2DUpkOHDibmOhAHBAAZQJ4ZRrSQHYQJhqd9x0CARyDKMPI+NI+C2Cg7GIUnxw9uwXhlRnZoGvIarza89DDuEAITHnmPbob3AGWOvMfwHdYgkE2glxmQcI5BFnQ19KjQjGWxAYyFDPbhpRIboe6HZiAIDwyW0hfik4G38LSNsbWu8Zzi9cMs5+dQmHTCcMMKSaITgNB5rVGjhgkFIKFN8eLFTabN0LLZ2rDfzh3gGWfoCdexl0DEfvHPnDljMnyiLGDxJxHJvZ7N/cBIAC6FXJtXDaMOGXhtI01oz5nziLPDKwBvjtCMOs7yCtQyA8oNxRcPGnItEHLB3K73cqdVvMPzpL44BSHYdcje7nmMvR6euuZ5DW/XAuf1nOfYOM/xxHmcEnug04wXEV4EkTkC7EsgAwihYMSbUVPkAcZQewAktLqPCzKZ+ZE1njHqTjjfuQQidtuBURn3e5KQoUORFPheoZf3A3WRjgeGGZKloXsx+mhPSxfac+Y8vDjuJe8h0MsMKDcMA5s2bTL6GUaT0aNHm0GBQP677wXGATq3ZLyPrTCbCiHOPIOI1oX7aRtjK4SzBIQHAVZbEvPgaky2/0AvVP5eXIywoPG38qJgGEGwqKt16PDcmGKEDLAsJP5jlgdGE6L6ufGakb2Y2SJIEkgCQ0YXSAAVVkOliPGYIfcFIzPUd4w6xMTqVD/hw7OJD6195DjPfc5z2ee5Dp7nOdft756fYcExTuzz7O823o5TYgd0Gmg733jjDfeWwIV6jlsss9pg2GaKK9zPibONCqN2oMBzw12YKX4ZDMDThBBLZvWJbE9BT+zfRt4TxsFvMisBgwUqt8IG/Qh5z0xOhBaQSJIEjYHqKRQRmKEMbxPm+Y+N8F49iAeBEn4CJsSAkQQ6e8R7M41bbFAUKTasqiTMILSCFwaXNOIx8RSIagEYEWjQeJFj6mVm5JnpTYgPxEjArA64AOKBQV2JrvpCmbFgFcd1lBENjAOMMGDRJHu1r8Bz4rnEVJkxjQxuxGRgRkkoVqyYCStAyUIp1s5g+HE28c7n5rndXnd+Dw37Ot7Ocf6GjbfrebsGeLuO83znb4G97jxeCVxomxhpxWvQOfVrIEP9ZkHHQXYQQ4v3FLIDee9Lnc6Ylh2MPCPvkR3IfmbwIdEv3hjcU3S2E+hozFpAmTGlIeu2vPelDi91i3KLKYMTOiKjwnjL8ImHIAMBZKTHY0bbdhddunQxOj4hF7ER6qkaCKKHgDEQEKuN5wANcWxLXmIXH50pYrRwC0Eo+kqxch9kEqVTToc8JqARIdYQ90y8LPiMaYHDc6Hjy+g4o0K4QKI8+ApM+YjCQIc8psBgghKFa22mTJmiXbmLzdjtB8+b7/anvQ0818HeZuOtvMJzHjh/04nn79t4+y0l8KDNLF++vBmZpXMc26DeE0vP/NvIDnIM+ZLsINkeneCYmmGCdgDZgTs6hiRcimO6I0GZUU7UXQa0yKqOfPUVeJfwcCQPU0y1oxi5kPdMHUf9watT2/Q7oXzwln755ZfdW2IXvEf+YCCgPbbrrv1p6yv+UqcDxkDw448/moy/CCbFt+BFwY2/efPmxqVeG3zfhyaBHBcoMAgiLTP/hvJ0lqFnk88++xhvx9rbPQltu419HecxznPs796OA8/rh+d4JbChzAmv69+/v8nFoyF1vgXlwxzkhD+Q+FfxD5hOE5d+PB10VNZ3YaYRdGnyMMVGaF8iaiBw6gyRSWj6B8lhSVCKJ9Prr78e4t3FbGlMh/jWW2+ZdV8HA4HftwQUElZZ5nxVFEVR7sQpHD2Fmo19DJ8cYy8Q2jmhbbdxXsPGXvf8PU+c9+wNz3PudbwSODByzpSvWuaKosQm8EKJ7Jk3AhV0BMKKx4wZYwwKkQXXZZYYZtChw0/o0Pjx42XHjh0mgSShMfRHmXkMz2DAY2jZsmWm/PwJvzcQEKtMYZG0R1EURfEOgo1OlefiSVjbvH16W8Lax2Jj3xN47reNAM5tNt62KYEPHmm7d++WatWqafkrihJrwKOT/o4v5aryZZAPhKCR0JHwmYiC/sEzZ3GGcHFd8kAQ3sUxhFIR2r5+/XqTTJbkpHg2kByV8ziGmRfwqvI3AsJAgFWGuCVFURTlTuyOtidst/eFdowTBKPn8Z7X8LYe1nf7mp6LvQ/sdeent+OUwAeFi1EhssFruSuKElu4du2a6azGdgMBnW+eQ3ggJxvJSplC1O6s3wuOIZ8bs2bhJYAHwsaNG917XZBcHKMAC8limZa0Xr16Jr9I2rRpTbJ8pjv9559/jIc7v83sHOSOwZvAH+AZB4SBgMJSZUFRFOXe2J3r8LSZzk66LVzNNuvrjes3LSFyU25ay43rWNpd381ihLH3zrtzm31NG+fv2djbvF0LnPemBDbUK2I7dcozRVFiExgImO0htocY8Pcz08W9QCdg5J7nNnr0aHn22WfNLDD30hXoxJPfoEaNGuactm3bSokSJdx774RrEUaA98Bnn31mQt8IMRg5cqQxTJAzIleuXOZ8pljH8IARwR84ceKE/xsImBaFbLWaWEVRFOVuPDvkzk54aJ1ucHbMnQudtI0r90if9sOkT7th8q57cX7v32mErF283ZwfFs7rglN4exPk9nH2pxK7IAEUZa/JCRVFiU2oB4ELpsBcvXr1PeP50R+YDpZpTr/++mupXr26fPXVVyYknXU68N4g4X2tWrVMTgEMCoQn0M/0Bh4K/fr1M0aC7t27m5AGkkh26NBBevfubWZMY8p5tvfp00emTp1qZuXyBxYvXuz/BgKmOGQqG1UYFUVRwodne2mve3bQ7XX7u1m3/j99/Jwsn7tZ4saNI+kypbpjSZwskWxcvktOHHHF6NnX8PwNe5+9eLsnFs/jndvsY5TAhzJnpAZlK6bma1cURYkJ1EDgkvd0+PEaJ+lfWOBdzswBzZo1MyEAf//9txlMTpEihZlZILQwBQZAmGaTzj1L6tSpzfneYB+GgGLFismoUaPMNlsn8dRN+O4vA9kYX37//Xf/NxAsXbrUuHA4C0JRFEW5E8820lubaW/j017szjg4z4kbL460eOUxeePTFtLtsxbyxkDX8nzvhpIiTVLriNvXsrE7+PYC9mdonX7P48DzGCXwoX7MmzfPjMCox6CiKLEJNRC4oHP/3nvvydixY80zCQ28zHLkyGE68XgSHD16VDp16hQyqu/Ua5xUqFDBJBvMkiWL5M2b1yyc4+TcuXMmVODkyZPGoIDhgYHqmTNnmnV/hucya9Ys84z8Wsryh2BFwkCgKIqi3A3tpC0MnZ1q53ZwfgfPdc4127iGexceBBgK2BcvXlyzxLG2wfXrN6zjzdeQc0Pr1LPdXsK6J3t/WMcogcuCBQuMwhZaPVIURQlEyD+ArLPn1Y/NtGzZ0oxyk1sgNPAyeOedd8zoPnkLcO8vVarUPWUHIQzMTEBywkGDBsngwYNlxYoV7r0uMNQQhoA3AwYBpjRELjG7gb+D0YMQjAEDBkgcq8L5rXZFXEjJkiVNjIgaCXwHqtTPP/8sL774Yog1jW2M+pDdc+3atToC5IOQbbV48eJGEFFudoeNhpa4rQwZMriPVAIdWyw4hSnJBy9dCJJ9O47ItN+WyqwJy+WrP1+XouUfch/hOu/ogVPSu/VQSZw4odRqUlaq1ispGbOltepRPGM84BhPIe1tW1jY92cTkXMV/4Q5prNnz25iRMuUKaNl7kPg2fH4448bueGUHYzeHTt2TOW9D0IHi1FS3ivaU7sNJnyH0N1y5cq5j1R8AWLiW7RoYQZFY3uIFXV1zZo18uSTT8oHH3wgzzzzjNFTwwN5BZidoGDBgsbQ4C3po/0+2NjtWSDD30sSxaeeesrkUejZs6f/ehDwx2zfvt3EkxCTqPgWzFNNGWFpY0FpoOOJQUfxTVC+ccmyy8suO1ynPF2sFP/CFnj24tzm+R2cApHt589cklkTV8rHr/4iA14bJXt3HJVHnygvaTLenU0+TfoU0r5nIylQMpfMmrBC+nf6SX75Yprs3X7E1Xlwhx544vz9e2Hfn/M+lcBm7969xqWUKau0zH0LDMu4PtvGZVt2FC1a1H2E4mswEs2Iql1Wdrkh65miTfEdkI20fcTCa9vnkv+M3k+ePNnEyr/11lsm6z51+F4wRS4zDjDbQGgzQnB9jJr2EsjPnLpFu82zfOmll6Rdu3byxhtvGCOUX5t1GfFk+ojwWo6U6IGXiU7lww8/fMfIATFBuOXoaIJvQswRCV2cUJZ16tTRMvNjvHW82UbZOgXf5YtBcvbkBUtJvD1f8M2bt+TA7uMy6K3fZUifP63tIq9++LQMGNVZ3vyqtWTNld4cZ8P1EidNJDUblTa5CT4Y+aJUeLSozBy/TD54aYQsmbFRLl8OCrn+Lev6F85etn47+I57URRPMBDgxZQuXTr3FsVXoFPZqFGjO95hvj/66KPuNcXXoHyYxs2z3WV6N+Z2V3wLOnHoaIoL6i39P5IDMiNB1apVZfjw4XLmzBnjFYOxCz3D22LjbV9sWDCkkMSR2Re2bNliPAa6dOlivAZeffXVkKSMfhtiwB9IfAlW67fffls7MD4G1Yo4Fqb+4EUFPD1mzJgR6pyiSsxDkhWMBBcvXjTrWFhpgJs2bXqXIqH4B2E18ZQp+29cvyHjh8+ThdPXSp2nKkjNxmUlafJEsmL+Vhkz6B9zbNN21aV8rSKSMk3SMNtbrue6rlmTa8HXZc/Ww/LXmMWyePo6eeSJctL69bqSNFkiWbVgm0wetUDyF88pHXo2kLjxtB1XvPPdd9+Z5FG//fabe4viS0yYMMG4QNuJw1KmTGm2PfLIIyo7fBDaaeZmr1+/vhw5csRsY9SQqeDoLCi+A2VFaC4Z86dNm6bTvHpAH2PJkiUyadIkM3MBzwePWEKcfC2po60fxRS0zyRZJPQLYwrtdIMGDcyCodd5b35rIMD60b59e3nuuefMCKcKIN+CakWsFB1LKiLlgzsb29Tjw3fZv3+/1KtXz1gVKUOSrpABltADxT+xBZJnU+/cdu7UBXmz5RC5fClYzhw/L1lzZ5AKjxSVGX/8JznzZZJuA1tKtjwZ7mhn7es6cW6zr+36HavNDr4mM8ctl5+/mCp5i2ST1OlTyMJpayVp8sTGk6Df8OelWIV81vHmtLvwdv823u5FCSxQjomZ7tq1q3uL4ksQ8tmwYUMTKw3IDuQICqjim9BRoGPAnOdAh2r27Nkmx4fiOyDfyLX2/vvvm06wGgjuhmdkL/Q5li9fLgcOHDCzF/gKeDbgyk/OhJjSVzCYoM+TD47BWoyC3Iu3+/FbAwENG24Rv/76qyZP81GwTj322GMmKQgN2tChQ6Vjx46qyPswuLG1bdvWTCEDGHj+/PNPLTM/x7OZt8uT7dev4T0wV/79c7n0HtxGjh08LbMnrpTt6w9IiUr5pM3rdSVr7vR31QHOjWi94LcWzVgnPw+cKokSJ5RHnigrxSrklWEfTJLkKZPIm4NaS8o0ye64rufv3M/vKv4NAwLPP/+8vPLKK1KpUiX3VsWXQPlFJ2OEEw8jXFUZjVZ8GzxwBw4caLxyGcTBWKCZ8n0LZB6Da5TTuHHj1EAQTnhuvsTp06dNYsR//vknxnWY8Py+3/pzIoxA4xF9F9xVatasaRozYqe8xbspvgVlRQMGlFXnzp21zAIAb2VoC88Th8/IpJ8XSJlqBeWhItmkat2S0vvr56T/jy/Iy+81k2y57/QcsLG3kafg2rXrcu2qK0FZWMSLH1eq1Sslfb5vL+8Ne16e6viIFCqZUxq0qiybVu6W9f/tdB95G8/f1voY+wgKCjLTL2mSW9+FuFXyECBDeEcx5ii+z9NPP+3+JmbmKTv+WPEtNAdBxKEd8rXFxtu+6FzCg18bCJjBQPFtWrVqZUYTGjdurIlv/AAaDhJLpU2b1sRwVa9e3b1H8Wc8Len2OiP6C6aulatB16RmozKWcm+JBEt2JEqcQPIXyyEp0yYz6044l4SGm1ftlUkjF8i3fcbJx6/8YmY4+K7fRJk+dqns237UGAw8oX7xG3mLZDdeCRgM4sWPJ1UeLyFlqhcy0yeeO3XJfbR3fG1UQIl6goODJVGiRKog+zC8202aNDEGggoVKkiePHncexRfhhkomG0C/SwmXZ+VsCHOnvZPy0eJLvw2xICEHUOGDJEffvhBExRGEVQNXGL+HDdOFsyfI4cPH5Lr7oSD4YXkZ2vWrJPMWTJJtmxZI9S4JUyQQDJlyiSPPlbPeB+gIGpZhw1lhvFs+vTp8s/0v2Xfnt1yxVKuI4TVImzavEnix4svBQoUMHPXh5d4VvmkTZtGKj1cTdq172DCf1SgxSx2E+8sB3sb4QQfvvyz5CuWXTq/94QkTHRnfhDPsuO8AzuPyR/fz5FlczZJ4qQJJHP29JI2U0pTb04cOSNH9p00Mxk80aGGPNa8giRO4lJqONf56YRtm1fukU9eG2WdV1OadqjuMlaEgvNa4Hk9JbAgS3WPHj1MgkKVAVED7xLJaYmRnT3zHzlwYL8EX73q3hs+uMbqVWslTdrUkidPxKajTGDJm7Tp0kr1mo/Kc8+1lVSpUul7fQ943oTfzJ8/X6ZMmig7d26TS5cvu/eGD/K/MEPI+fPnTUxyROR93DhxJXXqlFK6TAV5rm07MwWpvp+RD+U8d+5c0/4NGzZMn7GfQn+KRK6EGPhDGfqlgYBbHjNmjElAwfyXKkQiHzJdTp36t3z5UU/JnHCfVMx3XTKnsgTCfdTpM5dEklj9jsQRHPy5fkPk5IU4smR7HNl9LqO8++EQadzYNUKh3A3vxZo1q+W9t7rKtRP/SdWCNyVn+luW4uU+IBqgNTlrlfeqPXFl5Z4E0v7Vj+XlV7royF8M4tnEh3Ssrf8njpwvk0cukP4/dZRcBTKHtKXs92xX8QhYPnezjPpiurV2Sx57qqKUq1HIeALEjx/PlH1w0FXZu+2IzPhjmZw5eUFe/bC5ZMiSOuQeQn7b/R3s37p04YoMfW+CbFmz14Qf5Mqf2ewPC2/3qQQWlDGJUpH53377rZZ3FEBo0KKFC+TDvt0kyZUN8nCB65I9LQZf9wERwHqNrY6jSLIIeqpb/VQ5c1Fk2a64sv5gMnntrS9NEuoECVR2eIP3YteundLnrTfk+PYZUrnATcmb8aZ42HijnPNWea/bF1eW7Ywr9Z/pIb3eeifU+eWV+4OyZoapiRMnmoFRNRD4J2ogiAYQZhgGsHZqXHvUMH3aVOnyYisZ/dJ5KZHzllj6f4yBp/K2wyK9/swoQ8fMk0KFCrv3KE7IHl338dryfqMD0qDMLUkcg5NF3LgpcvCUyDvjkkiTF7+X1q3b6HsaQ4TWxF84e1lef2KQBF0Oltc+ekbK1Swk8T2sSZxrys26xKpFW+XLN8dKnoJZpEOvRmZ2A2/HQ9Dlq3LlUrCZqSCu1VsIuY6F87uTU8fOyciBU83MCW171JdnX33cnGvj/Ds4375OaNdTAgPKlykOL126ZOZpViIXnu/q1aulRfPGMqjFEalW6JYkjO/eGQNct2TH3uMib45NIW98NF5q166t77cXyNRev349ea7EWmlV7ZYkj8HUATTNVvMtA6YklsyV3pT33uunZRaJ8I4ar1CrYzlo0CA1EPgp/mYg8NtatmvXLp29IIrAADPj3xnyfrPzUjp3zBoHAGWlWA6RRsVPyQ/ff+feqjhBgMyZM0uq5j4sT5SPWeMAMPKUM71Iu6pX5MtP+98zeZ0StaCsORU2vjO9IB39HFZH/4ueY6R/p59k1YKtd+QO4Djq1r4dR2TEgL8lf7Hs0m1gC8lTKMtdxgGwfydJskSSNmPKkA6+52+HgGJ58LSMGfSPvPHkYNmwfKc0eq6q1GhYWuK6j+P3wb62ff4d11ECms2bN0vmzPf2KFHujzlzZkur8sekVtGYNQ5AfEt25M0k0rryRfnu2y9D3n/lTpYvXybJr2+XjrVj1jgANMWZU4u0rxEkI777zIQ9KJGLnYNAUaILvzQQIDB2794t6dNbPRAl0qEhOnf2rBTJzsice2MMw31kSHlTDh7YZ62pwnAX1jtx9sxZKZT1ps+UGcntMqYSOXTooHuDElPQZnoq2iQIrPRYUenxRSt54e0mcnjvCRn11XQJvnKnchd85Zr8/esSuXIpSFq8UlvSZHDNa+5NcccQROLDK5eDjRcBOUjs4+x7cJ5nrZnZCyaNmC8lKuaV3oOfk45vN5bseTKa+uMN53VYMBQ4r6kEHnhH6YBA1MC7c8aSHQWzWO+Se5svkCHlLTl6aI++26Fw/uwZyZfhqu/Ie4t0yS0ZcCNYzlr6oxK56CwGSnTjlwYCGh8WDAQ6ihQ1IJM9c9UwCHzUavd3Hxc5cErkxPnbC/kC7gXXPHlBZN8JEY8+SLigqHUk2juoUChS3l7ooGtWJ/20VW7HRI6ccZXX8XMip6yyCM/jpGwJF+DciOpqlBlJkJSYxdlOOr+TCJAcAdUalJaM2dJIlpzpJIlH8PBRq/CXz9ksNRqVMbMPcL692Ny8cdOELKxeuE2GfzxZPur8s3zQeaR8/8EkWfffTrl0IchUUs/zrDXJmjO9JEqaUEpVKSCFSucyv+9MlOU8HuxrOK/leYwSONCu7dy5Uw0EUQjP2NsrFOyWHbu8yA7CyMKCVv/0RZG9lry/HME8ucDt3Lql8j40MK6GVWbe5P29ygyQ95x/2FoiKrrt+9Fyi3wwEJCoW2Wd/0HZESJ3+fJlMwDLdxZm5/Fl/NJAQHgBL0q6dOncW5To4JrV5q/aLfLU5yLfTBfZfsS1TF0t8tpIlxAKC4TNrqMijQaILNvhUiCUqOf8ZZEZ60Sqv+f6pMy2HhYZNlvkpzn3Nu5gYPjPKq8uI1z5IBT/xO5Q0xlwjsrx9cqFK3L0wGkpV6NwSFiAfdweKov1WaVuiZCwAuf5eAwsnbVR3n9phHzVa6xsXbtPkqVMIslTJpbt6/fLwNfHyBc9fpNt6/aHnOc8P1X6FJI4aUI5tOeE3IyARmrfn/1dCUyItQ4KClIDQQyAXW/mepFqfUSmrXHJDvIB/WjJjeGzLJ0gDHnAK7nnuEi9j0QWbnVvVKKci1aZ/WvJ+ap2mVnltfWQyIi5It//KxJ8DxnO/tV7RDoNE7nk2/2XWAVhG+pB4H+gm4wePVqefvppad++vaxfv95MJ9q8eXN57bXX3Ef5Jn5pICC8gOnvkiVL5t6iRAeJ4ovUKCKSLoVIkewiVQq6ljbVXSPMg6aFbaEmLr1cXpHcGa2Xhg2q00cLGVKJPFrclcuh7EOuMqtWWKRnI0vJmy2y85j7wFAgvrFeKZE0Sd0bFL/D7kx770jfklPHzpuwAHIM2H7GGBNuWC/0phW7JWeBLJI1V3oz4m/vAzr0qyztHwMAIQqvffyMfPzLS9JrcGtraSMfj3pJXur7hOy1ehZfv/OHHD905s57sC6T0GpY8Bo4e/KC3HK7tDiP8bxn++9wGjyUwISy3bNnjxkQUANB9IOsf7SYmDxEZfLclh3dG4qMnCey2ep4hgZ2xjKWvCFaSF/R6IMye8RRZpXdZdbNKrOf51tldtAqD/ex3kiWSKRBGZG0TESg5eYzMAqdIEEMJ5dS7gvKbcaMGTJr1iw5efKkSTj577//+nyuDr/1IChcWDPZ+wp0FRBKuBM6BwBRCpwLuLoVt2E7fQL7GM7HyOA+XIkEeOaez91ss/5hSqQDJ13bbOyyMIt7m30R1ikjFvaD57ri29ideyfHj5yRJEkT3RVecPPGLTm4+4Rkz5PB6shblcXj1POnL0k8SxMtViGvBAddk6X/rpejB09bHX06CHElWYokxvOg16A2kjBxfBn01u9y5sSFO+4hbry4kiBhPAkOvm4MDnbn38b53WkYsNfBeYwSWGAgyJMnjzESKNGLeausf/h0vmJ8JxEuAwM2vIohssC9zfM8T1nhua5EEo5nbsqPxfpKmR1ylBk4y80bZr83HS2U45WoganH1UDgn5QrV06yZs3qXnPBdO3qQRAF4EGgBgLfgfhEXNpeeMSVgRgQHtPXigyZIfLVVJEN+61trl0hsD7U2l+0m8jvS1yCp8cokQJdRbaFMTKhRA4LNotkSe0aFbJhTuMv/3a5kA6YJHL1mnuHG8oVN8ViVpn9usi13tMqs4JWmYU1mqT4Dp4j7qzjKWA63h7hBYzoX74ULEmSJzIdeee5dOanjV0iY7+dKc+++pg890Y9WTxjvbzd5juZPXGFBAe5rOPkOchfPLs0e76WrJizWVbM22rOteEX+W2ubXsoOLHvBZyGAXM89+zepgQelDEGgmLFirm3KL7Aoi2uQYHqbjWM13PWBpFv/hEZZMn7Nbtd251wzI+zRIp3Fxm1wLXea4xIoddFNmke2yiFZ714m0jqZC5vArvFvBQk8vV0V6gh8t5b+AH7ivcQ+WW+S0d761eXvNcyi17Ug8A/QT/Jnj27FCzoULQtihcv7vP9WL8zEOCScfToUSlSpIh7ixITEFu4fKfIn/+JDJwi8ldvkbJ5eRlc1ubvZ1pKwh6Rlx5zhSB8Zh1z7pIlqNznA0LqpToi2dNZjZ8ZcRTp85RITmvdeZwSORAvuvGAK5/A4GmuHARfthVJ6h6YIxfBR+NdSh/GHsJJWgxy5SCwoXw7W2WWI71rFIH1vs1FcmdwKSGKf2B3qu0ONokKg64Ey+ULV+7YjsEgcZKEZiYDz2STzFCwcflu2bPtsAx841c5d+aSvPbRM1K+VmEZ9eV0+bz7b7J2yQ4zbSLXKlEpr+QqmEXWWxWQvAU2162Xn+snxbfVui2OdWLfi41tLFACH8p63759xkDgWS+U6AP5bMsO8g/9YHX0B7UTSZHE1e5jUF6wReQVSzZ0qOUy/JMUzwnF17G2awpDZA3rfS15ny+zq+OpRC7IZzrx5Hv69h+R7yydbMjzIimtMgP0tPf/dIUdIu8fKy7SdODdCSXbW+VZIIurDlBm7z4pUsg9GKrFFn2oB4H/kjx5cqlevbrxGrCpWrWqz+eU8DsDwYULF+TcuXNqIIhhiCuskM8SKOVdMYovfH97ZoKzly0FwhJGxMEhUNIkc+UfWLHLtd8J+92zphkSWu9PAvc8zCp8Iheea7EcIhWtcutkKWpMScRIjq2cMTvFsp0iOd2dfRQHO3u1jVVcrjJL4VoHchvE9NzZSvjw7GTZo/AZsqSxlI/4smf70TtePBIWYjw4deycpaC4Ovo2V4OvydEDJ6Vtt/pSoVYRmfjTPJliVaiajcvK870byUbrhf++/wQ5ftg15RXhBhgPDu45Ltft7GbWb2GUuHDusmTKntaEK5jN9zACcB/aYQx8GBAgSaF6EMQseAYWze6SHXTymb525FxXJxSvs59mWx3MErQXLqNBIkvvpWPqCa8sngc2yCSVHVEDOpddZi886vIWJOfQDXfTuvekyPzNt3NElMrtmvnAGTYCzjKjxaWJTqj91GhHDQT+zZNPPun+JpIkSRJjIIhLg+nD+PbdeeHixYtGMcyY0WrVlBgHYUHCQgTLhn0uQUMWXYwFZDteuEVk0VaRdjVFSudxn+SBU89Hdt2jb6A8IDzvJJYChwHnv+0ibk9wOXrG5XK4YqdrNGipte/7jiKZLGXwLrTM/AZnZ9rueN/RAbe+JkmaUDJkSyNL/91gpuGxiRsvnuQvnsPMZHD+zKU7zr9x/aZcC74u2fNmlA69GsqbX7UxoQpfvfk/WTprk6kjNZuUlYxZLc3UwkypmDmNnDh8Vras3itBl4Otn74lV61r5C6QWYpXyBsyg4Kz8+/tnp3b7EUJPJgWigEBXDGddUKJfnj8LMSx1yrqMgAw2kyme+T9jiO35f3TD4uUtzqm3nAWo3lt9dWNWhxlhrxHxvPIj521ys8qt5W7XbNMLLH2/dRZJJuXycHuKDMWLbNoBwOBzmLgvxBiULFiRSPHMBA8/LDVSPo4fmUgQAnEQJA+fXrzkBXfgCz3SI19J13Cg5nQcqZ3eQ7gpl7TEkzlHhI5e8kcfhfMjmBPm4uiYXsiKFELHf/DZ8RMXYhRp0gOV4xiiVyuMmPJn+XOEAMbygwXRcDAoGXmu4TVgaYdvXj+siyctk4O7TluwgXIOWBDhz1vkWzGOLB55R7XC27BeUx5mChpIjl+8IwkSBhfKj5aRHp91UZqP1lBVi/YIuWqF5aGz1Y2+0x7bS2FSueUdFbF++S1UTLqq3/k5NFzkrtQFun+2bOSr3h218VDgWvwd/Bprufe5lxXAosrV65I/PjxJWVKh5uZEuPg9XfU6mAiGwhRy5xaJIWlByDvWfA+C1Peu9sR5uz3dGlXogCreXSW2RXrmRfIasn7pC4vA7vcCB2wBwycOOU9eYl0+sPoR3MQ+Dd4C7zyyitGh3n88cclc+bM7j2+S7x+Fu7vfgEJizZu3ChNmjRRpTCKuGlJgr+mTJGHM62X9A53QLyCGTUgDhHXwLxW/U5ldShxKcSDAMGSI53I/pMiLaqITFkpkjWNay5l8hUUz+nKmM/0SOQdoCOK6yIubzuPus49dNp1HsIsv3V9LN82Ww7FkS3nCsgzLVpaa1r2Tmh0Fi9eJHFOzJWK+elEuXdYWH07mbPRlSiSXAE8ezwIcBOdvkaksKUgEEbAemarvJg3Obml9J26KLJ0m0hBS2lYb507abkrRCGTpQwSlmDKLL3IYavMJq9wTYtErKKzzI6fI5lhPOnR612fd6eKbZAH4L+ZG2XEp3/LnIkrpeTD+aXNG/Uka870JiGhTSKrQMk1sHPTQSlVpYAkoydgQfu7Yfkus52ZCjAEJLcaAzwBytYoJBUeKSqprQbEbqf5JFyhfM3CJhZvwbQ1smjaekmcJIFkyZVekiVPHGqb7tzueYxtNFACD8IL5s2bJy1atNAyjiJ4f+bMmSOZry+2Ooh3yg46+cgO2n9kB+09soOpc2esc3UyyTVQu4QrUXEWS35gbF6125IVlrzHXZ0kd9nTWvI+t2vwgFh2khDnymjJHavDOsmSHaksHYJrOWXHAevcuTvSSYeOXVR2eGH9+rWyd91fUr/0zTu0IUI8522y9u9zhQtaTWtImVFGGP1PWmWGceAhS8di2kN0OMoR749Clj7Atj+WunQ2QhOw57CNcAR0BXQ0xADX4to2pLD5eV4c6fRyN0me3KE8Kg8M72i2bNk0QXsMgjxas2aN/Pfff7J06VJZvXp1hJYjR47I/PnzpWbNmnLw4EGvx4S2rFu3zjrngAQHBxuDeXQYi+JYwsFty/V9uNWZM2eaZeDAgaowRBG4MnV84Xl5o/ho0zm0Ia/Y3uMo6K51PAcYOQAsyvtPWMLCPZrAjGgIHAQGfY1UljBCoCD091rHcS4KBJZpEhaR9BDlAMMDVm5iG1EY3H0Rw/jlcWTCvgYyfuIUa03L3glGnYGfDpA4m/rIa/XISO/eYUGMKO6E9jaML5QHL/4Rq3NP2aEgsJ1tGHGMp7e1UJa0EDuPuAwNaS2ZzygDBoJ9VjlSzih9lBnlSH3hWsC1NlqKZf1PEsjR01fuSNCiRB+eTbzdbl6xCr7H099Yn0HyyvtPSf4SOSQFFcONfdxN62Vc8u8G+ebdcdKoTVVp8UptiW+9qCQtnDJ6kfz0yRTp+0MHKVO1YIhhwf5N+xqsO9vrq0HXZPeWQzJx5AJZOW+zFCn3kLR69XFzD/HoDLgPtc/zPB9C+7uUwGHDhg1G1v/yyy/aSYwikB3vvPOOlAwaKE3K3Sk7MO4TemZvY8AALzPePLZjDECWY1w+Z3VMMSgQdpjSakZIhoeBANnOMUVzuGS8rUfY8v7YOZcXG7LDTqDHq03W/T5T88ui5VtUdnhhzOifZd6oTvJN+2t3aEOUCfIYKCfkOsYAvtO5J8TALjNw5hzAwINs33XUpb+ls84tmMXaYf3AnmO35T0GBjwRGBBwiAwzwFOjX1xZufGgZM7MiUpkgKx79913pXLlytKgQQP3ViW64PlPmzZVPvn4Q0kfZ5sUyXTe6pvwRkUMrsP76dKRI6av0CYeOhNPVh/NJgVLVJfPPv9CMmTI4N4bNfidgeDHH380cYnMH6kKYdSAgaBTx+ela9HRUiibe6MPMH5ZHJl4oKH8OWGytaZl74Tp6D4d+KnVI39XunoYCGIKGhbyUjT8NKEcOXVZlbwYgnbTbis9m/tJPy+UySPnyfs/dZIc+TKZ45zH21y1NPiJP82X8cPnyONPV5Km7apLusyp5PjhMzLgtdFy4/p16fJBc8ltaZOEHtz+PVcHhHU7v4AN+64FX5MF09bJhB/nyunj56Vh6ypSu1l5yZA1tUlY6O1ebOx99t8U2nGK/7Jo0SL5448/ZNCgQWogiCLCMhDEFLzSGAj6Ti0gC5dvVtnhhTGjf5G5ozrKtx4Ggpjk4GmRmsZAcMgvXKj9BWRc79695dFHH5U6deq4tyrRAc8e79yXn3tcPmsVJNULoXe4d0YzaDqWqiXvj48ra84/LJP++sfMkBBV+J3E3bt3r5lTUpXBqANFDPcwwgZ8idOX4krGTG5ztnIn1vuQMkVy2XvC6jC5N8U41o3gdZBBE4rGOAg5uyPtpNIjRSRF6mQywer8k3AQvLWtCRPGlwbPVpanOj0iC6evlVULt5rrpc+cWl7u38z6LjKw2xj5e/Qi2b/zmJw9ecF0+PduPSz/jP1P1i7ZLsFXrt5xD/xMwsQJpGaj0vLOkHZSv1VlmTl+uXzY5WeZ99cauczwpRfsa9j3yafKg8CDct61a5fkyJFDyzeKSZkyhfHs8yXOXIoj6TJl07IPBXS0A6cTuNd8A6aylrjxJVWqlK4NSqShsxjEDMyk06N7d+nZIEiqxaBxAPhpvK56NblpNZD/ycSJE+7QqSIbvzMQEAOSJk0a95oSFWCtr1Gjhrz1RzLjHnjTnZwmpuD3iXOftDqpdOz0knur4km16jVl8ro0snhbHOPuH5PQZhEL+dvihPJSlx46+udj2Ep3hqxppGrdkjJ38krZtm7/HcLG/m5/Jk+VRJ7qWEve++F5KV+riLmGncSw55etJW/hbDJm8Azp8fTX0uvZIfJmy2+lu/V92IcT5YMXR8ior6bLmZMXzIil83fwOMiaO720erWOvPVNW0mXIaUM6fOnfNb9V9m+/oBcu3r9rnsB5zbndiVwIOdQ1qyOODcl0uE9rlatuvwwP61s2B/HhPfFJLi4k//mf0sSmvwDaiDwTrnyFWTPucwyYZmI27YboxDK+Pt/CeXJFh0lcWJ3rIgSaaiBIGY4f/68HDl6VMo8FLPGASckhi2X56Zs3bI5SnUfvwsxIDlhnz59pHz58u6tSlQQFBQkP/00XMb/PEDKZT8upXPdkPQpbrli0yMIcWnEJDrzCYQHkhkxirBqd1xZsDOFPN91gHTo8LzJaq3cDe/HP/9Ml0EDekvuRFukUv4bkiX1LRMzGF2g3DHwu+FAPJm7Ka483OB16ftefzOtixIzUC9Qsp1Nva10s+3Q3pPyduuhptPf+b1mEsd6yc9ZGvqmVXskX9FskjlHunAp6eQ02LnxoOzYeEBOHj0rTGuYMWsayZono2xds1dmTVghqdIkkybta0il2sVMckL7vpz3c/HcZVk4fb1M+22JXL4YJI80KSePNitn3Ufau+7D/pvCc3+Kf4Eh6aWXXpKmTZtKvXr1tIyjEKY2HTfudxk++D0pmnavlH/ohmRMdcskEY4ox8+74tSZxSgikKz4/JU4snZvHJm3JZHUe/Zt6d69h9XZjKDiEEug7Vu5YoW83+cNSXt1uVQpeEOypb0liaNRPaL1JafB1iPxZM7GOJK3wnPywccDJV06L3MlKvcNZd2lSxdp3bq1X0yPF0gcP35cypcrK9O7HZSHHM6w5PP48z9XUvZ8mV25WRiYo6/DFOJ04sOSWORsGTXfle+rwyN3Jvu8F+jZH463TizYUz786JMoG4DzOwMBSTpGjhwphQoVcm9VogqeNx4bQ4cOlelTp8i+/Qcl+GrE57O7evWauVaiRBF4AyySJEokOXJklcZNn5LXX39dUqTQrLjh4eKFCzJ6zBj54/ffZPuOHXLxotUSRZArl6+YOXeJA48ICeLHl0wZ08sjjz4mPXq+Kbly5XLvUWIK3j27Iw7O73DT0swnjpwvk0cukH7Dn5eDu0/IH9/Plt2bD0rZ6oXltY+elgzZUoecF1pHLax9JDrcseGAfP/BJNm79ZDUaFxOWrz8qGTMltZ4IXjCtc6cOC/jh8+TKb8slGIV8kr3z1uakAZ7v+ffpAQWdFoxDrz11ltGKdYyjnrOnDkjP/30k0ycME5279ojl4O8h/mExXVLS2ZKtsSW/I5INGDCBAkkS+YMUq9+I+nWvYdkypTJvUcJC7Kajx8/3uQk2LRxo5w9f8G9J5xYTWhQcJDEixdfEuC/HAHwNk2fNrVUqVpd3ujWTYoXL6HvaRSAnHv55Zelbdu2UqlSJfdWJToIzUAAzORVra/I5DdFyuc1r5KMnCsybY3IiM53JvD0Bt5ajT8VGfNaxAyqaiDwAq4e1apVk6lTp5o8BEr0QBV5kGry999/y7Rp02TIkG8t4RHxiozAUaETMe6/zKyO2ZmzJlPukCFDpHTp0u7tEcMuLy23mOde9YAyOnXsnLz3wo9y6fwVuX7tuuQvnkPyFcshcyatlDQZUkr7ng2kYKlcxiuA63krV3u7t/03LYl29MApM/PB8rmbTa6CpCkSS4Nnq0i1+iXNd+c59j0HXb4q65ftlJEDp0qpyvnl+V6NJEGi+KHegxI40MmsWLGijBo1SooUcYW0KFEP75b9/kUUzmMasIGffiq//vab6UBGFLuctbzDz4OU2ZUrV4whrmfPniYJ3v0+d87TMosaKFu8qTp06GDaRCX6CMtAwIxfFd8WmdJLpOxDvAPoOiK1+ov0aCzSsIxrW2jQ0W/7rcjXHXzTQBA1V40CeEH27dtnXJV1JDl6odGnAt7vUq5cOfc8nuvv61oqdCLO/ZYZHbl+/fpJzpw5pUSJEl6PCc/C72u5+S522difqdIll+r1S5mkga9+9Iz0/vo5eebl2vLGwJZy6ug5+aDzSJkzcaUEB7k9iLzoolzLqaTaSitGgUO7jstnb4yRyb8slPotH5aPR3c2hoeveo+Vr98dJ8cPnTEu5TZ2/UmcNKGUr1lEajUpIwumrpGzpy/e8Rvgua4EBufOnTMzFqVKlSqknipRD8/aW5sengWDQIECBeTCxYsyZcoUr8fca7HffSX83G+ZcR4eorxnVapUMeXn7bjwLFpmUYvKOR+EKm9Xe0f1Z9rWZDhQObbRqcdjgMVbSVK87CNMgWNZJ8yabazHBH5jIIDdu3dLypQpJWnSe/htKD4F0910795dOnfuLDt27NCGzkehg8ZoHWX0zTffaEKcWID9LuIZ0KB1ZRn4v1ekXI2CkiBhfLOtcOnc0ndYBylTraBJMvhh55/ln9//k52bDpqZCm4gwTxAUcTQxOj/3m1H5LdvZ0q/Tj9K/ITxpM5TFYwRIlP2tNJtYEt57aPmsn/HMenX8Uf5a8xiOX3iwh3tA9dCyKbNmFKuBl0zOQns7Upgw4AA8ecYCBT/AR2tV69e0rdvX1mxYoXKex+FcsEbd/r06SasJFmyCCaNUKIVykvlnu/BuAbJ3LccFFm0VWT0ApEnK4pUyu8+wGL9PlfowdLtIj/OFpm5zmUAcHI5WGTsYpHK74psO+zK5fX5FJGi3USOn3MfFM34lYGAKQ6Z8uh+3NaUmAPr8lNPPSXPP/+8vPbaayZmTvEtED6MJHz33XdmznGN/wxcQlMykia3OmNpk5v31Yb8ALnyZ5Yu7z8lL/d7UoKuXJXv358ob7f5Tt5/aYQc3G1JRgvqj63AXLt2XdYt2SHf9Z8g77YfJhN+nCulqhaUNwa0kLxFb09bljpdcqnb4mHp/XUb8xsjBkyRb/uMM0YFchY4Obr/lCROlkhSpLw72aUqTYHJ/v37zRzPUTnPsxI1VK9eXT7//HOTWO3s2bPurYqvQFv9119/yZtvvikfffSR5vTyAxjAUVnne5BCidRIOdOLnL0kMmaRyBMVXUkKAY+APr+LlMsrUtV6zRqXE3lpmGumFifJEos8W1UkLQ7yt0RQddrVFAm+ZlZjBL8KMUBhwECg+B8YdZ577jmTZPKxxx6TtWvXmjJVYp6TJ0/Ku+++a3JFDB8+XAoWLOjeowQKTsUitPfOeYzn9yRW57xS7aLy4chO8vEvL0nluiVkw/LdZsYB2zDAwveTR87KF2/+JhtX7JaajcrIgF9flpffe0Ky5LIkqAOOxQCRM18mef3TFvL6gJZy9MBp6dNhmEz4aZ7s3X5UDu05IXMmrZLZk1ZKnacqScq0ye64NyVwOXjwoAl10vL2PzAyIufbtWtnpkxesGDBHSFESsxBLq+vvvrKLOQZ0qR3/oEtZxUfwyoSZiAgpKB+GWspLfLBnyJXrro69lsOiew+5vIQ2HFEBCfI4rms9zCU3OGJHY67XvI3Ryt+5UFw4MABYyDQl8Q/wV2URDiMKrzwwgsyY8YMVRpiEJ79smXLpH79+iZ79S+//CIlS5bU9ysAsY0C3srW3md/hgbnEh5QuGwekzDQJo4z+M76TngB4QlN2laTtt3rm4SHca11J7ayYy+JEyc0yQrfGtxGqtYtKeN+mCPvtv1B3mn7vXz99h9SpEweadimssRP4EpQ6Mm97l3xPw4dOqQDAn4M0xEj5/FI69Gjh/z8889mZgp9V2MGnvuWLVukWbNmJvSDsIKaNWt6lQmK72HLTMVHsYqG0imR83aIgHuz6einSOJKRMjyU2eXx4E3TAmbf1z5B2ISvzEQIFiOHj0q2bJlc29R/BGSTDZv3lw++eQT6d27t/Tv31+OHDmiSkM0gmEAYxsjCG+88Ya88sor8u2335qwAhVAgY39noX1vrHPud/53a4ftlGAfdQnjAJ82ueaTn/SRJIg4e1wMPtc5/VsrLOMUSFHvkzyfO9G8t6wF6Rx22pSu1kFeWdoOxPekDZDyjvO9XYdJXA4fPiwGgj8HPLYPPLIIyZ0jQ4p8oZcUvruRh88azKxY6AhC37dunXNYMBDDz2k8t6P0HfGt6A48ArgM+gaG6zFep2yp3OFGrDvzEWRLGlECmcX4zmQLoVr2X/SdQznEoLgLFpCC+xte064Pq3ub4zgNwaCS5cumUWnN/R/bPdDEuRcu3ZNmjRpIhMnTjTTWilRC/kfRowYYYw0p06dktGjR0ubNm3uiDtXAh+nYuj87k0JCbVjf/OWbFt/QFYv3i5rFm2zlu2y2vrcvHKvBBuJeRv7Gp6fXNN5Xb7HTxBPCpfJJU++UENavFJbytUoJMlSJnYf4f0aSmDBgMCxY8fUQBAglClTRiZPnmxCRp5++mkTyqa5iKIe3qMJEyYYef/ff/+FGGkSJkzoPkLxF5BztsxTYh46+ZNXijxeUmT+ZpGNB1zb82UWaV1dZOJykQXWdlTrAa1EVuwUGfefa6EUcQ748m+RVbtFhsyw+rg0h9aOpyu7rjdllcjFKy7jw7BZRt2KduJYlc4vtCviER9//HFZvHixpE6d2r1V8XcYdZw5c6bxJChatKiZ7SBv3ryaQT8S4RVnyjCmmvz000/l6tWr8vHHH5v5dBE4KnQCG88m3lnettJhH2Pvs7d7g2kLl87aKAPfGG0MS3GcgXLWZbgUngMv9nlCHmla1r0jdEK7B0+c9xTW/Sn+z8WLF6VevXry9ddfS+nSpd1bFX8HeY8cIjle+vTp5a233pLChQub8EMl8rhw4YIJJ0Dek7sL/Qr9WRN8+yfIO3J4devWTdvDaAbvm/Llysr0bgfloYzujRaoK0Zj4R9LFUEbsVUSuzPv3BZyvIXZ5l63mkRjRLCPveM4a+FaZp/7GGDbh+OttYI95cOPPomyAT6/MRBs3bpVWrRoYYSLjnYGFlRBXkK8CMaOHWsaQPIU5MmTR8v6AeC5BgUFybhx4+T333834R0kjcLlU6cKjV14a+bvt4PNpc6duiC7thx2rXiBnAMkH0yXKWqmqOPvUQNB4IL3ALlR/v33X0mXLp17qxIokPNm2rRpxu09V65c8uqrr0rx4sVV3j8AtIl4ZDJtISEEeGi0bt3avEdMPantpf9C2eLpSS6PUqVKubcq0UFoBoKYBAPBB+PjSJwoNhD4TWvMiAIWZ23kAg/KlPj3l156ybjDMcrw6KOPmuRGZNjX0IOIgVshChjTGFWpUsVkKkawYCho2LChGgcUA0qH5xIeaIJTp08hZasVlLLVC0kZ69NeWGchiaHTOBCR64f3OCVwIZwQL7JUqaLGwKTELGnSpJFWrVrJpEmTJHfu3NKoUSMzkw6GITq5SvhBX2Jmgvnz50udOnXknXfeMc+WWYlatmxp3iHVm/0fylnLMfohHAfPG5NvwL3NFzh/JY6lyycL8SqICvzGQIDCgIFACWzSpk1rkufRuSVG/sknn5S3335btm3bph2He8Dz2bhxo7z33nsmUzGzRJAMcu7cuZqtOBZDvaDs7fJ3fnou9/OOOc+3cX4Hz/2eOH83rOPA/ntsWL+f+1Z8E8oSeU8n8l51QfFvkiVLZjq0yChGuclPQIz8ypUr9Z2+BzyfPXv2yIABA4yehDfG66+/bsJwkf/67gQWlLeWafSTIkUKqf1YbfllXhwzdaEvwCwJczYlkDp1Hkdhcm+NfPzKgyBDhgzuNSWQwV0Gd8MPPvjAuMuxXqFCBenYsaPJbM0IgyoPLngOhBEQb8hoQdWqVeX06dPy559/yjfffGNGFPAYUMESu6Ge2O+M89P+Ds7v3rjXfm9E5JzQjvW8R291Wet3YKEGgtgDZUzeoV69epmQEjwKSGJMp3f79u0mZ879tD2BCM+B0AGmAGX2obJly8r69etN4mESEJLwWT0GAhM8CJToh/7Ht98OkfWXK0vnH+PJrmOuGQqCrroSCEZosc4hGeH9nItxgpkQ/l4l8uy3SeX1dwZJeatfFJXvut/kIBgzZozs27fPjCZr4xf72LFjh8lRgBsdhiI6vigRxKfGtrhFXlmMJCgGJHhkxAB3XJIQNWjQwMz0oe+IYnOvJp66Yh/ji/WGe9P6HHugvOfMmWPae5IUxrb2PbZD+TMQQPnPnj1bEiVKZGQ9Mp9prmOjvCdsEGMJBpSFCxfK5cuXzfMgkWfBggW1fQxwqAPPPPOM9OnTxwyeKdEPuQh++3WMLFo4T66d3ysJ5aLEi2BTdPXaDVm3/YSUKxLBKcUt9Sz4Rhy5niCjZM5RVJo92Uxq134sypO5+4WBgFv8/PPPTZw6iTq0MYydUA8YTVi1apXJgrx3716T1ZUER7Fl1gOsyCgIZCXGQEASIp5BlixZdOYHxSu8N7SZ3pp6e/u92lT7XPu48JxzP3he1/N3baLq95WYh7LFAwqvKBRiLefYC4ZwElQThrB06VLp1KmT+R5b8ujwLiDnkfcLFiyQxo0bS8+ePUNmetJ3I3ZAPcBA0LdvXylWrJh7qxIT0CZhsLN1k4hAbjBmo2DK1/sxdHJO/Pjxo202Er8xENAo1q1b1ySv00YxdkN9oKOMNwGJ9/AuKFeunMnOz9R9gZbYikSNK1asMIaBtWvXGtdbvAUYPcCDgvdB3wklNCLSxFOPOD489Sm048J7vjfudW5U/KbiW1CWhEcx68oLL7yg5RrLoT6wkJeA2XiQgUyJjFdBpUqVAi70lISD/K14Bi5btsy8B+g2JHLMmjWreR/0nYhdUP+bN28u/fr1UwOBH0P4L7Px/fPPP37hCeUXBgI6gy+++KKxHtMR1MZRscGjANcfkhwxtQ9ZkGlIqS8ktfS0tGH5O3HihFEq7scKZysrYNfDiNZH5zW8NRLso84fOHBAvv32W2NtxHumffv2xjCAUQClQVHCg13XgLrKuv3p3ObkXnXavoYnoW0PjYgerwQ+1AlGiR9++GHTKVIUG2Y0InnxokWLTMw9XoTMzIO8Z1pk2hJne4IcPXr0qGTOnPmufeGBushi8yDXCO1c9tn3yd+EEYTkjXQknnjiCcmYMaPmEYrlUEdI4ImBAOOY4p+ogSAKoPHElbp3794m/kYbSsUbuP4wyj569GijOOCGR9KeMmXKGBd86s3mzZuNQoHiSZgCMY1h1SdeD65L/B8ur8wSgCDn5aajTmPNUqBAARMrea9rYaCgw89MA99//71JKmjvIzEXv4G3ADG4R44cMdMUoiSQpDG63IqUwIK6Rb10NvXOdft7WHXXE+e5Tjy329cN7fqhXccb9rHgvD6E53zFP6BMO3fuLM8++6xUr17dvVVR7gRZSrjhqFGjZNOmTZIrVy4j25H3fEdGHzx40OTlQW9E5ubPn/+ebQXyntkBkMW49yOH+S1mWCLen2sVKlQoXJ12dNdZs2YZ13BmZ6CTxznU8StXrhi9Ao8Ijtm9e7eULl3ahBHgMaAhg4oN9YWBL0JN1EDgv6iBIAqgcWbals8++yxcDbwSu0Eo40mwbt06GTZsmBH0uCMyyrBmzRozEg+4apH9t1SpUqHWKQwNzM+MEGeEgsYZF3/AFRCDAUK+ZMmSZrohMjCHBiMfTEPEFI6c27VrVzOl486dO42SM3XqVDNygFGjdu3akiNHDs3krShKrAKVhHncaSsxjCpKWFBf8AokV8GPP/4oy5cvN6EHGJmY4QevOzwP8uXLJ0OGDDFhqqHBdRilJXyRwQN0BEbwkcEXLlww0y2jT+TMmVM+/vhjKVGiRKjyGYM/ugMDFnQM0GH/97//uZKd/fabybPBuYTOYtjAqBEbky4r94Y6/tRTT8n777+vBgI/Rg0EUQCNO408nTkaUUUJD1RtjAUIdMIPcEukM05HnX0IZ+Y4/fLLL41CmjhxYveZLiMDHXYEPJ4I9evXN8eCrRDYrw5hDkzHyMg/RiyOTZgwodkHjEgw0kEyQY6hPgOzDTASgbGA0BlGF8ihgCcChKZ4KIqiBCq0q3h42R0wRQkP1BsWZrvC4M4MCMh7PAAAeYpcxpOAxMbJkyc324HziPlHRuMpwCg+n5zjlMMch24wb948M+qPVyu6gzNpIgNaGCvYN2PGDCP/AUMDgxEYIfhkGseaNWuacEE1CihhQb1TA4H/owaCKAArMFbfCRMmmFhsRYkotqEAwWx30G1SpkxpDFCM5pMECLD0M3NG06ZNwzWNENfHRZA6SkJNOvtA3cWz4LvvvjPJBp2vG7/Lduo2ORFUSVAUJbZDG1mjRg0zGkzolqJEFOoQXoTUH0b+ndAhJ3SFRJh4FQAdfowDTB2Im/+9ZDHyHsMDSZKR9a+99po5h8GCoUOHyuDBg433oRNCBNEx0CnQMzRkUAkv1Gc1EPg//mYg8IseCQ09o6r2yKqiRBQ6+LyU3mAEf/z48ca1n5hDMgeTJAsLf3jnGOZlR9lgKpq3337bhDIwikD84wcffGBGDTxtcRcvXjRxhowsqHFAURTF1fmibXR6dClKREBmL1myRC5fvuzechti/xnZx7WfUAJCBLt06WLi/suWLRsuWcwxhCDgPUAuIXQLPBcIX+zevftdxgHAs4D7wXNQjQPK/RAeXVRRIgu/6JUcOnTIuHCpwqDcL3TOUQRIVoiA9lyw6CPgSYzFyALGAjr8ng2yfZ0NGzbc1eEH8gYwCvHyyy8bpYOQAlwZqbueigfno6goiqIoLvC0Yq5nnalFeRCQ03Tivcl7FoxQbdq0MaP95cuXDzXfBQNUDBp4k/fMlMRAAkYBcgpNmTLF5BHyJu+BsARv11GUe6H1Rolu/CLEADcuErrg9q0jrcr9QDVnYXQqNNi/a9cu4wJEgixnXKENxxDbiNsiroLeLLocM3DgQPnwww9NskEnxCMyisD5fCcJIUqGWoYVRYnt0HaSEJaM7yRztfO+KEpEQdbfS95jJKhcubLp3JNzwBuEJuKNgHeAN/2T3yAZ8nPPPWc8CpywD1nP7xB+wGCBPaOSotyLTz75RH744QdTj8idlSpVKpNHg5BYPFe0Hvk+tDMMOhJehM5PmAE6P20JIc+TJk1yH+l7+I0HgWZ3VR4EGlLqDyNToS24+9PoElbwoKNXzOHNqIN9XXvB6EDjwIwIxEeSe0AbeUVRFBeHDx9Wj0HlgbmXvGf5448/jJcBHa/7hd+pVauWSYJM6IBT3hMWi7xndiPkPZ6KKu+V8IKny4EDB8zCwBJ5L/bv32/yVyn+A20AU67SlyXEyS5TX8+p5zcGAjpSihLV4K2CIA9LiGMRDAvOZeYDplkMawRDURRFuRMMBAwIaJy2EpUgx8k9xExCYQ0+3UveA3mECGlQlMiEnFaexisMp56eqYpvQ24Two+d0OaQGNWX8YsQA+LCcQMjpltRogqSFWLpJ0Gh/TLzeuzYsUPOnDkTsk7+AayAxCzahgQa8fz584cotcx1jPJBzKEquoENdYIs2BiDGEkKS9mMCYjpJvkms2ycPXvWzKzhB81+uOH9wnUXI3KRIkWMB5C/jD7TrhC3TIZqYpdjO7xDJHXFLZswLV97l5TAgdmMihUrJs2bNzeftiwnF9HRo0fNd2Dkb9u2bSaJoX0M7yrtDF4CQH0dMmSIrFy5UuusEmnQHrZr105Gjx7t3iJSuHBhkxQzZ86c7i2Kr3Pp0iWTq8SZc4y8JwsXLvTp5Pt+YSBgyiOSvmFNU5SogpkG8B5gKhnb9YfXg6kLMRLY68QQEUvEMbbCQMjAE088YeLDgE7Zr7/+KgsWLFADQYCDEGeqSuoI8dOMftr1IqagnhLzSgwj025h0KLOcq9+0ORHGJRyFt4/RgSZQx9jDeUQ02URGpQDxkaM38QuM+VpbO9cUD87d+5sEsT26NHDZ8tO8X9oH5H3L7zwgjHu23WNHEMkF7ah83/u3DkTimAfg+xnekPbqEeOAWKMaf9V3iuRBTLi559/lk6dOhmDFvWP3FcMPmnb6F98+umn0qdPH6OHUXbk2fnss898Wub7vIEAhaF48eLy9ddfGyVcUaIKFAaUABIUojB4g9cFrwAUgtCSFAKxYlgLSbSlCkNgw/RVGDEXL15srMIknSHWNKZAAE2dOlV69eplEhsxbzJtKEYsYhexWAeScoGMwEKPgQ83X7wl+CTZaL9+/YxXkC/+vbQl3Gv5CuUlQfwEMnz4cGnZsmWsVvwoSwytLG3bto3Vz0KJWqhr5AqqVq2aabdDq2ubN2+WpUuXhpqkEDAg/PTTTyaZYWw38imRCzKCKTnRKcmbgXGgcePG7r2Kv8C05yVLljT9DDwcf/vtNyPnfBmfb8lQ/HigoWWYVZTIgtFHOlK4FIZFeJRWFAZNSBS7SJQ6qXExHTBggOmkxwR0OjFKdejQwXwnXOall16S6tWrm7AZQmEQThgJAmUhoShJgHC9ZHpSRp579uwpf//9tzRq1MgkA/Jl4lj/xU2bWHr37h0SyhRboc4SnkV5KkpUU7FiRZP0LSzCI8MJ29I8WUpUgEccspt6SD/osccec+9R/AkGHatWrWrKEb0Fz0Ffxy8MBLjW4LarKFENnSksfdS5+wUlFxdFOmVqIIg9pMqTXnLVKSK/jBll4sqpB9EJv8cIFnN7Y+jq37+/8YiJbR4sGAz4+5m6DK8CXNYx2PksVhNRoFkZOX39gtSrV890kGMrdLTI1q2dLSWqQTbjpUJoGCFY9wvtLgmJK1WqpPJeiXTIc/H888+butW6dWvTuVT8DzyLOnbsaL7jAeIPMs7nQwx27txpksPg5kUiKkWJSlBOcecioQjzFXuDEAMMV7zkngoBrxNZuH/88Ufjah5aqIISOJgQg5o1ZMelg1KweVnZPmGNXN97XqZNnRam62pkQ5JNFAiMU3379o31RlXeRTw6iO3HnQ9vAl9S4Lk/3EcrVKwgpbvXlouHz8mW0f9J927d5KOPPgpJgBabwKBDuA5eMMwEoyhRCW03Xkd4EoQ2exEDBhheSRbnLXwA4yOxxCSScyYuVvwbQlAwHC1fvtwYkY4dOxYjHl500C5Ysp1cBA0aNJCHrHbRV2oYOgYdXRJ2ouvgnUj9j4l3AHnKgvcm/cU1a9bI8eMn5OTJE6YsfQHqD7nJ0EVIMhkTz4l+dObMmc3vV6lSxYSd0q55uxefNhBwa1hmiSXdtGmTxnIrUQ51jlhghD3JixiNjAgYGDifkcC3335b4xFjAU4DQaEW5eXKqYuyaeRiKV+kjJlnmymwooMtW7aYxHzNmjUznSxVVF1KHsmByL/ga4mdaGtsA0GZno9JolRJZe+/m+TMioMy9rexxlAZ28qQDPLkGlq1atUDzU2vKOGBdxBjFN5WeA9GtM4R/orxkcEE5L7Ke/+G+kB+KdrlUaNGy4Kl/8mtOHElQ9bskjZjJkmaLIXx+Ip2rPs6c+qkpEiVWuL7iuHY6jleunhezpw4JscPH5L41nOpXrmStGndWkqVKiVJkyZ1Hxj18B5iyEPfmj5zlpy7eFkyZs0mqdNnlFRp0uIu5D4yZkEfOXvqhKS17itG7skqs+Cgy3L25Ak5dvigXL1yWUoVKyLt27WTCuXL35Vg2+cNBFhuSbY1f/58NRAo0QJTwTFrBtY+koaFd8o0Xv7ff//dvGSDBw/WactiCZ4GAhrY8/tPyZZflkqn9h1NduvoUBxJiolXC4qqv0zzF9UgQ3guhHzguu9LCjz35mkguHnjpmz7fYXI4SDjgVKmTJlYZSTAyEXyVz61s6VEB4wS43FFklkGBcLrqcr7O336dONBgMeghsH6P7TH5IK5eEOkasNmkrtAYUmbKYskUnkaJsFBV+TUsaOyd9sWWfTXn5IiYTz5bOBAM+1wVMsvpiQl19KGbTuk4uONpVDpspI+c1ZJmjyF+wjFG9evX5Mzx4/J4X17ZOHUiXLu4D7p37+f1KlTJ6TMfF4CY83ThEVKdMIowogRI4wFFHcgMsGH5aKEooBr7Pfff2/cmz788EM1DsRmrLY1Zc50ku2RQjL0++/kl19+MUaEqIQ6yOhrihQpNEbRAYIO+YGxz6fzELiJGy+u5Hq0sJwPvihvvfVWrEtaSGctderUscooosQseAmSWJYM4xhXcSW/Vw4iwrnQDZgthfACTaLt3yCfmZP+mVatJVe5qtL9q2Hy8GP1JWvuhySxVT9oj3QJfUmcJKlks55V5Tr1zbPLXKysPPNsKxOeEVW6j9F59u+X5s+0kGNBN6TnNyOkTvNnJVf+QpIsRUqv96nL7SVBgoSSMVsOKflwNXnlgy+kQceu8mr3niaUBY8MiNePeaB8GCx6hw4d8hrvrShRAfUMbxWyxZ4+fVpGjRpl8gqwjQ4YI1s0TigR5MiYM2eO8XAhPuz99983cyQrvg/hIHv27DEjyydPnrzvBeMQrm0X5IqkL+aeK9v6P2mGFHLp6HlZMnOh1KpZ08R9RWUbtmzZMqPkEN6ibeVtUPgZHWTe4cgw3PHuMzMCbYK3+hCRhfZj3LhxkrVKXomf2OU6miBZIkmeNbWsnv6fXAu+alzuY0t57tq1y+TQIJeG1mElukCm22FZGHR5L9mGvEfu884zSIARljZ25syZUrZsWWMc8NVpVJXwQblOnjJFurzWVdr17i9VHm9oylzLNOLwzOJaz65QybKSPltOea9nN8mdK5cULOg9v8eDsHr1amnRoqVUavy0PPnCK8bLQ8ss4vDMWLLkzC2FylaQQQM+lutBV6RcuXK+H2JALDj5Bz755BN1OVSiFDr8WM7wAmDkDkVg0aJFxjg1d+5cE2vICJed1APPArwNcImlU/bPP/9I6dKlzewFjFqSZIyFuWu14fItUAqIOWXEyCoc99b7hytkKpdbCjxVVuLEvX2960HXZPXg2VK6QHGZPXt2lLn+01YOHTrUGKi+/vprrW8OSFY0cOBAM4/0g+aD4DnTOWD+4stXLltbIqHuxIsjFXvXMyEGIVhS+cD8bbLv383y84iR0qpVq1hRpv/++6+MHDnStLVah5WoBHmPrGe5cOGCLF26VBYsWGBmI9i9e7eRDXgdYSRAjjNYQPtNbpCnn37a1FWmoEPeM6UxxzBVssp7/wJdr07d+vLiR19J5hy53FvDB/IA9/pblj4Rx9IJ48WLb3IEXLfqVAKrLkQV6C/Xrga7vt+46fJy8MH+0Z5tW2TsZ/1k/Lg/zABJZBEcHCytW7eR3JVqSY2GTd1bw0dMlZmTa1Y/gz5EPKut8DWCLL3m/edbym+/jPB9AwEZqBnp6969uza6SqRijwhgicRTBaWAUT1ctDECkEX7oYceMrNokISIesjxttsvrrDZs2c3xzKKjCcBIw+MgpHHAGNDmjRpTIK0YsWKGRdGsr2qoSvmwe2tXPlysuPYHslS4SH31gfAaqtS5EgnKXPd7Wp6Zudx2fa/5dKu5XPyxRdfREn4CW2lGgi8E9kGAkKJXuvaVTJVyC1JMjz4zDrxEsaXTGVz3WFYgmuXr5p8BGmuJpUJEyaYNiTQy5WZXzDAfPvtt1qHlUiFd5c2AHm/du1aI+9Zp1NPm4ysR+YzVzmfyO+9e/cawwDGBOQ9hgDCCTAcIO/Jbo/M5xim6MSYgEcBsdckauMzNs5G4i+gB7z8yityOVEqaf7SaxHSzS6ePyf//DHGeBtkyZFbkqVMJdetOkMH6+DuHfJUp1ejpA2jI7tx5X+SkFBCq/e2csFskyuhWn28rH1Lt+Sd++O7QZLZ6ncPHPhppD0Pwnt+mfCXvNx/YISSNl6+eEGmjx1lDANZc+WR5FaZ4aUXHHxF9m3fJk9bdSCq5Q6GncHvdJeGrdpLoVJl3Vt9B8ps0T9/yaqp433fQPDxxx+b6RjU5VB5EKhLGAQQCEyB8ueff5qs5vv37zejAIwI4spLUjAafAQF9S2idY7fcf4W3i9Mi/j3338bxQSPAzwSmEYRRQTlwf4tJfowBoJy5eTA9RNS7LnKkTEQHDpWfdg3e4scW7Db5LZ45plnIr28qXNqIPBOZBsIMFp3ff11KdqhsqTOF7UzVNwIvi4rv5wppQsWNx5Ngd5W/O9//zNt5gcffKB1WHkgbBmMIWDixIkmlIfkl3Tg8fojhJDpDTEQRIa85xNjAZ5izIxAyBfeBIQeMrMM+gUeCPwWixLzbNy4USpXrSbfTJkt6TIxwh2+8r9584b8NKC/pMucRZq2e1HiUm+shTow88//ycYV/8kbAwZFyaj+icOH5LMeL8vb3/wkqdKmk307tsm3fXvKp2Mm+uSI9OG9u+Wdds1l7coVxsD2oO06Hj/ZcuSQrp98LSUrV3NvvTeUzU8D+kmaDBnliQ6dQ95Bts+e+IesWTxfenw+JIrlzi1ZtWCuVV5vSs8vhkqRshXc232Lq8HB8maLRr6dpJCCYyQ2Ml1TlNgBdQehjUcAlv7PP//cuOmiGDDtGUoBnYZt27aZudLfffddefjhh433AEL9fhVxzuFcrsG1MDi8+eabxnWReHfiGxmdwAKKUQJDAbN0MPsB07TgOsW9sygBglUnctQsJMkLZZC33n5bNmzY4N6hKGETL1F8yd+stKxav9p40RHiFMgg75lXW1EiCvKekX3CAjGStm3b1shYMpyT7Jpph+kQsjDwxJSwJCKOLHmPsb9w4cLSpUsXM3MK3oYYJjBET5061YQlIO/JhULoLF6LvM+2cUGJftDLileoLOkyZbHWwl/+2zesk12bN0q9Z55zdTTddYf6UKZaLcmRN59ZB1ufu6OM7W3usr+9//b2kHrh3mevp0iTRhq27iBJ3J6Ip44fldTprDbzPupvdJApRy7j4cA78aDw96Ov37TKKn+J0u6t4eGW7Ny0QbatWy31WrjLzI0ps6o1JWe+Au4tLkw5uBcbs+5RZvb+kH3Wwu/Z+yg31uGC1T7haWIMOT5aXoB3SrUGTX1/FgPcuaM6uZcSWPBCkj21U6dOxi23c+fORhCjFJBMjqSDffr0kUaNGpkQgeiqWyi+tWvXNoo+8Y14MBBvSwwjikSVKlWkRIkSZk5mXBuVwCFu/LiSt0EJOXn1jPEgwHClKOEhTf5MkuXhvKbNiAwly1dBmcJVW5O8KhGBeoNxnVk/CONjamK8BjDM45FCPgs8UuicE0bg7BxEJXgLVqtWTV599VXjdYS8Z4AAbwKSGhO6yP0yQIDRgr9DiV62bd8uJR4O/yi0zcQfh0r2PHklYeK7ZwxihLp8rcdMB5AwhN+/Gywzxv1mfQ6Sc6dccv/82TPy9Tvd5L2OrWT1wrkyc/xYGf5xX9m5eaNsW79G+r7wrLzWpLb8N+sfuXnrpvzw4bvSpfEjsmLeLEmUOIlUr9/E6sQllv07t8ukEd9L665vSrxoqtcRhfetSNmKsiGS6jgzh+QtUlwSJ3Xk7LkHt27ekgk/DpFsD+Uzz82TVOnSS8VHHw/pCxw7tF8m/2LJ23G/ysKpk01Yx8VzZ+Wbd7tLH6tsVi+cJ7MmjDUeCTs3rTfnzJr4u3Rr3kB6t24me7dtNYaCdzs8I28996Qc2b/PrC+f86/kKVRU4kSpy2rkULR8Jd83ENCx0ynjlLCg0WGmC+Y679q1q0kYiMcAoQNY7hG+eAigHDDHMZb+mDQ48duMODB6QY4CXBBRYlBySMbJKMgrr7xiDBjvvfeeickl074qEP5NolRJJPfjxWTPgb1mKkyXZVlRwobcBDkfLSRJ86aVHj16GDfpQAUPggcNA1ECG+QgBlaMZRgFkPfMXY9sHzNmjHHz//LLL83gADkB8BaMSXkPhC0ynSJ5DBgQGDZsmDFiDBo0yOgCeDegB2AsIBzx4MGDKh+iGJ7vlcuXJdV9TFF5cM9OSWz1S+LGjefechvKmhFzjANjBg+Uhq3ayeNPtZSm7TrJH8O+lgtnz0iK1Gnk1Q8+lwtWpzM4OEgea/aMPNK0uXzZs4vkzl9Ieg8eJhmzZZdSVapbdTeuPPnCy/L0S12lfI3bM9oc2rtbdm/ZaKapC75y2T1G7ZsQChFZ0wxfuHjRXC8ibzTPhjJLkiy5VwOhXWawftliGT3oU6nXoo1Vbs9KslSpZOzQrySJ1b680n+gXLl4XoKuXJLaTzwjNRs/KZ/3eEWuWmVYu+nT0qBVW8mcM5fkKlDIlFOLzm/I658MMskvt21YKwVLljGzLfgDqdOk9X0DAfEmFJ6iOEFJsPMJdOvWzYzMf/PNNyYD8Y8//mgs9f9n7ywApKq6OH6WBumQ7pSUBmklDAQDRREVQQwUW7C7EQvFREysD8GilBQlJCWlu7t7vvs7M28Zhtlll63Z3fPH5+y89+bFPffeE/cEwjSliLw4/0gFEwnPh4cBqwsINxgM3nzzTSldurR+4g7Zs2dPjUMmeZIJD6kT+SsXkdKX1pCPPvlYvv/hezP6GOKEDJkySrnLasqWgzvUdTotGgx5H+rLYzQ1GILh8XvKi5JnhXh+jKwk/SVpKIYBFgHI60NoH/w0pY0CMcHj9yQ3vvTSS9WzkZDD9957T+rXr6/hB+RHwNOMxQHCDo3fJw3oV2cjGxKScNQphX538tNBlvxlC+Y62TOLupSTiyBr9uy6ek2CQcC+nE75LFaqrP5d4NwicsApvyQ5JHygcIlSsmTuLB5SZk2eKE3aXnZKTgM8GFpefpU0bnOJDHr1WTnhxkekgjaOqa3iC65DKcX4gJmgYJGicsTRBY+McIBmeAqM/+l/cpFT/vHUoL0rVKspE38dJhtWr9SxmzNPPi0JyN/5Cp4rB/fvc9sBPZdQhblT/pRNa1frNffs3C6Fi5dQjxFQ3NEstSAqQ0YzEBhSF5jQieWHoXbq1EmVZlYISDoIM8W9sGTJkro6n1rBxMNKQ4UKFaR79+4yYsQINRiwssZKQ8eOHdWIQPI1KiukNUUhLYPV4HPPLym5KxeSW2/tqYmsjH6nIlIF+5RG9gLnSOm2VeXfhfN1/KfFfoMyZFnfDR7o43gHUt2CRNUozRjHWIEnfrxbt26adBDvgdQ6b/DcGAuodoRMQz4ivCEJP8CjECMCxpCpU6eqAc34RcrjshtucQrjKjkSKDUYDFbz502fIlvWrZVMWYLnsijJnCWrbFy1MvBdJFOmzNGJBbX/OtqiAOM1QC6DHz58V3MMFCpWPLoE3/49u2XZ/Ln6N7/JV6CQbN+8STatX6P7DGHg2umyG7rLRkczqhaE4vDBgzLvnylqIMDDI8c5J6sT0e4+3wltY0YeHj/QDauDV3nI5/MbZzAYNLu0o/w54mdZtWSxGnnwMlm7bIkaJ9Ys/c/tX6T9ZtOaVbJjy2b9XaQi4g0ElJeBIAYD5QPvueceTTxEIiLcCmGkr7zyilSrVi1wVtoEwsKLL76o7of9+vXTsBuSHVGTmZWHtJ68LC0hY5aMUubi6nI043E1+EQq7cj9ggcOq3JstWvXjjGBXMWKFTUhJ+fHtnEOJUNDgYBPgq8LLrhAc3GQXZxknqwGGk6iQNViUrLNefLewPc0pjktKQu8C95RZiAwAAwDJBgk1I4KBOQSIlcPnoINGjTwK1RpFMynvDvyDfyd8Eg8J/AsgP8nlru24exQt/mFWvVgypgRgT0nsWPrFilUpJgm0du1bavbE5ij3fy20x2r1qDxGfsux2u487ZuXC9Tfh8p5c+rHjji5OBF82XIeycNxHweP3ZUsudIeMndtAras3aTFlKoeAmZ8sfI0/jmru1bpUChIppToliZctEGGLBr+zbJmCmzlK1c9YxhDXgRXN3zLlk4c5pWRSDfACABYqGixd31s6lnwoG9e9RYFJ8SjSmBVGEgMA+C9AuyD2MMwDCAdwCuSljYKemGkFCgQIE0LSgEg/ck8RGxlXfccYfGYJKIiTKKhFYgUOBVwCqDIbKRLV8Oqd69qfz1zxQ1EkSSCyl9rGXLllKjRg0tDfj333/LlClTZOvWrargk3gLhd4D/RKvHeJ9SSqLGzCx5KyIFS9eXDZv3qzCPnXCKXOEkcEbsxh/cRPmfngC0X+5H3H2nEdoDb85GzfQtAhWLIrUKy3Zy+TVJKxprSKGZyBIL3O64VQwR8ycOVN5GUkFN2zYoCGDuN0z75DAkrkgPfQP3pF5llxKVGDCWNC/f3+tfoAhlWoJzMvMuWnJUJgaAN/q0fdpTSg48rsvZc2y/2TzujWyYuF8WfXfIilerryULFdBipQsI4tmz5RtGzdo1YNCRYtJOadoslKNG/rOrZtl45pVcujAAVm7fKkcP35MtmxYp/TMlj2HXNnjDlm9dLGc43irB5TNS6+7SX/Pb/8c+ZM0vaSD5C1QMHCGIRxI4niroxnK/6jvvtLykEqzRQuUNiXLV9TV/g4395QFM6bpSj90mzf9b0frp+Sc3Lk1eeH2LZtlg2t3vA7Wr1gux52Ounnd2ugxmCdfAQ1BKVulanTiyNz58mtYAkaCgwf2a5gDeQsiXa6JyKcjzhr3sblz56qCyEaogcVhpQ8w0BAUSTB43XXXKVNkVZFVBJL6oFCkFyEhJvDurK62b99evv32W63MwIovSZtwxWSfhR9ENnIUzCmZc2ZVA0+k0AnlDMMbceBUAkFAZ94l/pfEWf/8848K6ZwTbLhlvHKMxFu4AHtGKn6LALtp0yatb0+JIm+FmDGMsYuNcqPBZb/4PdfD0IDxi1wcpjT6kSFzRsnm+g7KFO2dmkG/xyg0YcIEmTNnjvYV+L3FXacf0AdYCELuu/HGG7XCEN5DGAUGDRqkRknmmvTO71FK8eSi8hEhlbQLJZuRkahwgleB8fvkA4kGb3v8ealyfl3NHXBw/35NXNio9cXqgs4K8VU97pTsOXJoXgHi5jt2u10yO7kNOhG73rnX/ZIzdx41DLD/rudeiw45AOQYuKpHL8mU2R9eAPLmLygVa5yv9+MarGxTxcCM6GeAG0PQ7NZHn5Xz6tTTtmOjGoLSLCCXFHTK/d3Pvy5UGoBuNRs2lXotWqsHCLkGrrvzPsmVJ6/KRHgEkGwydBG7c6/7pGqdBnrPYBA+gjHooX7vatgIem0kI8p11IiaUWAUxF/vd50/GKwuffjhh5qgyQTF1A/oS1bf0EkNoZdQAhL3oDCwQt6lSxfzIokjGM54Fjz11FM6gT388MOa0Cl//vzWhkGgbahPvfbYVql+0wVuJgwcSCacOH5ClvwwQ06sPSgTnXKEe31CAN3xqsENlRrgZztHInQinFNKCANtKLgu7v+lSpXSBKEo/dyb8AEUPNoVsPrfokULHc/jx4+Pns/5/fnnn6/XxgiBwItxAYNw6JwP8EBo3LixCr+UBuPc+AIF9LXXXlNviIRmyOddKVl27333SbXuF0jeCsmfcX//xl0y75O/5DIn1FDGDd6YWkF/oT94/cgDfAFFkSouxu9TPzD8YRgMDRdFQF6zZo0m4iWHUK9eveT222+XbKkk03dKgzGDIRcvNAyz97l5iWoIBQsWPK2tDacCAyR9rVDNhnJB28sCew2JDfro2B+/k91L/1WDX0IMGVzr3Xffld8mT5O7nnlVXfoNSQO8IiKudZnUiDEPVWZwX2Xl2JD6gbCAizyJBj2hEEFx7Nix0qNHD10FJzEPK6ushptiG3cgTLdr106VKWIVCc8g8REumyh9wUI4YIX4++8tm35ygpq8m6avlO1z18vjTrCrVKlS4EjKAo8UEn4BwgLCgX6Cog0wJHjeAHEty8XvOZdPhFiUW4wIMSn+3qoYYQ8k8krvOLzroCz+9h9pVLu+ul577Z9agbCI+3SoEQA5oGbNmmYcSAOAt6PAYvT3+AxzBd5E5BUgfJBwJvg9f5txIO5gfODNNXLkSF1Ao8TjNddco5WdCNXw2tsDHlnIXWdjaDUYDOkLEWl+uemmmwJ/nQRJ6IjFMoEhdQNhgRVOmNQtt9yiMXQwLRgaxoG2bduqworXAK7MRu/4gzbDO+PCCy/UtqY9cdslnptsyChd0AEhjWzQGGEIUWCfIYnh5LVDO/bLmrGLtDQnK2aRYgAj8aX3LLElTiR0BaDE0c8ABoVQYTQmkMsAoPDTV+mHMfU9BFmuy3l4lkUSktukduLocVn+61zJfiyzKlu0R1qYH3ErDwbvRJI2vFIMqRuMXWLnSSyIdxPVCOA/JBampC+LPvAn8mmQxyQt9OfkBm2GoZW8BMwLJDImNxPhh/fee6/s2LFDPTWgBW196623amgC3roGQ6pEcjPfdAknd7lJI+Kaeu/evbqqRtwqQGhFsSFrvSH1gq6GpZsVbRQQGBsCAq7GGAZgXCVKlAicbUhskPgNl2S8CsjpQOgBxgG8CHDlxkhAsrj0IKShkDZt3kwWb10utXq2cFJW4EAS4/Dug7Lgs7+keskqmmMjsWq+M7YSGmKAUIlRCeDui+EuHHDTp5/QhuPGjdO48VDEFGLggeej5jceCxgX6JPhjAR4NeAyCw8g5IhcBfFFYocYsHJ/zwP3Svmra0vB6sUDR5IYjktvmLpc1v2+WPq/+rq6xqaVmFMMRHgLELJC+0JryteiVJqbdOoFtGQVm8z7GAUAiUsx/BM2hFEAOS898JuUAKEblEfGMwMPjSuuuEI9N5lDmetx1b722mvTbfsz79AHF6/fLKXKVwzsNSQ23DQgqxYvlArFCsnnn3+e4BADjIuDh3wrdZpd6K5lc0dSYa+bsyPSQMCqEWEG1H8HuFEy2ZGEzZB6sX37drVqU8/XA5MFHiMJjU0yxA0Md4wzTzzxhArgKGXsQ0ggjGfWrFnqOp7WgXBwQ9cb5Pd5fyZbDgLf8RPy3w8z5OCynfLLz79oVu7EEs6gYUINBGTMpmwmvyVhmGegDQUJA8lDQN/B4Od5FATjTAYCgFKIV9i2bdv0fuES9vBMhMwwN1DdgGoI8UViGwh++ukn6XJDF6l4YwPJl0w5CPat3yWzB4yV3nf3ljfeeCNNzZWMRYzDn332mbYv7wbNUGrSq/KSFsC8gCcgHgTQFUBPVrqZE1J7eExqAO2OpwB5U8jn5HlkAdqfUESSwKbHceYZCAi9JKeOIelAMt0KFSroHJ8Q3kXfhf998MEHab7UaUoDmS0iDQQ8EjHTWIoAbrgIvaZApl6gTJAwDzqGrhSyYvTpp5+qq6kN+KQH7c9EDXOESXqADrj1UgGBld20TAveG++JMfMmJZuBYNM/K2XtqEXywjPPq+tnYs5nzJkJNRDwGzwISGjpVRUIBefUrl1bmT0GBBT7cCwkLgYCvFYQTlEkYkpSyGojhhSuQ46S2EIfYkJSGQgq3dggWZIUHtq5XxZ8PkWqlaiklVxwxU5LoE1RYEiwxtyEZ9OoUaOM36diML9igPaU0mDAZ5555hmV8YzfJw8YT3gQUB3EA21PKA9lo0kUmt5AH8UTC6M4C5KGpAHzO/ImXoKJlaQQ2QSeYTwi6bBq1arIzEHgCaHEVRHjSiIbYySpFwxqBFsUmGDjAPQlDpnKFGSUNyQPULIwyIQC2uBBcNddd+nf0M2QCHDNuHfdTln+01y5+YabtH51JDI26E1GbFac8CLBvT8UOXLkUOMRq/0kGUtIHyHrNmEM5D7AKBEK5vxixYrpJ54DwcJtegHtu+aPReLbfURLmaXVECy8SehbjAsMycbvUzdQBkg27BkHoCcr1tAYRRUjkNE4ecB8ztwR6qHF3EJSQ3I/hTPOphfQD5l3bEvaLTHHu9EsebbTPAi8r3yyMbmEnJIsYOIiTo04VVY0IyWDNTGR2nCBzh4pTE7p5f8jOiFNpGDlypWad4AYeNoPqzVl3cg7gPswq4RJCejFfSORZt4n4yx4NT8pwb1wDSfOHNcvVlbXrl2ruT+8tsHl9/nnn9fs8SkBnsNzQeXvxKaZ50EwcsZYqdAhEVZP3PNlzZ1NMmU/veQcmecXfjlFKhQsrfWricNNbNCHEqPMIeD5SApLSBBx4fQLwByM2zef8+bN07CvUHhzIzGuzZs3V6WeGvcIoDpHhcxLGAcwDvJJmUQSGNI/MU6gDDNPYEjg2NkaCJLEg6BLFynVvrrkKpXwHBIZs2aSbPnOCXw7CapdbJiyXLaMXy5vvfmWdOvWLdHHAQimS0rxDhKpUWITXkD7Rko4IavdbF67J0X7nw2UZv4/kpV3xAXQktj2v/76S9uuXLlymmsIj6LLL79c3bmTsh25NrwjEmnmfWKAD14sSUrQN5iD4fm40+P5xdztVYhhzkYOowoCnl8pBa9ca3LRzfMguOSSSzRhpiFpQB/DgwBvQ/L30N/OFlwLDwLkD8IMEnItQ+zAg+AUAwETFvWpiRmb/s8/sskJVAhlJ89IPpw4cVyWLl2qcdGsIrnpwn8gReGfTAsULKjJdS5v314t4Qi3KQXIhwIOzSb9OVnWrV0TEMYDJ0QA9u/fpwooj5TRtR/Zt0nOdjIGMWlpC6PJkzePxk63a9tWk56lJCMECFEkqRs1erSsXrVadu3a6fp8chHNfx/6Dq7bKIBsR44cdW3l3w9tcGXOmjVlSk7xHIyrom7st3CKJqtOKK6JJTQgHJD74pvvvnVKfSLEwrrHKlyntJS9pIZEBSXOoS2X/jhL9i3cJhOdkIYrZ1IIPtwnsQwE/JaVPgR5xok3TlkNRFlnLOOFwj2Dwe/ITYBRiXnSq3BACAHnYoxiTg8F10cxxCDAfbkOvIh5DCbFWEmIMJ3YBoJffvlFrrvuOjkWdVyiMiZcQMmQOaPUva/1acalXcu2yKKvpkqXa6+X9we+n+jl3xgDhJL87N7nb6fMrd+wQQ4qrQInJBv8N2RRAMNQ8eIlXP+h/yb+OIkveI68jleVd0ouigSKVGIlFj1b0I/JVP/H2LGy1il6e/bsSUbecSb4dJ5g3DJmmQeYD/Llzy9ZAwqgH0lHW6a+nE5uJISptZPPOnTooH8nxbwbV1BFaLTj9b+NGCHLly1P8JwWP3j8njn8sPL6PfB7ZHs94pfLvPk3pcZd9uzZpHCRIroweKXj9xipk5JmZiBIHsAzzUCQ+qAGAjdIfLhvEt/5+Vdfy459B6RMpfOk7HnVJHf+gpInX37JkDFlynDtd4wvqxMyM0UrkikLOueBfW5ydZP7pjWr5L9/Z8mB3Tvl0tYXSefO10qtWrWSpcPyHGQOJ2nXp599LktXrZGiZcpLpZrnS75C50rufAUk8ynMOGVxcP8+yZgxk2RJofrGh5zQu2fnDtm+eaP8N2embFm3RhrXqy1drr9e45s9y3VSA0UJF/4vv/5aJk/9RwoWKy6Va9WVAkWKSp4ChSRbQKGKBOzdtUuyOGGd8ZcSOOqETGi2a/tWWfrvHFm7fKmUK1FUut18k1x04YUJLnnHGCLDNvMefycECBq4cB7I55Mq19WPNhCwArxx2krZOOY/efPNN9WVM6kEHt4hsQwEHmK6Rmztdab7xve3CaUNSEwDAUC4/+qrr8ImZ4wPeDdW8wa+P1Dq9W0nWfMgnPtx9MARmTfoT6lUqKyu/CWWQZN7khSSnA/wjrWbt0qJchWlQvVakrdgIcc78qcYvz2s+SWi3JwTIXXwXdc7eGCfzkNb1q+TJXNnyc4tm6Rlk0ZyXefOmj8juaosoNT9888/8tkXX8iseQulUImSUrlmHeUd0CxrtsjhHUcOHdI5MZsqm8mPo07x3bVjm+zatlVptn7VCqleqbzcdOON0qply2Rb0MFQwoLbDz/8T0b8MVbyFDxXKtWqI+cWLyl58heQHDlzBc5MeRx0ci1jL3vOnP4dyYzjx47Jnl07Zbfj9ysWzpdV/y2Sgnlyys1db1AFnvkvsXmnGQiSB/AcMxCkPqiBwBHN9+jjj0uBclWk+aUdnbBQIaImrkgGSsy2jetl7tS/5O/fhkoHN9E89NCDyoASezLzwABZt26d9O7dW3Ye9UmbTl2kbJVqKiQk1T3TEk4cPy47tm6RpfPmyO/ffSlVypbUmsC4tCZl+6FMEFs7ZeYcad35Rqlap77kcwJDRivjdUb4HCPfu3uXrFqySP743xDJcGCPZrKNlCznrAS1aNlClu5fd4qBYPeqbbLoq2ly9WVXqPsmGfmTCswLiW0gSCtIbANBYgGakWypQcMGUufhNtEGguNHjsvib6ZJzn2ZZdiwYWp4Tgx6cj88Bu699z6R3Pml1RXXSOkKlSVnnrzWX+IAlJjtmzfJ4jkzZdzQr6XB+TXleTfeyJ+RlO2HK3jve+6RJWs2SGvH7yvVrC15CxZ0wnHKLNykJqAE7tmxXVYsXiB/fP+V5MmaUd7o31+TrCYVzRhn3Je5eNgvv0nLq7tIzYYXSMEixSJmsSuSQfvt37tH1q1YJuOH/yDbVv4n/dz83bRp00RVCM9kIOA52OgnbN53Np4jof0n+Hoegq+7evVqDbdC1mcfxmR4GQZqcrThUUkeIMLCkF+rVq2qvwsHvIxQqvFkwVsPnoJH3+LFi9VgTLhvbDIw3l2ch+7BubGFfMNjWMDE0xBvXTwJk8tA4LUn78HG39DZ+x7T+8UH3jU9BF+bcC/CIQnPpJ3wuGQhivaAZoRbeXmezkQzwHmEpWKI9tqS+xMyhDdqbN5sy5cvV5rhANCqVaszer6xWIY3J2FIt9xyi9Ivw7VdukrLzt2kR9+nlfGYcSDuYJW+aOmycnHnrtLrpbdlxIRJ8nCfPgleWYoJdEpKBF7QtJkUrHK+PNjvPTn/guZqjU6Mjp8egDdMwSJFpXGbS+Thdz6W7ceipPutPbUWe1KAwcxAa96ypazauV+e+OhrNcQhLJhxIG6IckwAA1jNhk3kvlfekYpNLpIbbu6mTIL2jUQcO3RUVvz2r1QoUVbeeuutJDUOGNIWNk1fIbuXbpUHH3ww0Yxg8A5cnJtf2FoqN2stdz37mlSv10hy5c1nvCOOYL4+t3gJaX5ZR3mg/weywCnsd/a6S4W/pABzGwJ83fr15VDW3NL3nU+kUeuLJf+5hZ1gbMaBuAAFAs+YOk1byv2vD5TcZSpL15tvluVOOUoq3oFQ3rHjlTJ2+ix59IMvpW2n66VIydJmHIgjmI9y5s4jVc6vK3c+84q0ur6H3HnPvTJu/PhkC8sghA7jLIYDcmeRG4dE2+RmouJBQvsOv58yZYp0795dr9mvXz9NDj1mzBgN62a+RsEjjwfnsqF4ksvDy8uGoQCjAQleUQL5DUl/MQYAjAEc57coqhwn/xfeY/yNRxJ5QQgl/eKLL/Q8ruNVCmJe8/IPodRiVOCantzlhRoCnsVLdIlnM8ow+8hhxLnJAZ6FUOuOHTvqfRmHQ4cOlZ49eyrNeOf4INxzs49KDC+//LLmIXr66ac16TT3A9xzw4YNqmRzLm2FMRKaff/990of2hiacZ73TBiDCPcFGBd4F4599NFHGh5FTicML4CQcsKTvbYPRzPu7dGMY8EVqaAb44iNZ/AwePBgzQNEv/f6TYYnBn4mDS5sZ0JCAlGkeEl5sP/7smbXfrVKJoWRACveg30fkR5PvCCX33RrioV+pBVkz3GO9HzseSleo55c4SYQEveEmxQSAlZ/qMJRu3V7uaXPk+q2bzh70Ocv6XyjXHX7fXKlY95ky440sAK8bNhsyXM8h1rMCxYsGDhiMMSOfRt2y7oJS+TW7j00JIUkb4kBVp6eeellefiNgdLm6uuNdyQQGCzvfelNyViwmFxz7bUqDCc2uOYdve6SK3r2lut7PxRRYYOpEbRf5zvulWZX3SAdLu8QtoxrQoGQ36dvX8lWpKT0fu51yZUnYaFwBpEm7S6Vbo88K7fd2UsVwMSW0cIB+R3lDqUMJZ2ynOSAefbZZ9V7Ma6r4ChnJING0aMsH4oXQN8i1wI5Tdq0aSMPPfSQrjjjFYByyfXJweDdh/M5TgUh9ADKUeOpzKo8BgbahHNQ+siRw6r1iBEjdAWa/VQl4rccQznluiQSJecECifljdmHNwL5TVAug8Mvr7/+evU4QBnFSME1OZd7TJs2TVe0PWWXZLq0G0YVcrUlF4JphlyI8k5OG2jXv3//eNHsjz/+0LBRaBasRPPerVu3ls6dO+sn98AAQLvQVnhn4CXggXblODTDaEJ7s8gLb/doAwhHwoBPu9PfaEsMLhhx8NbA6IP3I/fBCFG9enX9HQimGc9NH+C65EnCyIRBoEqVKoGz/QYF7kEbYZjwgJFo4sSJuijBe3CNDCUrVIp+yDOBBti+ZbMM+/QDee/pvvLtwLfk96Hfyg63b8ofI/UzqbB7x3YZ/cPX8uvXg+XDF56Qf6f97RoxuZK8xAGuDc85J6dTAp+W6XPmaW3ZxJzIDh0+LPfdf780uOQKqdvswjgLjj7fCaXZ8M8+kvee6uNo9qbSDFfJaeNGa1x+UgMX8X8m/CHjfvofDxTYGxnAqt/h5p5SsPx5MuDddxPVQs21BroJJnOh4tLhxh6SLXvcYjLpN4RBKM10nDma/e8bpdXUsaNl68b1gTMTH9z7oxefdPf+UP6bO0vH3F+jfwscjQyg3NRr2Vq6PPCEvPnWW0nmsXNWcO23edZq2bFgo7oGYjmO6/xqSMdw0+LhPYdk3ieTpOH59TUkwkvymBAwnllR6NGzp1zY6Uapcn499ciJC/zz0Gb56fOP5d0A7xjj5qFtmzbItPFjZMuGdYEzEx/E/f/h+NRvjt9//NJTMmfKn+riH0nIkiWrXNfrftl3PIPO84nJOxD6nnjySSlZs560uPyqOBsHoNnObVuUZvD7b95zNPthiOMZfpptXnd65ZHEBs8wa/JE11eGBPZEDuAdLdpfKU2u7Cz9naLnrdolBnhvXMJXbdstNz7wqJwTj8pb9O31q1fIF2++ovLt/z5+TyaP+lXHGmOOaycVBr/+gvw46H0Nnfnjx29l4q/DAkciA1FRGXTewgPkzbffUQUpqcGKLcoc9yJkjxV+KnCw2o7CFxewmos7PNciIfJtt92mipcH5AJvQyFESURp5DMm4FGE4ZCVfxThG264Qe+BYsc1CHdq3769rgajkLL6DHgWFE1WvclpAzgfrwSSwPNO9DESeWNM+Prrr9V4wW/Yj5KMYQDjAiWy2Ycxg+sPGTJEjRcklOeaKKAYN1BKUbKTC7jQYzTx2h0e6lVN4f3iIoexwv/ee+9pO3o0K1q0aOCoHx7NAPM09PJW8IF3zPv0wjhatmypNENxx/CAgg69AW1OXq1vvvlGE9/T9/g974PCTh/ifVDoMUBwP+Re6MD7YYiBZhdffLEmhfVoBg3wIqA/eMC4hDEBQwV/A7xWSCANzfFgGD9+vF4jg/cSccHKxQvlyzdf1kQrtz/5gmOO90nTiy+X5QvnqdHg+PGkYeA8KBNXmcpVpf0Nt0i7a7vK24/eJ+tXrgicESFwbUmiuXtfeUuGfP/DWZflCgXv//VXX8nGnXukUetLojvemcDvVi/5T7544yWpWON8uU1pdr80u+RyWbFovvz4iRNqjiW9kYX48V++HKTJgyLLPOAHlsWb7n9EJk+fqTFWiQUSEn406FO5tEv8ypOtWeanWYVqNeX2JwI0u7SjrPxvofzvo3eTlmauz4D/5s5WIRPmXLtpC90XSaA967dsLQcyZFUrdooj0LH3b9oja8ctlhtv6KquZ4m1AmxI2zh+9LisHDlPMvsyannRxApJgQcg8OQqUkLqNG8VL96xbsVS+bz/S1K+ao0Av79f3etJIPa/DwckmcLOvccO+16Klimnc+cl190kb/TpLavdvBhpIOzgnpfekBFj/khUxYWVoFF/jJM2na7XOTiuWL9yuXzmaFa2SlVHsxfl+rsczdpfoTzlu4FvJYuRhUTOv339qRw5lDjyT2KDMXDZ9d1k7fZdKignFvBAfKhPX7n8xvh5/rCAMvanH5w8NlBadbxabnv8eenU8y6pVq+hU9aHy+JZ/wTOTCI43rV0/lzl9ygs9ZpfGDgQOYBmZSpVkUIVq8rnAXf4pASKLgoUCjH3YlU/GJ5yTQ4AVutDn4fvrOri2k6sOImwkTPDzb8opQMGDFCPFpR/FEJ+z3dCA1AwuR8r9U899ZTMnz9flXIUclbpURopKcy1+Zu54/7779ffeV4yrGCjkHINzxjA87G6jnEBwxbgOOG2yC54PpC3h3uz4owbPco/7wMIJcBDltAIzuVZMZISwrBgwQL1lsBIkVwIphltwfuHA++ObO6FYgSDdqBiVjDNYgIKNcYS3tvLJYBxgjmFlXsUbTwAoBlhKiQ2hq/DJ0gAiJHH6w+0GWOvV69e2pb0A4wEGBXw5MB7Ay8OjBV4A6LA47XB77kHxoBwNIMOzEsezQBhLHg/YEwYN26ctgehIzwf1+IZMRSBqF8Wb4jTSKMkSu8OF8pNDzwqTdq1D+z1gxsMeuUZ6djtNilU1G+xSkxw/RHffC7lzqsu551fV3bt3C69L79QHn9vsFSuVSfsoEtJYCjBev947zu0EyQUEK9Tp07SsuvtyjTi+r6HDh6U+65qKzf0fliaXnL5Kb+jAw3u97xc3rWHxlUmFaDd7L8myqjvvpK6zVpJ22u6RBy9AJ4Wwz79UM7NcEReeumlOLsjxYZ777tPNh7yqfEhrqAM0d3tW8kN9zysKx3BoC0/eeVp6XDjrVK4RKnA3sQF9xj57Rdy6fU3uW+RR6dQ/DP+dxn+4VsyZ9bMFOtXMEXG+cLty2Xf2p1Sv1ZdjRFLaKWF+AC6WZLC8EgNSQqLX1RZ1oxZKEO+HiLXXHNNotEPQYNQnG7PvB4v3nz40EG594o20rnX/dLy8qvC8I7n3BzRTYqWKhPYm3igXeAXJEyu0aCxGph7tmksjw8YJDUaXhA4K3LA83719mvS6vzz5Pbbbksw7ZhPuvfoIbkr1JB2jl/GFaxk3X1ZS0ez++SiK68N7PWDZ/zk5aflsi7dpFiZky6wiQ3uA78fO/wHJ6vVk/ZdbwkciTxM+nWYLPt7nAz93w8JphnvTa6ZH8eMkz5vfBBnLx2we+cOeaLbtdLvm58kW45TKyxsWLVC/hj2ndx43yNJNqePGfqNtL6yc6LIPEkK18ZL5s+VNx/qJUsWLUywhxXzWExJClGqUKKINSesAWUX5ZEwA37HyjHhg/y+b9++8sILL5zyPJyDCz/hhR7d+CSvDKvFHsglQN9hFZicBDfeeOMpXgbxBR4xwYotukN8jM0ozV4CQuYhlFbc9MMB4wCr1YBz2cJVBOP9kiNJIcYRPBleeeUVpRWu9XhL8EzQg/Znw6iCYeSxxx6L9rAAXBs9K7hiBp8YW8jd4IH7QH+ujSKNVwBhxAkx6mMk8uRFrg1OloGPHXgIYiwCZ6IZCD6fMIaYqrpgxIgTpWi4v8eMkIMH9uuqZihoxCYXX66ldrBQL/l3tronEwZAaIDCXWP+jKky9JOBsnzBv7LMbXP+nqQr2Yfcdf8c+bN8//7bMnvyRL0f+797/y2ZNXmCZp6/9PqbNWnJwYMHZNywH6Rlh05SpvJ50YSMJFDSr2L1WvKNG/yJASxOew4clPNq14vX+04bO0r2OeGK5JOhv+M73h9e6UFKAc75+091M5s75U/9Dh0WzJim7mdYmPEU8dNsgR7btHa1jBjyuXqPUIYOTPjlR/nx0/e1tBBY7uhIvGbkx+JFKc2GDhuuk0lCwSBcvGiR66dXB/acGbTptLGjZd+e3UqzUECzZpdeEV3S6rAbC9ADmkE7j2YLZ06XoYMG6hiDZtCTT3fQT7NvPleaQjNWLyb99pOerzRz5/D+//07R687213/yOHEc8NMbJSrWl1WuQmbySylsWvJZskimXQF2GOcyQmYJfQ3nAqvTSJWAHaPt27sf9Lrzl4qoCQmT2NFw5clmyZmjQ+mj/9Ddm3fFpbn6Dx0ScfokKlD3jw0l3lokvJz2nzRrH+UF1AxZvnC+RomwDxEOcO/Rv+qK9ozJ43X+Wb10sXy/YfvyD8Txzoh55gm/q1ev5Fee5xTNi/s2ElLMUYq4B3Dhg9PlPGHsLhu3Xpp0u6ywJ4zg/vOmOBotsNPs1BAs+btr4xWQDEAzf7LzztQ6KNpNnuG8gI/v58vc6dO1r85tnmdE7i//UJXutcs/U95x+RRvziZ7j1Zu2KZnoOXW+58+SR33tgzZkcCSjv5cfLff6sSlVAg1LOSfJFTtF1jB/aeGSxM/OD6felKlSVT5tOVq/yFizh6Eqbm5/dKMzfOoBnlo2lzaPijk8GQu5Gbodmy+f/qMcKARnzzhQxz/J4qQIDQBWi8Zpl/VfzE8RM6Rhc7mX2mk7fpGxEJ1wilK1YmTkRX7pMKtBuGW1zWMR5gdEepJI4d5RBDEIo47voo+KyShypkjDfiz4lRx4OLDcU22DjAfTzgko+bOCvDCfFEwoARzOfiq7QGVyfACyY2RTNYxuHccMaB5AQeDii+0AwDAPMoxgKMPbQ9xg/oyKp6gwYNAr86CWhGtv9QmoWGlEA3NtqavA7QFK+BYHrGF8GLSRgG4mocAJ6yD85EMxB8fkzGAQ9xlphWLVmo8dp58odPuIXyTrmkqeNGy7ZNG9UtsbwT3t954kGNe6PpKjulZ/KonzUevXDxkrr68NFLT0mGTJmldpMW8sfw7yVb4IGLly2vIQ3V6zfWuDGIt37Vcp3odm7bKlf3uDPOMd0pgQJFi8ucOXMD3xIGrDzZcueNd2Kp1UsWq7GCLL6hoD1RQqmAgOEHb4IS5cqrAYjKDMSgY5jhHIQ5VmrPLVZCipUuJ4NefcYxxCNSyH2v1qCRMiyy9IJ6zS9yE1RGXeFm5WevE1DLVammxyIZtEfBosVk8+ZNahlNKKDZgcOHpbhry/gAwQu31XA0A4yhPAUKquBM7GDxshUczWroahvCODSrWKOWTPtjlEwfN0arJbBi9Olrz8vRY8d0FbFmoyaycNb06NW/urgeu39F8Epw7bB31049j+tmdMzmt68/S9Dkl5SgVCRCLwaClHpG+o5+un+4nOEW5u1LTrA6Tr+LVFqlFFAAYLhnKvOTUqCvlC5ZSp588slE7zcHnDKeNReCXPyuu3bZfypo5it0uscFz0jIGnMU89AXb7zsn4eq1pRSToBnHjrmFKYKzENjR8s0nYeKSgnH0z/r/yIX0Oo75DfJmiO7Xq9oyTKybvlSqeXmJngW+zasWan8nlLC19x+j4bvRSoKuPebvyBxMnZrPKtTFnOcEz/hfu3yJSoj5CsUfgWykqMZ9EQB/OLNlwP8voaGIxDzrjRz/H/mxLFKtwKFCyvNvnzzFV2VKli0qIabsdBTpJSf3yO3oWAWdd8JLdi9fbuT+2rqXBjpyH9uEUcvSZSwQhRGTcrm+HN8xjD3x4Cf39EsQ8bTxXFk3LrNL3Q0OyRfvdNP6cE4w5sWmh09clhpOOvPcTJ17CitcFGyXEV37mtahrtg4aJSr8WFfpoFvA4Ze9C6WBm/bLJv905HW8fvncyew/HSnz77OGJ5CIsj9DUS6yUlcE/HMIBXAKv7GALI7o5XAKvG7Kf0HN5eGCvCyYx4Jfz444/alsGbB1zEhw8frokDMQxQ9o7VaAwQhvgDmpFEEgUZGlF1Au8PaISnAMYSXPUbNmyo54fSA0BfKh+EO+aB0Axi+nHVx0jA3Ih7PlUK0hribCAgIY9rMVVAwoHGRLH49ctPVUHBmEDJxDZXX+dPVuOOZ8yU2SmZJSWLG1wYEyixpHXpN22Uc9y5JHJbNNMfE7Zh1Uq5+cHHNOu7N+GWcEJIl94PaZzWM7d11Xi7SAXWtD17/SVCEgrcRjI4oSm+yOzaznVz18bh4w69QfDfnJmSI1duJxAUUbrBOEliuHbFUk2OhLKIpwH0YnWAFZ+tG9artQpDD587t27Ra86cPF5XezK5fQgs5atVjxfDTEn4KwxEnZJw5GwBzRB03csH9sQN0OxM44yNVZ0sgZVBVh7yOWF955bNssa1OeMM400mRzu8NygZxG+2bVinxgfomdn9Rmnmnm/Wn+Ol9VWd9Ri0ItY4vxMkuS5JTKePH6O/j0i45z3HTfyJQbOEAHfEPn36yNVXX50iK9XQDWs2gAka/NCxsnSpZv2NNA8CaMYqDPWNqXUc7NqYWGAeOSve4fg9Iz7GfCeBeWiZm4eYSwo64RbekbdAQdmzc6esWrrIv7+ov/Y7huhcefK534nyjnMcv+l0292y4J+permNa1dL57vuP4XfFy9dTq6/6wFp3el6efKWztErnpEGHpf2OpBIxjnl92fRVzWRobt/jLmgAjTDAxA6+OvywyMKqKchK8wef4Cnsxh0jhqXHM3Wr1V+VuDcoirXIR/w4niMtL32Bj22ZvnSiPXqDAfai1AAeEdC6YZMRIhH9rNwM8bAreMshkdgDLNYhscGRhrGE3wdjwK8PKAhtGRhJm+BQsrv6T8szGEwwvjA2CNRJfh36p9y8bVdnYLLKqVPOvW829G1sF63ZPmK8u80sqgnYZ6jBCJbjpxJmpiY/ktVARK28Tcbq/sYAojRh8ejjKJ8ElvOvI2xIBj8hlABVrNJPEfOAD6DvQNYrcbwwDFyFbCqzeo14QqG+INQAHipRzOS+QXTjDFBXD+KPXmrwuWuYpHl0ksvjaYZGzkGgkGsP2HIGCDoFxgVWBiiskFaQ5y5UJXa9eTI4SOyLYas9yTBmecmFlYUsgcs3xCJ1UuSGgVPwHkDXggQjAQ8R48d0XMbt7lUV6OZCLFGM+mFQ5mKVSSjm8xm/+0PR4hMRCXus7n2iS/Iz0DIh58xnP4sGAB279imQp7fJdB/D1aNs7mBNOevSfqd3Qh++qc7lsHR7NhRf6bVbNmyS9U6DTQcBBd3rNa58uaVLRvX671z5c4bE9+LQKS8YMMKBNZ9hOhwgGa7tm+V5Y5mGGw8QJfsuXLJ3L//VEEQYDQASrMM/rI0IEvWbFK9QWPNSn7QCbUINggcAKMbmcO9vovQsXfXLnVBjVi4sZGS8wDzGPFsWK8RrFMKWMnPO+88tWRj1Tb4Y/BJpkRsZySC1SlWH8g0HEnAQwAlQSsVhBlb69w8gYER1+Rz1NXUP3fCz1GS/v3bX36UlWTPGyrKzUGMFY93EOKGsgqf2L93jxR0yqd3nWi4sV2qfCVdVJjx57jAzsgExvhEw1nw+wrVHc2cMrllffgV8XUrl2lVimXzHc2cEumBO+XIndspjo5m0Nrt8DxHlGZuTvN4B0pkjQYXyA8fDlCeQG6qPI53kG3/iJP9/HIC7ZBy83Hc4W/jlOQdyL3k9Nq83l+bPBSMlTlOoSd8gEUc75n5HTSbN/Uv983//KfQLGicQbNq9RtpKAjhPcjxHr/ftHZtgN/7wyrh9wfcWEQuiFTw7ikNEgmi1ONeft99953itu2B50RJpdJA165d9RNjgiFlAD2gGwYAwgegR7i+FEqzhOSESO2Ik4GARqzVqKkmCJr914TTJlQYPLHNuD1xLpZNwHnbnHLKaqY7oPsUoUThcm4fCk/2HDllwcxpapFlYgO4Vz18fQe9hwcsdgf3R1B5swhEzYZN1J1sxkTqmQZ2BnDs2FHZuHqlruQUK1te9u7e6fb6T6LtUfbLVa2h3/0IQzPg6Fa/VRuZ+sco+WfC79LoonbuzChlTliwSVY0dth3GptIfCM5JdIT4sPKdAKr31hqN20pM50w7DFtD4yzDU4wz5krjxre/DTzg3MP7tvnp1n0+Aq9u59o3KeBoxl5RWZOGqvVADzs2bVTjXPeL6Ej3j7ZQ5InGU4FHkMpHYOH8EFpHtwUcV9MScE3EoDb54cffqilqSh3FE4YSGkgyCdGOcPEBgbE+i1aq/fQiZB+BO9Yt2KZzguEFuzfg3ut/xz63CE3D5WterJOc2i7e4o0vCdP/vwa7nTk0MHofDgkar2/0yXReW1AZsfv4UmG8KCNq9VrIPUvbOP4/R/Kw4MB71izbKnmAiJ8008zP6DGwb17pSyhgEort502Vvw04z6EpMHrZ04apyEGQI3aG9dr9Yk/fvxecw+x2MM5hphBe7a75gY1tlA1JHTOJg9Inrz5NYQQI1rwODu4d5+UOY/wTT+tgscZZwVf6fwmzTW/1wzH72s1bhp97r49uzQU1LsGY5sFvviGt6Q30H6sRmMYOFMcN+d6myHlQbghySNjo5vRzI84exDgenbHky/Kjs2b5devByuzhgkdcMIAiekqVKulcejNL+0oS/6dE1Ay98vIbz6XVh2u9je0m9QwHmi5O/c3FlPc3/nkOy5f9Vu1lveffUQKFS0WTRyMAQ0ubKsWVK5LLgLyHJx/QTM9bggPDCzQDCbzy5efqncH7UdyG8rnEG/IajIeANtde1J7H+8N6ihnyZpFPRD4jtUZzwCUUAQNXBi5jsfMcElsdllHFfQ0L4SjG7kKWl91nWZTbtWxk4YtkJPCEygM4aHj7KmXZJ9Tbn7+wtHMjSGPZpN+czSrfr6GIVAXeLej644tm/U4NOa3lWvV9o+zQwd0dQcasaqEC6M3zgDjiyoJJKHMETRREpdatHQZpxSc0OuSwLDpxe2VpobIBt4LPXv21HI4uC6OHj1aPQk8mqcX8L7kHSBjMuWpXnzxxejwC0PcAM9lHjrgFMdfvhgUze9ZWfzzt5/dPFRTsjqFntxDe3bu0HkIXqFJid1cQQZ75R1O8ffmIeUd9Ee3n+/MV3WatZJ3n3xYc9ZE8/uMmaSh4/cagujO3bB6hWxat0bqRGC51UgCbv53PvWy4/MHHe/4RHML0X7wEJJA4xUCv69Yo7YagXds2aTHCQ3lU5MbOrogo1GiEBr5ecdJGQ3g2dn8sis0GR7hBoB8NvB7QtXg98gE5B6q06ylHjfEDLw1b3n4SRnybn+Z+ed4bW/osXPrZuXPxctV0PwR0HG7k78ZP9CM/APV6jbQ70cOHQoaZ36acQ2PZgWc/EW5S8IJcwSFQSCzY3xQWrvzx/88VGVwvA4NBkP6RsYudz/4TODvMwLlD+vjji1bNHGduqxt3qjKOzGGTCrlndJJNnTCClYsnC8Xd75J49IAlu1VSxarJbRk+UoyY8JYdZcmdrqYU0qIncLbAJfmC9qcrPfPKgvJ3kh2hKvV8gXzpOs9faTcedWiz4k0bFq7Rub9PVHuvqtXYM/Zg7qko8dPlEatT7ZJXEFSFwwpKP9/j/5NV34wrjRwTMALG4BBkTF6yu8jZeOa1UojqkZgSZ4xaZzGJh7Yt8cxkop+mm3boq6KCAXQjGcqX62G6x85dXXilGd0jOenzz5So8MeJzxmzJRRipcJOSdCgBKOQeuuXr1OyeZ6NqCKwY/DhkvjS6+IN7OFZjUbXaDCNlmiodl2N87qtrhIwwZou6zZs2sJMLwANq1dJSsXL5D2N3RXmiFkrFy0QF0FSWrEd4SNHZs3qUDAyp+T4v00y3GOJjXywL2JV5w04ifNQk5sIpmZGYORCASbUd99KZe2baOlaCKxXyUnsI5fdNFFWuKHODqSOZEhF+MBx9Jy+5AojBhPMgpT6hG3aEoh4Qoaqf03qQHv+P3Pv9x83zbetEeZhN+TGX+y4/es6G/ftEGTppEcFDAPVavXyM1DI9XDjyoFlNLDO4CM6CsXzVcjQ7Gy5XQe2u6UUuLXi5QspavZ5L3BE4pwAw/Ml6UqVNZkxlRDIgSOMm9aQSlC+++u7dtl3PDvpc/DDye4r+H58vOIkdKwzWXx5h3QDE/PPbt2yOSRv2hIGvwerzTyyijvyJZNkz//PeY3pRn5bKjdD83Ijo98dWDvbk1iR5gh4QPwH/INeWFt5c+r7mifw59VPgjMx8MHf6jn797pNxahgEbivIPxFPf6rl389cUT8ozMPd999500dPw+vmFm3BfaULVi3vS/3TiZIBtXr3DjYrc0bnupZHU0xbsGY8Dfv8Pv18iSeXPkshtuUV5OpSEqFiGjFS0FzSbK1k3rdaye62hG+Cj3IHF4pixZpUylKtHvSn/JmTuv4/c/K7/P6+T4Np26RPR8iRxbo3IFqVfv9God8QF9lYRzyA2E5hmSDnPmzNFqAh06dEjwXAB/Jy9A+/btE3wtQ8ygCkTUL4s3xH95yQ2s4B+FEsmzWoLgY8H7T4J9Ia4cnBeG8KdcV/93+jmRAsrOff36c7JowfzAnrMHJVceeOo5ufeVs69vHtr24a4Tjm7haeZH6DU4N+brsvmPne07JDUQXHt3uFAWzp8nJUqUCOw9O6xfv15uuOlmeWDAZxrDeVZw7Rbc+gmjmb/9T7kG58VAi3DXjUSw6nHfVW1lwOuvaWxZJD9rcoIV9LFjx2oynfnz50v+/PnV6IVbHZl301I7sbpJ9QY2mBqGAZISERuK4JeSeSFSGnPnzpU+L74mdz/X76xpHjqfhLtO3OchP065RgzzUGqZg9yTyqol/8kT3TrJts2bT0tYFl9QSu3Wu3pL79cGRhjv4O/AdWKgGQi9RqTSDk+LXpc2l5G//CR16tRJ0HMy72CIvMfxe5Jzni1OoYn+79RnijvN/Ah9J84N957eNcLdM9LQ74E75frLL5Y77rgjsOfsgOxw++23ayJBKg4Ykgb0rc8++0z+/PNP9epLiPGJa1F6cN68eWr8T6+G/+QAlcHOrnXdBMIk422hiOlY8P6TG4kKQ64R+j2A4N/FdI4hPILbTtsvDMIdD94XuoUi3D7gP99P55jOMYRBoL1ia7dwx4P3ndziPs5A8G8NqQ+U9MFaP3HiRE1aiLWdfax0bd++XVfa08qGcI7gQBgBmYynTp2quQeoXJCejQOJheC5IKb5INzx4H2h2ykI/R5AjOcbzoygtoup/cIdD953cvN4R9B19Ht4hP7eEHec0m5h2u6U4wEE7wvdQhFuH4g+P4bjhpQBvHrAgAGyadMm9XjBS4Xs+VQ7YEUeIwcVcEaNGiXvv/9+ildzMpyk2YYN/qohyFwYM0hGDN3wEIOGVFFgfyTTzMwvqQoxW4oNkQmjWFLDWjgmIPDhLUDpH4QHsvn/9ddfasmfNGlSmtqmTJmiORceffRRqVy5shkGQhFYITQkPqxpUyuMcIa4Ae+0QYMGyZtvvqnG6MQCyiIZ9THif/zxxxoaN3LkyOh74B3HKjnGAYwBJNzF2wFjP4Zwzhs2bJgepxqVV23E4AcljvGiRO5JTFDmsl+/fjJw4ED5+uuvlYaEUUAPj2Z8Amhz/vnny3XXXaehn3gX//jjj0qrSKdZ1JBpC22WTALMnz5Fhg7sL4sXLgjsOXvM/fdfuffRJ+W2p16O0QJsSDiI0+/b5QoNC0mMEIMuXW+U21565+zdRA1nBAmaHru5k7zbv190DVyDweAHIQb3P/2C3ProszY2kgpOKFy7Ypm8eFc32b5lS6KEGNxy+53S45nXnKBpvCOpQALNhzu3l5G//iJ1EyHE4IorrpQeL74lmRIQYmA4M9594kHpeuXlcueddwb2nB3iG2Lw4IMPargehuj4AEXxwIEDqigyN6DcB/c1cgW1bNlSV57JhfHLL7/oZ7t27VThxD2/TZs20TIp8fcYEp555hm9zh9//CGvvvqqesyRkDdcycWUhPcOKRFiwPksGDz++ONy8803B/bGDYcPH9bVfa5BpSEWW4KBQYcSiMidhHOi7FeoUEHvN3jwYKUZBh3ANWbOnKmeA9Bo3LhxamCoVKmS0o4+EWkgxCCqZPlKZiBIAhw6uF98R4/IVjeYEwo6Vuu27SSX1q41IS9p4Lf8bd2wThYtXKj1bROCFStWyMWO8Rw8dsJN4uaok3TwKc0+dMyCWvemBBkMJ8GqRrMWLQM10m1sJA18WuWHqgD79+1LkIEAQXL58uXS6sILRTKnrVwhkQaMy1vWr1H3bBS0hLQ1oU7kwNm042TJQEPSgHHW56EH5amnngrsOTtgICCPQdu2baVTp06BveGBmzjVgZo1a6ZhbHHtKywU0b+KFy8uWbNmlXz58mkt/mAPN8IGmjdvrgYCjAAYIVCm8YZjPkDZ5Bk5Rj/DE7Bhw4ZqSKRcHwYF3uPnn3/WPEMYFiIJvMOnn36qz41SnVADgbda/9FHH53xWrQ/hhPaqEmTJnGiG/cg79tCpwdQOhpalStXTkqXLh04ww+MHRgIGPco/I0bN5Zp06bJhW7uDjUQUHp63bp1Ur9+faUv5/Xq1UuTZGJ8wEgVaXM9OkzU4cOHzUCQBKDDPPTQQ9oZEgo66yuvvKKdzgSGpAMxQ7gCQbOEehAwGXTr1k0ngIRMiIbYwWRONuOXX37ZPAgMhhDgQcBqE66QNunNyvcAAJFuSURBVDaSDgsWLFCBkFjhxPAgIMEmpUqNZkkHVgerVasmw4cPl7p16yaorf0eBFfIb7/9ptViDEmHG264QZWwhHoQgHvuuUcVyNtuuy2wJzw2btyo8gUr+zly5JALLrhAf4v8ATA2hFYJYkUZJRIvBfbHJAdiIMDwwLhHoZ0wYYI89thjUqxYMZk8ebIqwrVq1ZKbbrpJ35k5ndXtL774Qn+H0k3y4T179kiPHj1OW+lOadA2b7zxhrrXE6KRUAMB3ggo/OReiO1anMvYpt3IwbR161b1JMAYyDE8OrJkOd3bhzmcVf3XX39drx/TvABtMdBgrEE327lzpzz55JPR3g3oEpSd5j4YD2gHjAE//fSTeqFAM6qd3XLLLbo/0sDCdJRrKDMQJAFw+8HSSGdJKDAQvPbaazohmLKZdGByxrpLeydGiAEDn0QkCRUYDTEDrw8yUBNnZlUMDIZTgTCJSyZJG413JA0QoTAQtGrVShWJxDAQPPDAAxqXbLk0kg7ElVPlhBjuxKpigOAfTukwJB6I5UbJS2gVA/D222/LP//8ownkYoI3vlE0x48fr6vXrPjyiXKO6zo5fkhAd+65/vKvgBKzn3/+uVStWjW6bxUoUEBXkUM9CFAgMQRwHBmUUsVpRZZBRrvmmmvUC8IzlpwtoAXeFdACmqBkxwQUcrwwZs+erUo5PJC8DRgYyE2APoVeFfo89AX2UR7aA2EDhA8EAwMBij2lpHmue++9N8Hl0SMJJFo0icFgMBgMBoPBYDCkG+AJQAgArvuxgaR0eJsQK47RlXAB3M+fffZZXUXGGyVYoQQomaz8o+x7G4aocEY/vA+uvfZaVTRZ6eYzrQBvWg2Tbt06wUYPfo+BhZV3FP/YgJcFhgAMd7QvhkAMOBjKWbiN6Vkw8GIACqYbFZLCAYPA3XffrXTG2IRRIi0ArwdyY5iBwGAwGAwGg8FgMKQb1K5dWz1/yEQfk3KHIklOKvIH4EFAjhCSzeXJk0eVTRRgPE7x/AkGyiOGB7yKMCjg+h/qXULyQmK9UVhRZrt27aqhCRgezmS0SA3A0EE4AOFXCc3r5YFVe9oHBTa2CgAYBQg/JfSCUAPoQQgG4d+NGjWK0UBArgK8DKCNR7dQrzDCkekHS5YsUW9hrl2lShX1BkG5Ts2AZiRd5NMMBAaDwWAwGAwGgyHdgNV8crSg8KOQx7RyX7NmTXniiSfU/Z/kiKwqoxj27ds3OjxlxowZgbP9QLns0KGDusQT+87vSdaHAcADBgNCUbkGiQoJMejYsaPGrkdaNYKzAW00ZMgQdfWPSSE/G9Bm5DQgR0NMNEOpJ8wbo0vTpk31OUgqSDJISkmShBDPhlBg7OnSpYsaCTy6kRciGBiLevfuredxPiEi5MXASyI1h/LRlhhdyL9AtYWIehMGDq48HnhYSi2QARIrG9+xxq1Zs0atdTF1DA9Y9uhEWOa8F/euR8eN7fecyzmcTyxRbMCVBYsS5+IelN5ALddZs2bp3x7NsKxBM6yyJP2ADuw/E804Dn2xzpH0wwODmuvEhvjQDHjWXfqDV7M0vQCaeZNjMM1od2hGWzJ+oEUwHcKB30Nffrtjx47AXtG/ad8zwTuP+5/J+ko/YKxBs7TizmUwpEds2btdFm9eIbPWLJBdB/fqviPHj8qSLatk2dbVsmH3mSsALVsmMm2KyCQnv20NnM6UM+9fkVlueguajsIiPrybTOacS8wp81B6hPKK7etlqaPR4k3L5diJ40ozvkOz9bvOzHdPbNkix2f8I8cm/ykn1q/jovi0ynEnsJ/YsD5wVsxATvT4fFzkLc7x+Hx65BnQbPUOP80WbVqmNDsaoNnyAM1il8oczdzgOu4UYKWZkws8+CjfN+Vv8e3ZE9gTM+LDu5HNOBd9IClphtKK2zkKJ9n/CR8Idz8MCZyHgokSz+9IIogyj5KKC3poqUTOQcknRwE5kl544QXp3r37KV4EKLFFihTRMAUvYz6hCiidGBhSK+hz6AS46mPsKFu2bOBI4oDcAyj/5KEgMWhMciPeBlSQoI2hBZ8o9Rh88B5h5Z9nDQZ04zzywHh0I+dFMLgu9CdpJZ4k0Ip+AQ1Tq4HAk+MJySCMg/CbU94ktKH47m2JheBrBl+Xv1FYSOrh7YcBYOkh7mfQoEFa/xNLH8ThXBQXzkWZ8UAsEGA/MSEQjkQUKEQMfhKL8HsSTPA7OlbwhIAQAFCOKEXBdcgm7N3HezaAcAFQhLkuvyWzZvA5yYHQ+/E9sZ/Bu2botWHWU6ZM0TYGCE8MWAYeSVdQ6nG7IfMrNPMUyGArKvDaEprjAkRb/vXXX3ovjpEFFXqAmGiGUcD7jUcz4PUJgCGAjWM8H/2DRIIkPElOBLch4HvovoTCu2botenHJGshUyvtiLGNEjlMuowLaIYAxn4mO/o2v4+p/3MeNOM41nLOgSZkrOU+3m+C6cB9vUmdpDAwStyaSBDJ+eFoBpgHcB1jXkhumhkMaQ3B4xnwPXRfQuFdM/Tar47+UNbt3Cjjl0yVX+b+rsemr5wrs1bPl2yZssoHE7+Srfv8xsng+cCbh/buFXnoNhLEiZv3RZ64n8RzIo8/xJwhkjmTyIifuP/J33jw5i74FbGszFfIFpwT7ly+o6yw6oTLKvGsweckJ0Lvy/fEfhbvmqHXPnTssHz6t5PBMmeTz6YMlW37dijNZq6ZL1kzZZGPJg2R7ft3OYXz1Dk8uE0PP/6oHJ38lxxzvOLwE48osQ5/8bkcfuxht3+yn2AOoXTw+DxCLInlgmkGcAn24MkIHCNJJ3weN2PolxIIfg/A99B9CYV3zdBrHz52RAb/PVSyZc7qPv8nW/dud/RaINNX/StZ3b5PJn8r2/b65bLgNoxuf9eOh598XGlzbJKjmaOTOyC+vXvk8JdfyqHuN8hxJ7exD8TEu1k9h3cT8w/v5toxnUvSP85FLlm0aJHuSyqglFMimVVuFHhc4oPbLybwO1aNqSRAxarUrNAnJhh36EG487MKTdsmhdLcokUL1S2ee+45XfGmv8YFGADwKCBMoVKlSvo9vYP+TvU2KoTgDYHnBKEVSjUOouRiMaF0B4MW6w+l9cg8iXKWGGBix90DxQTlgYegPATKO8DNJtitBqscnQzlEibNAGRiYcJHKcFyg6KJQorFEQMAigOA6Fh+YAhYeVBYsRhRqoTrMLjptAgIXpIS4os8JZSal7w7bkNegoply5bpuVikqVLguRSR4ZJJAkUqsS1lsQG6TZw4Ud/pSzdRYzAhiy4THXFVoS5PZwvql1J2CUsgNUj5G4UQmjCJUybGU/Z4f87DCOPRjAkeY41HM4Cw5bUlz+wphjB+r/wHpYdgGBgWcOnyJm2MCN5vg2mGpRCLJe8dXLOUc7kuBibKDnqrP4888og+4759+5SGyQGPZpdffnl03w+mmfcuCQWKOWOZ8j1kI4VmKOC8L8o4rnIezWgrsssyzhj7XpkcSqMx0XsWb+jIs9LuY8aMiTYcTJ8+XemN4OzRDKGbuLNgQw59hufy6OB5eZDkhfPov8RxAa7PdTnXG9+A0qE8N/fyzjUYDPED4xZjnjcPkYX9999/1/JaCF6M08QA18EVk/kF3sGqD7zz0OFDcnuz66VI7nNl7tpFUq5QaV3F/Hf9Yimer7AUy1tYDh5xcohTPAFZqOHlGC+9FaOcOUV6PybSrIXjO45F4+iEjHjCXeieW0UGvClSqIj+/BTezTzo8UYERFx7g3k3vCl4nmMuQ55g1alBgwYaL0xd7OSGRzNWLTHkwjuCaQafTgww7zInU1INWQuacR8U8iwZM8uNDa9Q748T7nkwFMxdv0iK53E0y3OuHDp6SGasmece1k8z5DWPZp4An/n+ByWTE9BPTJ8qUQ2biBPEJOvN3SQjbRrEL5BJw9GMtkcegC7BycO4B7KCxzM8zzeyy8PX2KB3cgKasWhBCUQy3jPO6P/IvsiM0DMxAM2oq84G30aWp+9Cs8wZM0nXhh3V2HbctW/2LNnk33WLpGieQo5mheXI0cPyz5p/9Toezbw21IUc1/cz3/uAZHLj5MTM6X6auX1ROXNJNiefC0YF954eQnk39AMPPvjgabybxRno6skEHs1oH2QVKk0kB82QcTp16qR6CfoJMixyGp4nPDN0ZAsH5ob0qmR67UIb4fGBKz46G+2IzE95wdD4/cQC+hvJAdF9mPugH/0XPYO+YzSLGbQLMjdyNeMPXQjdHI8M/vaqQ2iZQ05mYn344YeVWaL0oVAzgfGJ0h5cviM20FGYuNmYXJjIKSUDuA8MB2aGCwcTBRMCCh/E5fz+/fufEq+CokgCEVw88ufPrx0A1w4mIcpKwCx4SSxIGACuvvpq7ZC8PNfnGOUtOBcFkhVsOhQTtqdE4kbNObhWkNSCe8PMuLe3os3kBvjORE/ZDupcci7Pzbm4WMMMPGUsqcsc0p4k6oApYA1DgUPJ5B14f9optjIgHnhXjCsYhXgXrKKUZvHAtbDkQisspazO8+48C4o13ha8M8okoC14LvoPbjdY7ml7hC6UVq9cCO3FijBWKzLE8j7QAUGNPoN1EGGINmby4f7QDTAJUGuU7whtwTTjGO0Pk+QZeX76C7S566671E0MYC3HOMBqEP0Rt5qkLnPIO9J+CGDUTMWtnnbi3gBjVlxoxjjzaMZkCN1pQw/ch3ZHiMSCy0oLNAMwZ9qTZ/BqydJuPBeWVWiKkMC4YLygyHv9H4MawiluWt79oBmCGm2HNwDjCHrwO4RDxiTfeSYMOown+iz9k30IbtAByz3udZ6rHjRDgOI5oY93Ls/6448/aluh4GBYtDKHBsPpYI4IV+aQscT8ynxITC1uv948xLG48g7mIeZL5Idw8xBzL/Mrgr43DyHUHT5yWLZk3ivlC5aWiUunO8XyoHRvcq18/Oc3UrPEedKkfF3pO/RlufC8pnJJtRbKl3helEZ4CPOEf05x7zhHZKhjPW3aOIW/skjf3iKXXSnyv+/cXOdEj2deRiD0h1GF493MPRgQPN4NvHnu+uuvVwO4dy5zDwYE3hfDhzevMV/y7igUCRWI4V/hyhxyH/ZxX4wCPDNuoNCM52COxNvyTMCAS7/waIZsxTt64D7wBY7x/tAP4wj8tUyFshoCkjNrDhk6a6S0qNxIZq6eJ7WKV5ELHM0eG/aatDqvibQ7r5n2DXgKz4n8hfzmdsqREb9JRkeoY+PGyol//pas/QdIBkfPww+7tm9wgWS9trMqoACa0XeRD71Yb4/PIz/g3g3N2E9fg99iZIdneDKrx+dpO/gUPAMkR5lDry15HmhGuKtHMwAPiwvNaEtkSYR56IIMDb/1wLsztqCtRzOOYyAoV6m8o9lKyZUtp/wwc4S0qNRQ/l23WCoXLqt/PzH8dbmgYn1pX72Vti3XoY/TrsRaR0GzUSP9NBvvaPb3JMn61kDJAD3d/faVLy7ZfhotmVwfgW68MwalSZMm6fzCO7LP4/PwbmQwT5aDZnih0q/Zz7kezXgW5HQUTY8+iVnmMBTcG2MFxgHmG8Yz90dm5dlSMi8AzwYS0k8TG+hYtBdyLHoAcxD9j/6Ju31ygfkAYzR6B32XkA34EM+ADhIpiAQaMg6hGXMrdGP+YSyyII7uFfxsysnYwQTJJINixd9MZsECRVwAA0WJpZMgDLCqGBO4Fw/KRMCkBJgQ+I5SwsTEZMcgZVWSgUoHhMngAsHkzwTPdRBQWK30lBmEGxggkzXWLIjCuXQiOhANAUPnPCZeJgOYO41VsWJFXeXGcs3qN9ZLBgHX4HlRcDiX32OcwICC5ZNOyPU8b4jkAHRD8eaTBBys0GAciA9oe8I6zkQzr9PQXjAd2hMBkvanfWBa7IM5whARKDxXdWgGU2Sw0oaAc7GkM9Gj5JYqVUonX4+psXF9aIbwimWSjoyHAPeE+WDIQPhA4YUOMCXAxEBf4jz6MB4DbDwDQhF9hefFMwYmyMo53i0e005qlCxZUtuTvs0zxJZRNRwYZyji9DmsfrGNMxBMM86lLwfTDI8BGDFtj7WftmQC4TkxvngJWjiX+YH+jwHQoxm0hq5s0Iy2Z5KGRowhmDv3wMDDGCZLLB4d0JIxjocDng7Ql+M8H+fyLJyLUMSYpa9imUbo4L7QzJtwDQZD3MF8481D8EQM84y1+IDxCL9HGIvPPMT8sOPQbhm8aJg8dmlvOSdrdtm8ZwvSk1QvVkk27tkqm/Zsk8wZM0udkn5jAwZN5hb4G54EyAAnTkTJ33+KPPOYSN1GIl98KtL7ATc/Hhdp3FyktpvOhw3Vn6tcwTwWyrtZ4UTWgI+i5IHgeQ45AgWB+QaDK4Zjzmd+SgnwLNAMZffll1/WBZ348g4WXDCwYJiH98UGaMa8TptgrFi6dbWMWjBBul9wrZzwnZADhw9JjWKVZdPe7UqzjBkyKs14JmQ2+gQ8BJrBf4kHOfbmqxL16DPiHkJ8JI44dlRObN+m8ewcx3U9KncevS80g8+z+IFsBh3wEuW5UfaRD+AB3A8ez3fuA39icQq6s3iE5xm/QR5JTvBc3kIUxhIM2fSr+IBx9uWXX8aZZvBUj98DaDZ6wSS55YJrHM2Oy8Gjh3Wcrdu10Y07P83qlfIbiKAZPBuZhHHCnODzaPbYsyK5cotv21Y6hhoHTmzBC9Dn3+e+S6ZMKocjP/Bb5C2Pd7/11lu6MBDMuzkXmRmaIQeS5I1nZz7CqMSYT06aQS8MAZQcZGOBkf6G+zUKqOd9mtygrTAQUQmANokUINN7CzXIcymljNOnkOvZGPPM3xgKoRt6SKTIicy/jCvPQJ0SgO/B7+ClLA4Ee2GFQj0I+ANlgRV4rKAwRYQGGj0YWPl4KVYWseiGGhBYZaaDwLy9lw9uBG7FagYMA8bM9enwdCwYCRMBigWKB5YMJhWsiwClndVNrOswKq7Li6EEsqqAIo/ggcLIe7CfVQAmS4jCijgCAAyHYyjzTIIoIdyHBuNvGD8rqDAnJjmuyb0RDBBSeAd+yzGYEZZFJmImEs5FeOA4ym9SexAAMm2iZKLcwUiJoQrX8WgXns9bRQa8C8YNz+gSjmaA9oK2WL8RGJjQmTxRDHkeDCtcHwWbzseEyrX5m1UpaMaqCvsQzPgNDIJ9GCYYwDAFaM4nli3OoS/xbAx4+iSMC9pCJ2gKTYJpxm+5FvTg3hznXWBS9DPoSJ9AoKXvQU/eDdphVOBatGNSexCg3Hs0gzHifhvc5rwHK+f0WdqCc4KPM3Z4PxhwTDTjPgi00IW2oq8G0wxaQjdoRrt444x2QeikXXgHrotgQpuhvDP2PJoxRqAnzwuNuS79H7pxDLddDEbQjN9BQ8Y21+O9+GTDqEe/gg68Mx5MCHhc26MZ1+Sdua93Lqte3NM8CAyG8GDMhfMgAPB4lEx4AvM/K3Le+GH+QCBm3DL+PM88DxzHiI5RL7Z5iHmE1UxkBuYE5iFkB+ahlTvWaYK7g0cOSblCpaTAOXk1Xnr51jWqtBAzXSp/UYly/zAoMjcgJzB3wXd9vowy4Q+RvX69XvIXFGnqdK9/5/pDDXhdN93IuYX9io/H9+HdGEhROIN5N3MRcgDzHG2F4MvcBP9hLuIcFBp+y3zIPAhoC4Q+FD/uk9QeBIR+QjPmVc+LIRicx/yKMsPiSvBxaEYbwpdjohm/x8hPO/DuvDc0w/MjKkOUJpbMEJVBjp84JpULl1dDwYpta92+KEezbFI6fzG9jkczFFp4DTw4k3uf407G82FgcTJnVNkykrF0GTm+aJH41qwm9btkqFhJMjj+y1yP/BZKM54JXk1f8uQt3oH7IQfCJ5AJUfQ8BZN38vg7/AVA+6T2IABDhw6VZ555RnktdAulGfwMeZG2Yqyx+uqB58aTDtkn2BgU+qz0bYz8nlwKzXge7pchYwb5b/NK/c2x48ekSpFgmmVwNMvixplrQ/eP0ABkodNo9l+AZo7XR5UpKxkJx3GD7Jjr97JiqRtkRSUjnpzu3eHdyHJn4t2ME2QzaOrRjIU/5hRkM2hPH+Zcj2YgKT0IwgEasKUkuD/0ZOxHYmglfSu0T6YkIoFm4QA/IXwF2TyUHyc3YppLghEdYsBqJklEUEJRNIlj8iYqFAwmPQYmq80o9KxYw0CDgdcBhoZgpoZS4q1qcx8vxIAJFaswTKdhw4YR1bkSA8lhIIAp0NmYYFGQCRHBiINVj2Ns0AKGgaWIdmeS8QA9cHOHZsHtjwtm8Go618FAgHDEvWAi9AWEqbQEBImkNhDQlrfeeqsKMggEeDDQnjBR6AFTRJDGhZ8xwjjkmYLpQ0wlAkDwOEOAw/DmgWsxCXENhGmPZp4wlVZAe5mBwGAIj5gMBMxDrOYxz6FEMA8F8w7GFUYBlA74PXwfjwMPzC8kh2IeCh5z/AZ+7oFroYBxHsoG81Dnzp3TFO+gLZLDQEBbkhcAOqD447aOEQdjhcc7UKTg988//7zOi7R1MH1IGgYfD74uIV0slnjgWhgIPAMwNEOOg2ZpaX5NDgMBNCMkBv6OIQ3vN0JZUIS9cUZ7M26gC2MVw48HjmHEYxEk+Pm4F0Y9D1yLsYoCjnLO6ilyXELlmEhEchsIIgH0A9zAyY9guZdSLzCCEeOPN1FKGwjiAn1CJhVWNHEFQkBA0URgIFYYoYFOyTm4prECz2QaLicByj4lPTgfhZYt2OWdTs4GUJCYyLAwYqn09hviDgw3GCAQAnCnQ2jAYICwgtWaVWjohntfsGEgGNCM0IJgmsXmao9Si6AHA4KhGeIHvFVYWYd5w+QQpgmDgWYIKrjlI2AiVJBjAcEgdGyw+hZKs2DjgAfvd9AMIwFj2WhmMBjgHbj0Mg9hOEZBxKCJSyaGRcLumI/gIfAIb7U8GBgucXkOnoeCjQMevHmIlUl4R0q66qZmwDtYJccYjDclCic5gZABMOAjr6Fwwu9x+Q0nU0EDL1G0R7Ng44AHfotC6tEM3sHKryF+YJx5yjqegNDtpptu0kUIaMZCEooCxjqP36PsBwMasGAQTLNg44CH4HGGYQea4TVhMBhSHoxP5HvGZ2qBGgiwahAjDLPBsswEhtKJEsIKJlZrJjFcy4nxwErOpBfKgJgEPdc0FFPPOuoB10Bc3DxPBQQMXC5ISohLnCF+oLOxaoqVGBctXNexXpPYj7h9hDUUT8/TI5ReCAAIG6xU4PIPvUJpBggZ4BySyMF0WLFAUCFLaei5hphBW5FUCZqxCgTNiC3EfRADDsI5QgTACIdiT84LXCqDwbmMM9x2w40z/maceTTjnhj0cOd75513jGYGQzoHcwK8HCM9YUWEquHaC+9AeYF3oKwQE4zbMquewYB3MA8xx8C7Y+IdrKiysokyBL9iAQLDBLlEbB6KO2grMnUH0ww5ik88AGhTwgYwFtDGyHHh2rdDhw7KO1iYiYl3kMuHc0gIDf/BOIRR2/h9/AHN8CzB85LxRZJMvAlYDYYfEzYADTx+z7jEG8ED4wyaMc5IyhjTOINmLAph3CP+GpoxjonlN5oZDCkPDH/MqQn1VkpORIcY6Jegh2YfL8Q+NuKHcFNEgIAxEUeFF0Aw+A1uW0xyuKfxO9ylvCQtHI/pXt590gqSI8QgtC299mXzzkOJxABEvCkMCnc1FNJg4P6JAIgiGkoz4F0TBN8LpAY3mbgiOUIMvLYM7u+MM28f7YnA7SVupP+w4hMcg8e50Ipx5tEMN+HgZCPefUAwzYLvmxbgCVcWYmAwnI6YQgzCzQ3exj4M9/wO13Ky+ePOG27lA34P7+CT38V1HgJphXfwPsmVg4CNdvTaMpR3wO9RJDHK8J1V5+CkZpyLbAbv8GiGhwhGBw/efTxwTuh90wKSI8TAa0fv2l7bBrcn8faMIVb9McSwMBcqo3k080J6YqNZ8L1AWhlnHizEwEIMUiPQw/DSx5gXPHYjGdFJCs8ETiNWnU+EcpiONxEZTkdyJSmMCxAiYCz81ugWM5LDQBAXBI81BMTQpEeGkzADgcEQM2JLUhgbQvk9ScvSmqKRWKCNksNAEFdAL8/rDH5vdAuP5DAQxAX0HxL98knfMX4fO8xAYAaC1IgXXnhBw78I1U8tcmqcOQcvRBgCGXBZiTZBPPUAAQF3dqNb6kDwWDNhwWAwJDdC+b0pmakHGBUIPWAzukU+GGuMM4xwxu8NhrQHwvXI64PhNzXpYMY9DAaDwWAwGAwGg8FgSCTg/UFOOMp+BlcoSQ0wA4HBYDAYDAaDwWAwRAhQLr0t3HdD5ANavf/++5rPJ7V5dEXk0wYPAO/vmPYZIgOh9AimUbjNkPIIpQef5Ktg874HHzcYDIbEhJtd5ATzjs+fbC/6n809EQ3o4qdbgF4Bmun3wD5DZAGaBI813efRy2gWkaD0JbmVLrnkEi0PSxlzvj/77LPRNDRELqARld/IUUPFktQW4h1xBoK9e/dq0hg2Gnf69OlavmXAgAEyYcIE3Ue5JMq4keyB2A5DygKaUcaKzMnQh9q/gwYNkh9//FGeeOIJzcpPPW0S+AwZMsRoFiGgfNkbb7yh5UupsT148GCl2ZNPPqk0I2sy4wya7dixI/Arg8FgSBzMW79EXhz5nrw97jN5Z/znapycuGSafDj5G/l82o/y67zxqtAYIgtD54yWdyd8IY8O7ydjFk6W445u388aId/O+EUG/f2DLNlsZasjCchlw+b8rjR7bPjrMmrhRB1X38/8Tb6BZlP+J/9tWhk42xApQC4bM2aMbl65WeRokqEaIh8kH6XUaLdu3aRw4cKBvakHMRoImFBQ+B599FHNiptY4Loo9tRdfu655+T111/XDMvbt2/X47hg5MuXTxsWawv12y+77DJp0KCB1o0F1JZdvHixnuutdhr8QJFD6aPOdGK1DTT79ttvVYH0aIZlc9u2bXocOuTPn19pBqBbzZo1tT4zCZOoCjBt2jRZtGiRfjeanQoMJtCLdqWtEwtbt27V7P4Ya9555x39+9dff42+B7Rg875Xr15dMzFTUtGjGVlXjWYGQ9oHmdjfeust6devX6LyDrLxUxqZVS/muIEDB+rcBDJIlLSt2lzKFyot63dtll0H98pnTsG8tForuabOpfL9jJ9l614zTsYEjLtvv/22ZjdPTN6BPPbKK68o3bg+vINFgGje4SjXtmozyZQho2zft1NWbl8nfy2dLpfXvEgalqklY5wCmpjPk5awZ88e5ceUnE5MvgrN6AfIadCM6w8fPtxPhyj/WGvnxlqmjJncmNopq3ZskElLpkr7GhdKk3K1ZcT88UazCAMlrkk2GgySx+JRYIh8oLOik918882pznsAxOpBULBgQbVcxRcYFGgU6rti6cIKFgwUEepBVqxYUe655x4tyYMywuREWR6yJnugXiQKKC4aHTt21HP4LQoMyg6r1TapnQSJMObPny///PNPYE/cQVtipaREH/QLbldo1qZNG63V27t3b6UZ3h2cQ/bdYJqhYNavX1/WrVunxy+++GK56KKL9Ll++uknLZ9lOIm8efNq/2YMxHcSgWYI24w1BIRgmjF+ixYtquW3GDNMUgiUlOAEBQoUiK637NGM8cr4hQFdeOGF+lwIGTbODIa0DQRRjLjMQ/FBML9nY64IBsZi5v8yZcpE8w74E/NJuUIlJVvmrLJw41KpWbyy7Dq4Rw4fPSLnZM0uWTNlkWMnjsv+IwcDVzKEgupES5YsUTfWxOQdGPyLFSumdGvdurV0795deQfyIOe1rNxI1u7cKAePHpKS+YvK5j3b9P6ZM2Ry9MwiO/bvDlzJEApk3GXLlqnLeHyBLA3NkNFCacbCGjSDXtDt1ltvVWMEK84nTjiaVWoo63dtkgOHD0rpAsVP0iyjo1mmrLLzwK7AlQyRAmRDaBk8tkuWLKnyeHzHuyF5wVhlIfXee+89RT9KTYjVQADjOf/88/XvuFo6qS2L5wGTH79fsWLFaQohCr+3oZjQeNTpD1VA+M7+kSNHStOmTXWlle/Udv7oo4/k/vvvly+//DJwdmQBoYl3SwwwEcTVi4P2p82pE0v7hbZpTMClHK8O2hbmFezCxP09erGaTK1emJxXa9mDdy8+MTTMnj1baYTHx5w5c5RmDz74oHzxxRd6XqTBa2PeMaGgzeI6ZmjHlStXqiLPb+JKM+plQzPa1qNZ8G95Bt7Fox10wyg3b968wBl+eL+BZrNmzdIJjfACjHDQ7OGHH9b7RCoQdBNae9xgSIuIzzx08OBB5R0IpMwJcZmHmLsIS/L4/fLly6M9yUAw7/DmIAzKyASei3PmDBmlc7328r+ZvzolZY+ckzWH7D64V/Ye2idZM2aRPNlPXUGLRMA7eDfeN6E4W5rFh3esWbNGV5o93oGRIPie4XhHhQoVVD7Ay+OJn/pJjaKVpEOtNo5uI+TcnPk1vv3I8aNKu+J5I9+d1nvfxOAdXj8PXQwLB8YHNEORj+s4A2vXrlWPDuSqM9GMT+TP8uXLK413H9wjT/7cX6oWrSgdzm8tQx3NCuXMpzQ7fMzR7NBeKZYndbhApyd+D01ZqIGm3vdKlSpJ6dKl9bshcsHCGkY8dDHolhoRq4GAmH9WFG6//XZVGpj8jh07pgMUwSB0YuM7gkLVqlV1BZKGadKkSYzWE65BPgFWLAgloBGZ+Mg5gFK5adMm+eabb+Sxxx6T9u3b64o1qxxYSb///ntlVnfeeWdENj7W9sSKOaE2Lop/XICSB+PAakzWTFxGPSYCYwrHjKADnRmLM14CLVq0kGrVqoVtV84ln8CMGTN0BRrA7DyjEDTjnFtuuUX69u0rdevW1ecvUaKEhilAs7vvvlt/F0mgXaAZYFUmoYA5M17i4i2xefNmpdnvv/8u11xzjdKMcQbNuQZGsVDQxuTpIGkNNCMBClZlj5EEA/qzwofnAPkEunTpovsZe6w8QRdWJXr06CF9+vRRTwJoVrx4cfnuu+9UwGDlLxLHGXMRrtFY2g0Gw6lgHkKJjAuYA/D6Yh7q3Lmzxk4yvti4RrAyApgz4d14lZE4C37frFmzGOdProHhESMkMkGGqAxSo3gV+WXeWPluxq/SpeGVUqdkNenT7k75+d8/5Mtpw+Xui26RAudE/thmpRYZJjEAzWLi1aEgzA+ajR07Vvk9IRzwDhDTNaADnny33XZbNO+oUaNGWMM4v4d30CfgEzfeeKPkzZFbGpevp7Hrvy+cJF0bXSkVzy0jV9W+RL51dJy2ap60r9k64oVicifRVqy8J/RZPcMXK/tnAu2JcX/cuHFy3XXXaVgAYwuezlgLx++hJR6z8Hu8AZHRzkQzvD2gGZ6D0TT752dHsz/lhkZXSPlCpeSauu3VSPfX8tlyRe12EU8z3o2FkPTC76EH8hjeoIB+xjhPrMVHQ9KAeZmQOnQd5pfUiig34MJyISziKBzEC1apUkUuv/xyjZNmAqSWI5MbAsF5550X+IVfEXnggQc0XwAdmc7NJ+d5jcTtcDUvVKiQvPvuu1KkSBFVgu666y5VSoAniPB77/H45DsKUPAjR+KExvM9//zzyjAeeuihwN6zB0o3AhuGE2+iiAkIYHRKPidOnKiugRhW+B30w9ATGtOEUYZVIFxAvfbECNO4ceNohZNYdCbl9957Tw0fMFbuA81CaeT9Hfw9lE6RRjee9X//+5988skn6rESTtGODzAMIEwRQ9ahQ4fA3tPBfTGs0Jbjx49Xwxi/Yx/jg+tAC4xkwc+ExwHKO8K515aEE1xwwQWnnIe3BnTEoIbXBwYbvHH4jUcjwG8Yd8HfgxFp9PKAwQljpNc/DQbDSaA8oiAwp3n8NSbAJ1AaMQCTDOv666/XJLMY5/lep06daI9CwFyB4ZD5xbs28wb83jMeAzwLsmfPru6W8A6UHfgQ4U1uBnLX8Z/HDOPNM948xM4oPRK54FnJ84Lhgzk7dO6ML1AQURyJIUcJjAncl3tCM+Qx6NepUyeNe8W4i7EAuYpwgWCwEo3nJR4BXntDFxZzghVOckXBT/hEZqhVq5YqptG8w52jvw7QSPcEyOZOinCq+Q3k8F3aMKEr0sjLyL7IUPTt2PoAPOumm25SGQ0+T94f9pGLC9ojE5MoOJjnInfDy/EICKYZ9PGeHZqwoAZ/h74Y6lisYwXao1kwQvcF3y9SwUJKo0aN1CCGN2R6AH2CcYfnCGOZ+TR0TBsiB4wp8sBBJ/SlhM4tKYkYZzFWhZkwmPBYWcVqx4BkhZO8AFhfYUKhYB/J6diY+FCOQgV3b1LCAIHhgEmOpIPefiZXNu7v/e25TgH2e1skAqWOlVkUvcQAyj2MAeU1dBUnFP/9958aaDBOICjwyWTy+eefq9AWyiQA7crKD/TyNibhcO2LZwHX4XyUMq7n0cKjmfe3R7Pg/d4WaaBdEbIQthLj+RB+mdSDPThiAn0fK3EwzaA5zP2GG25QD55Q8IwIdME0Q1APfXbowwTFuIUOuAB7fYBzPfoAPqEZG8eCt0gE74GQhYHAjAMGw+lgHoHHYgAON/cHA96BEQBDIsIoSj1eZSiSCKkYIEOBMnP11VdHz0FXXHHFacKrd9/KlSvrKjvu8IQ5sd/NLpKBeShknomeeyJezfS/HwoLmaoTY67EuwJDblyS1uLhidEmmGYsvqAg8hnu98zz8Ipg3gEv8fhAMOAdyHJcB8OCdz3e06OZRyP9K3pfZIP3gHewGhtsFDlb0Hb0awxEGMBiA/yevBzQjDA+ks4xLliIY0EhJn6PTBZKs9Bn573Yx3GMFl7YIVs0bQIbCP0eyeAdkKtpJxZGUiM8WsRnQx7EYAiNmF/JMxbuvDNthqQH7Yy+jOcOxvXEmFtSEhmfcQj8fQpYEUBZoTNi5cStCVc0Jh3co4hho8OWKlUq8As/OA4j8ZILhpt8WCXFBQMFk47PyileBUySwSsPqRF0ECzuuHglFvOh/UhMQgUBlM7YXBlhTliueA6s0o8//ri6P/I7hAmMMl5iOg/QGms6ShbtH45uTMyEL5C0Dm8GaMbfaYVm9D9W2WmvM620xRWMga+++kot/cSNhY4DD9Bs6dKl+hy48z/99NPKAOlD0IuVJAxvXMcDz4iAg/CPQB6OZhjxfvvtNz3GeMOdFM8D3EtZmYLxpGYwEeOeiSvXmTxrDIb0CPgP8wPzGmEAsbk74t6MkYA5hHnoqaee0jkMXs+GoZPvHjiPuYXFBAzYMfF7whBQVOD38ER4B/dhzKb2ccuc7Xnr3XHHHafx1rMFMcaEeDBPI2OFtqkHvC/h9xxnJRzeQWgaBgDaGA/P0Hke92RkOlaYY+L3GIRGjBihxwiBo+94noZpgXewEk0lAdoLGTehoO2gGaEYeFdiaIuJZhz3Kjph1OEZWHwjxxbKL56eyFUY3zxAMzxEMCowZsLRDLrjKcQ+aIbnD30DmiFH8NvUDOYn1BXyWDEPxdS+kQbmCMJ6oPW0qVPc5wyZ9+/cOG/z5/0r+/bukQnjx8kFjRs5uXCbzP/337Dnhtvmz5+n8zfGvrx5Ex5OY4gZzJuE8OJxT46R1G4giHIKvY/JJhyIiULhBzAEmBGTKq5UxLgzYTFggzsckx8rsSgmAOsobojEoHvgugwaro21nIHPBnNNLAabEvCEBay3tA+rAIkFro0LGq6eeAPERDOEODopx9mYFGAaxGnDvGAaGGVCwQSGMouiDD1hKIQnePcJphmMhr6QFmgGcMPFgIKiyYp9Yk2gtBdCG/2f+P+YhCpo5uWYYELhPBg83geUl/KEe1wHgxFKMzwOyCPgTUpeX/C+c12MEdCNcZeaJy/eAWs64U4YzlL7RGwwJBWYB3BZxmDInBIf3gG/x2UaAzKK/QsvvBA42w/4AcoxRkfAb6hMFJxEK5R3ICPgZZcWeAeKHt50uH/jyZSYvAOegQEUWSKm+c3jHdwXmmE4HjVqlCbHgt9TQSgcT4MPwDvw5OAYiim8w4ttjol3QDd4B3ROrWDBhNV+vOoIAY1pPJwNkCW4Lkp5OI8bEEozvD6gF6UJMRYwxkhYzIJcMN1of3IIsfDDfjxyoJm3oJGWacacwTyEzEPYM3pFagEG1JtvulFWLlsoDcsdlOL5TkjGeHY5n/tHG0BbcrfEBweOiCzbnEkWbswul3e8Uvr1658oRjHD6WBOZRwTppea+mhMiOrfv7+PhHKxrSx4gGlhkWTSwVWZFUkmnlDmw3lsHjgeek5aA8IPQhQKHQohFqTEfmcmfxgayhHKLEaXuNwDWmBBpI4x4QcNGzYMHDkVwXRLDzTjXXH3QwHH4k9SxcRO/uIZ1chvQAwuroVxpRmeNvQr6I6gF06QQSgIRmIKO5EI2gVvCE/hGTBggMXjGQxnAEoRCX3xRGIFjhXKM81DjDVWjRHKEXJRWMKNNc5j85BeeIe3+nvZZZdpaFpiz73weZRFFmLgIawyx5V3oKiSeLhevXrqTRAO6ZF3EMsPv8d74pVXXkn0VXX4NUr8a6+9poos4bNxNV7jpQnNMR7EZGwKHWtpnWYAPk97khibqkpxlXtTGtDpr8l/yu23XCm9Wu2SLk1OSJZMzI+BE5ILrrvQY1ZtFXl3dCY5WLCjfPLZt6naYBSJwMOafD/9+vXTBda0gIxOIXqG7Kgo+57FI6bBx37cm3B9wnUN63+4c9kXuqVFeBM1AhSWfiYxPCoQGJLinbEUs1pB6AdJMFD2iTMEsd2PY4QPYBgI9uQIhUcrb0urgG5YY6m8gFsoKyxYpxPbOAAQDhDSEEQwQODSyWrNmdqYY7iWshIXm2DoXcfb0iqgGQIt9dNx4aJNGANmCTcYzgx4NV5SKI0k1IOPeHk7YptbmK8IbWLOYqUzHILnH29Lq2AewuhLPiBK+LIYQO6BpFDU4B3EnWPcwSBKLgj4wZnamGPMi/B7QhNjgnedM10vtcPjHXi2wuuJ3SeJdEz9OSGgH+DJx+o+hjj6CosPXv+IrZ2hFTm/jN/7acZGmAzJUhkLeNCie6SW92YhlXF7R72Zcm0jv3Egg3t0Hj+5N+6bP6dIsyonZNi4pVKg9AWnJLg2JAyMczyz8fLFgzytGO6ijhw54kPQJqkCRgKUW5gQiicTqHWg04GVl/hnrPSsIlBdAIaM90BwjGZSASs18fLEqsFMSIbIYGfyRBFND1bl+AKDACvxxB7CdDAO4NZHdQAE5+To54SHwDAQ1hEqESRY0SNDtFlzTwdCHe7JVPFYtWqVlnXEJRYDAeWerM0MhviBMfXxxx/rhoGZBHQoJRgBcEk23nE64B0o6aw+k3cHbzAWBV588UVNEJgcvINwAZRaPD1ZpcJgQ3Wb1B4qllRARmIlntwXeL9AMz6p6kClh6SmGcot3raUDWYFnOSDGArg98iKSbEYkdpBmzGuCK8kjxk5MAjZRSe57777dH5KTSCnRKerr5Sfuk+STBlOen2kJE64x3h5eCbJVuspefSxx22+TwQw18BPBw8erOHcacmjVcscwgBhfrjIMyiZ2JjAMBDgMZBSgjjPRQeOlE6McIVhgAkfZROhipWYjh07qqKOB0ZyGVR4FlytcT8kdIC4NPYxidJBIyn+hQHEs6UUU4RW5GBA2aRPUzEAIYGKDDDr5KIZDJC+Q+ZilF1c5ng2ngnBD2EvUgDNQEoJn8RNYsBBYKDdCM0g5wBKTVzcow0GQ3gwthHCcWn+5ZdfVOllPHm8I6XyAqT0nBMOGAbg+Sib8ApW9OEdrBCHC69MKjAHonCQPBLewcIEK5TQDN4RScoTvB7ZLbGS/cYXtAuyEZ/IjuSpgWYYc/CISU7egcxBck5ydJAYksTDyGb0JbZIATSjj6XU2GMFFn5Pe/E3iyfky8LbI7WEFISC8Xr1lR3l156TJUPUqQYC19Tq9h/6VnF9TX6vcOfHp2UwELz2s6PxeY/LU089bQaCRACLjiRuJzk9XkBpSTZVA0Hgb50gmChQWlhlZeUOBhl0SrKB5yCWg9VdXOUipdERnjAMsGKPBZ/nSslBBm3YvLwQeDXAhGi/SAGWe+rzMuETm5PcTAgDF4YuBi9umtALuqVkn/KEKKoKQDPil/geCaA/fffdd5qZHGNKSgGakegJYRxh06ObwWBIODx+jxGOXAMsEmBITSne8cUXX6gCx4phpACjNgZJvCwI+YoU3oEXI3wVmm3dujXauBIJQDlnRQ13Wwwqyb0wAI3gHchn8A74f0rSzJPRoBEr4+SDwkAHDSMBPNuECRNUhiTXUUq1EyFPXvgyiyapnd/HZCDYc0Dk+aEi3/4l0qSKSL3y0EDkkOsOTd33xpVFssUyZA66894fI/L1nyIf3u5+H4+Kj2YgSFzAL/FohWf16tUrVffXcDjFQBBJgAm2a9dOs7RinUlrDZ+egOI7ZswYdecnVwMlM42ekQsUBkq0kPE8JQ0EBoMh/eDuu+9WJRy3bEPqBbIbq+UIzA8//LAK0MbvIxcYLvDOI4lpYlbiSO+IzYNgxz6R1s+LPHalyNXkDHdNvmmXyDX9Re65VOTa8HlFo4HWdslLIs91FmlQIbAzDjADQeIBAx9JalnkI3kmiU/TGqx3GJIcWPBhPO+//7488sgjWhYrUlbLDacC977XX39dV/Kod20wGAwGQ1yB0kH2fkr99e/fX+P/CRkzRB4w5nz55ZfqwUi1CzMOJA9oZlraa24+iuQVqVhU5O///AaAWOF+kN3SWKQYWFcnPwaVxj799NM0aRwAZiAwJAtgPMSPU66J7L4MqkhyizT4Jz1ikkmIBZ1SKhbZYDAYDKkbJGz+7LPP1BMNo3OkuNQb/IDfkziZcBAWb+JS6tyQyPDpf2oQ2LhDZP4akTY1TxoO2D9rpcj4BSKj5ohs2ePfH4zjJ0RGzhZ5bIjInFX+33w5SeSRr/1eCYbEBeOGvCIsdj711FMaDpNWYQYCQ7KB3APEJY4aNUpdcqgTbCsLkQE8OsaOHas1ot9+++3ocloGg8FgMMQX8A+Sy8JX8Bp89NFHo5POGlIWLM6QLPnWW2/V0twkcjQkP/5cLDJkssgrw0Ve/NEp9r1FLgkixYSFIkOnijStLFK6kN8IcCxkXY0ogba1RP43TWTlVv++i6qLjJgtsvuA/7sh8UDeAUrcXn311dKqVas0LSebgcCQrGAwkUBoyJAhKjhQvoYs0YaUAcIaRhpWeF5++WVdSUiu0l0Gg8FgSNsgaz8lwEh43b17d836bUaClAPGgUGDBknv3r01J1RaV3IiGc3OE7mhqcitF4kUyOU3FngGgH2HRHp/KtLufMJ0RcoXFlm7XWTuav9xD1Auo9PkMCDwN6TMnUMki1WBTnSwkIacTCLNBx54IM3ncDADgSHZATOqVKmSxibixn7hhRdqVl8TGpIXtDcVFJo3b65ZjKlcQNUQExYMBoPBkFgoXry4fPDBB7pS3bJlS62SZUhewO+pcHXVVVdpWMFXX32lJbpTqoy54SQK5hK5tLbI5xNEVmz271u3XWTrbpFpS0U+G++vWnBNI5HCMVTHzGTaXJLjjTfe0NwDTz75ZIqVbU9OWJcypBhgTC+++KLccMMN0rVrVxk9enSKldhKT0BQwCBDiAcuhlQJ+f7775O9RrTBYDAY0gcIMbz33nu1mhEVDqgbbsmKkwe4RZOMEDmLsI8RI0akuZrtqRKBNTHIkOcckUNHRTbsREYTyeu+58kh0qiiyM0tRbq57YZmIjliSA2FgcBbY6NkYmgoguHsgczMmPntt9/UuIYXdHpAxBoIvNVk79OQNnHOOeeo0EDsO+EGuO/g8m50T3zQphhgpk2bJu3bt5c//vhD3nvvPW13srCasGAwGAyGpAIegzfffLO8+eabuhoH79m3b5/x+ySAx++XLVumXgOEFSBfUZqtUKFCxu9TCPT0Lbv9xoBVW0WOBhT5MoX83gHsI/Hg8s0iA3qI/DLTr+wzRIZN94cT8Pf+gBHAGzp1yols3+svZbh+h8jeQ/5yioHDhrME42j9+vXyxBNPSL9+/aRq1aqBI2kfEWcgOHTokKxevVrWrFmjCW22bdum31nxtNXltAlWFnA7/PXXX2Xu3Lm6urBkyRIdmIbEAeOKMIIePXroCg71qSlDVaFCBauFazAYUgRktoe/s+3du1drh/M3ceq2upw2Ab+pVauWjBw5UvkSXmyzZ882+S4RQbni6dOnqwHmpptukmuvvVZzPtHuFlKQsiC3wOyVIk9fI1KigD+nAJJu9iwiw/q48RElMnquSPWS/uSD1zT2VzAY5fY1q+LPLTD8H5FyhUX++s9dL5Dnu29HkVzZRcbO8xsdujYTmbjQb4wwnD2WLl2qBrbbb79d6tSpk64Ma1FOCYsYLYxH+eKLL+TZZ59VZkFtVlaY2cqXL6/HiGUzpE1Af4TETz75RLfnn39eB6ZZus8etOnMmTM1U/GmTZs0kzQ5H/LmzWvtajAYUhSElWEQJnEa8dEoL3ny5NFwJ/h9elqtSY9gEeiHH36Ql156ST0JEcLNYH32gN+j0MDvqVLw0EMPyaWXXqou0dauyQuMnVdf2VF+7TnZKf2nqlmnaF1ODPMkMd3N/8Ltc/BENn4fOC16H4g+l30hvwF4F7z2c0aR8x6Xp5562vrEGYChDR3kkksuUUNmlixZAkfSByKud1SsWFHWrl2rqwjBHgSsMuMGbUi7QGGFxpQQ+fTTTzVGnr9XrFihjM8QN9BW27dvV+H7xhtv1FWEyy67TCZNmqSTHfWOzThgMBhSGtTKx30z1IOABQKry572QQ1x4uKHDx+u8b3XXXedLFiwwLwJ4gH4PRUi/vzzT7nzzjuV55NngGRqhHOce+65pgimAJCxMmbKJAfCVPJG/IreAvsAf8e4L2gnf+NpELwP8NX7fehvFE6MJj/BOTnOccdCDxo8MKYwWDOW0ElvueWWdGccABE1a9Bh69WrJ8WKFTul87KqQHb1XLlyBfYY0jKgfaNGjTSpTtGiRVWA+Pzzz9WaZ4aC8KBdEKr2798vb731lmYnxsiCwEW1iDvuuENy5MhhTMFgMEQMypUrJ40bNz5FgWGOqlu3rsZJG9I+oH3lypWVx7dt21Z69uwp/fv31wUi4/fhQbuwEaJDCckrr7xSXnvtNS1ZCL/v06ePeQmmMPB8rlixkvT/NUpzCqR0T2Yo7TkoMm15BunQoUNgryEcCG974YUX1IBJxQI+0yMiKsTAA8yhb9++6nYIKCdBjFq1atX0uyH9gO45ZcoUdT+k9ugjjzyiFr30UGIkrmD1gJwdQ4cO1VKFtBPjp0GDBoEzDAaDIfLA/E4sOklTPVGEBQH2XXTRRabgpEPgQXDPPfeoQRtXeeS+bNmyBY4aWASgPDEeF5QqxJBGTXaMKzZeIgsrV66UKzteJm3KLZUbmx2TvDmcPnOWKSAOHvHnHyBJYXzAtEpCxJVbRF79JbvUbXevVg8zr5LwOHDggLzzzjvy999/q7EtPXoOeIhIAwEJCatUqaKlWZjwmjZtKuPGjbPkKukUdFGUYAYruQnwLkABLly4cLpliLQJ44TyhAgKeA/gNdC8eXNdjWFSM2HBYDBEOqhaA78ntACUKlVKFi1alG5XbdI74G0kLyRpMVV2SKTLwgB5qNIzv8fl+ZdfftGFAGRjcgu0adNG83QwVozfRyJ8smHDRvn22yEyfsR3smPDfPGdcJr+WWD3AZ/kcLpq5kzxozMaXqZseaRstVZy9bVd5cKLWps3dgyAF1Hpg3AdPHDhRel5XEWkgQC3KVymqDsJcUhWRK18mwDTN1CCERzIwP/7779rAh5i6vPnz58urKG8P3G6xOwSfkHcJt4UrB5gRCNPh40Rg8GQmsC8RgKozz77TOcvSt6SqNjmsvQNRFNcfVntZKWcPuLF1MPr0jp4f7wFqOjBQgDJHJF1kH/wFkDmsVXg1AFoyTxHf4am8VW7OJ+y1PQDjGbxWdXmXAxIGdx8GuX6i82r4YHeSZgTXrgY4sxAHaEGAh4JKw6xH6wS42JeunTpwFFDegeT7IwZM5Rhzp8/X5llly5dpEiRImlq8vOGJp9z5sxRg9nUqVNVKLj44ou1NCThBDbhGwyG1ArmNwQz8qRQJx9BmFxENq8ZAKGmCxcuVOUI/ocxnORhJLgEaY3ns/33338aZsNKJi7PeApQfej88883o0A6BYmnO3furGUr6f82PyYeWHgkrACvJbyUK1WqFDiSvpHkBgJvwovvbZgYcaEi6co333yjCT/iCgaOtxnSLuhTuKVS6QCDASX8SGiYM2fOJGWiXl9OSP8i4SIhMzFdAyMI7k4IReTkoJoHzIGKBGXKlNFzrH8bDIZIwtny+yVLlqjihzv5zz//rGXZ4gqP19t8mLZBn4IPPvbYY9pH7rrrLi2RSbWLpPQo8PpzQmQK+D3PGNM1MILA76k81K9fPzUQkEgO2aZGjRp6jvVvw/Tp06Vbt24ybNgwVWKtTyQcyNoffviherARym7hFyeRJAYCLknN9TGjR8mChQtl3969cvxE/MrWkMH2++++k/JOYGhyQROJoqZHHMEknDtXbqlcpZK0bXuxFC9e3AZSGgV9Deb7zz//yI8//qgJjqpXry6XX365NGnS5DS3e5L78JsSJUrEuU/gGkbpzWnTpinjphQX10AwwcX/ggsuiHOsEtcaNWqUDBgwQJ5//nldKQNcDyEBQRnjGAlSyDFAgiauj/BMMiLuYX3ZYDBECpi7iIkePWqk1l7ftXt3dILhOIG5z82LuHae6+a4VhdeGC+FD9dZFhAqVCgvF7Vuq0YGmyPTJjw+OW/ePFWS4Pt4EsDvWUzCAyWY9qy6Ersfnz7BPZBfUcaQJ7gGSgT8HuM8VTe4Xlz6KNfCA/b111/XEAnqqfMc7EcWILkw5QjHjx8vGzdu1OuTRwh+TzUvZFnrywYP9BlWuJEhKQOenvNwJQYI2cUgx1jHgwB53trzJBLdQMDl6Lzdu90gdUrtl071j0ix/PHPvJkQUFJkww6Rn2ZmlhlrcstHgz53E/OlRvg0DgSHffv2qSXw7bff1izIzz33nGbI9hJcEr/H8VdffVVdtaiGEFO/oC8Tl0S5kw8++EBDGGrXrq2TMowbIQLX/1WrVsltt90mTz/9tAqq4a7HtTBkYBRAWOBvcii89NJLunLAmKE8Ia6Ul112mfTu3VuTDxE/lpSrIwaDwXC2YF6bNWuWXH1FeymTd4dc1/iIlC4kkjkZp6wTToLZukdk5JxMMnaRm/Nf7Cc9etyaoBVfQ+QDZYmFJAwFhKTiiv/EE09ouCGGAgDfJqExSQ5ZjY8tmR99mWu+//77ypfh5V7Zbfjw1q1b1TDBIgEJgd944w3NCRATv/eUOWQO4s6vueYazR3EMRYB4PcsBFDCmypN3IvntmTchtiATEqeFla7iZWnFLjpNvEDY5CN+YIKeSRAj4+XenpBohsIZjth4d6el0ufthukVbXkNQyEAkPBhAUiL/5WSPq9P0xXYm0gpQ9Q9WDChAnqVYDXAJZBVhioFYxACxPGUo+bIvF9hCUEg2HB75mIqSfcunVr9ToIBedhKCBpIisVTz31lJ4bzOQ5h3uSeIs8At7qGi5iVGQgCRFeLuQUIJ8CAonBYDBEOgjx6t7lErm59iK5ssHZl/BKDGAomL1S5LEfcsm9T3+mCWwN6QMYB1C6Sdy7ePFizVlFzD4Z/1GiMBahgMPvMcDjDRAsC8KjURQIU8R4Dw/HSyAc8ChgxX/p0qVqfCChtmeQAFxr2bJluhjw7bff6vUAXoYYAzA05M6dW5o1a6YeBVRnMBjiA/oUK9940GCAQo40g2jcgczO+ERmf/PNN3Xxz3A6EtVAwKWef+4ZKbrpeena1Ocm4MCBFARv98vMDDIz80PyyiuvmIEgHYH+iLUVNyJyFLCaQBIST0GnL2A1xHD08ccfS8mSJXUfv5s0aZJ0795dk8FQNvBMq/hcc8WKFVpx491331UBg2vhmsgqAoYGLzTBA6sPJOfCZZG4p9i8GQwGgyGSwFzGfLdiRA/p2+G4xCMKMMnA9DpjRZQMXn69fPLplyY0pyPQH+G3LA5QJvOjjz7SHD546AF4a7Zs2aRmzZrK7wlF9Pgt5+MVQNw/XoLw4tiAdwAhAcQukxPBSxrHfvIj3H777WpI8GQNgBGB+2IUYEHCMyoYzzecDejr9DW8T5Av8WK1+e7MwMsYbx5K62IkiMnr1yCSqL2JCXrrlo1SNO/pjQ3jDrfFFZyqv/F/jTOge6lCItu3bXa/j++vDakZDHqYMAmvWJl/8MEHlYF7oD8wWZA1m8mC1QNiaNnuvPNOnUSoEhAXF3/OYcWBJIl9+vTRUAFWJLgOiQVDjQMAQQYBAkMBLow2SRkMhtQESq6WzO87zTigvDrMFldwanx/A5hCC+YSObh3a2CPIb0A/oliX6BAAc0/hPCPEuUB/ktIAquuderUkbvvvltd/AkRvOWWW+Siiy5SL4MzGQcAihiefhgCCBmcOHGihh5QeQtjAV4CwcYBgKECowHPh6GC5zWebzhb4KV6xRVXyJgxY3QjtIb+HNznDSfB+Gfst2vXTj0uKJ+Koc7GYMzI+IxD4O8EAwKMHPGLVMg2W8qde9KD4OARkVd/FnnjV5Efp4ms3CLy9xK/+3+B3CKFHEM/E41+nSHyxHci2dzcXamYOz+wPy7YtDtKZm6vKR06XGGdIR2D1QRcA+mnHnNmg9ljOCCZEB4GJAckJIFJJFx/WblypWzZsuW0TNuci+si8YaDBw/WSRv3Rq7t3ce7J5M734mJJMFSuPsYDAZDJAO37lx7x0vNUic1+UNH/bz+dcfz4fcrHL+f4vj9eMfv8+V0/N7x/DNNd2PmiDz2DYqYSNXTI7tixa79UTJxTVm56pquOsca0h/gpxj+CTEIx+/5nDlzpvJnDPUY6FlECLcYQOUEwglCE8LxN55/KPvkPEL5wKMG9+/g+7B5/B7ljUWE4OsYDGcL+hFyqOeVQkz9X3/9pZUvCI31zknvQAbHeEIeErwtyD+G7G2IHYkaYgAR7rn7drk4z6dyUXWUosABB+7y6BB/jOJznd2N3b6NO0W6DRS5qYXIdRfEnq+Ahd9b3LlNzxO59UI6feBAHDBndQb5eGlX+fiTwSYwpFPQN1nNJxkgLkVMpjB3Yo8wBhAHyEb/4DySBIbmJQAMl7Fjx2rYAtbbcJMvQgBJELG91a1bV2us4qmA4MAqAvGSfLKawb05x2AwGFITmAtJ5lZk/VNyQ9NTqxSRD+CZ7/15gJ6/jkoDTtHaI9L9fdFcBTe39O+LDXd8JFKtpEjvSwI74oiVW6LkuT8vkq++H2UJXtMxyDdEuB/8ng1+f+6556qnH1u5cuV0Nf+GG25QT4CYSmsSfoBygZdBOPkR2YKqRCgdlOaGr7NIAL+H9/Pd4/t4HZB7wJQ2Q1KAxS2SXyKjklvr6quvVu9YEnanVzDuPv30U50LqFRAu9j4ixuS1UDw5Hd+I8Az1/oNBAgRb/0mMmSyyIjHRM7N7T83HDj3oS9EzithBgJD/EE3J1khir1nHEBo8JIJehMG1kVKDRJeEG4SiYuBgHPwVCApEWELnBPbMLPJymAwpDYwp8VmIHhxqMiRYyLPdj5pDHh3lMgHY0TGPi1SOI9/X0xgQYEKSL0vDuyII8xAYAB4+eHqD7/3Ni98wOPJX331lSoPxG8HJxYOxpkMBICQQhKfUXqOc4zfG1ICXr/DyxU5Fa9Z+vX111+v+TXy5MmTbvofbUGeEEJ8CTVmwQ6joI2/uCP5tOVgmrg+TDc+dtzvRVCyoEjOk0lg5cBhkU273AS/B3dBCB04EABfdx9wE/c6/+85vtmdP3+tyJ6D/nMMhmAwKZCEkNKBKO6EAuBWCDNn8yYNsg5TXSC2SSQ25g/4LZ4BVC7wzmVfTJvBYDCkRXgzJdNgML/PlS2w322EICq/3y2yE37vP6TwZkf4+uL1Iut3+L9vducudPwf+cBgCAe8BapVq6YVDfAUQEkI5fc//PCDrrDGZkg6E78HeCJSPcFDKI8P3gyGpILXx1CEb731Vvnpp5+kW7duWl6TEBpCEKZNm6aVs0jgHZe+nRrAe2CgGz16tOb+wHuHxOSE81AhjNKleAjb+Isfkn05ffU2kYmLREbMEvn4D5Hi+UUG3CKSPWAggPE/9KXIOicIbN8r8v4YvzEgFHudwPDCjyIf/O4XPqiD/NR3ItOXnSpgGAxxBW6Bu3bt0qSBwcAKSdkib2NVgmRDwftI1oUHjQeMD+ESExoMBkN6wdrtjt8vdPx+tshHjt+fm8fx7J4iOQL8nrCDBz73nwe/x7uAfaHYf0jk9V9E3hnp/845LwwVmeRkCZthDWcDePPy5ctPCy0g50Aob9+9e/cp+9auXXtKEkJWafEqNBgiBSjDhBZ07txZy2vjKYOx7I033pBOnTpJr169dEEMz1pkV8ZDcsur3j0Jw1mzZo3MmTNHxyQhud4zxQWMWTx8CKnAc4KKdXgOkIi0f//+YcOFDWdGshsISru5uEVVkcaVnFLv5tNMGUWK5vOvFKBffTJWpHwRkTplRSoX8x+futQdDOonnIvrYY1Sgd1uR9WSItXdZvYhw9mCWCUmJJIOeeA7VlgmGTYmV5IfTZ48Wf/29v34449qkfXAigTXMxgMhvSKUgX8/P6Cyn4DACju9gFkvy8n+T0K6pUXqVJcJO854ZV+ZATl94EDJC6sVeb08wyGuIJcQfDoYH4PJkyYEM3b2b777juZO3eu1kv39hGawIKCB7wS0tKKrCFtgdAaynr27NlTjQLIsPXr19fkmiTjvvjii+W9995T4xeLX54sHFcwljCixec35OVglR9DBR63tWrV0koiPBceEIRF/P7772osiA14Q1CZgHN5bkJ/p0+frnL7lVdeqWPTcHZIsZYjm/HNLUQ+n+gPDaBbHT4m8u9qkXOyikxb6t8K5GLy9f8mGBgCMB4YDIkFsr6i2JPV2ANWWFy1SPzibeQnaN++/Sn77rjjjui6xoAJ08siazAYDOkZKP63tBL5YYrI3FX+fUePi8xb4w83mLbEz+/5m0pF4Qz9p/B7WwkwJBCs+hcqVOgUfg9QMIJ5+z333KNlEzEQePseeughzWPkAW8Cq6duiHTQPz3PAvJuUPGA6l0PP/ywGryI08ctH+Wcct1U5UCJZ4zE5mWAQo6RgRxe5OyIzVDAMcJvCX2g9DgKPCv9rPpjmCO5aN++fTWhZ79+/fRZRo4ceVrZUK6Ddy/JQefNm6fH2YcczrMTVmTjMWFIPgNBSH+BbDmdMJDZMf2/FkNs/36EA8IOGlQQaeg2jAgXVXcHwtA5dNexE6fdxmCIMwgLILsxsUzBQJBg0mHjHKyxGBL4O3hf8GTEZIvrok1QBoMhvYNZ8BzH77NkEpm00L8PZHX8Hm9A+H2DiiJdmopcfH7gYGxwjD5EXjQY4gV4c82aNTWEIBjwe4+3s4Xye29fMG9nNdQWBAypCfRf+jW5ucjsj1JNroKff/5ZXn/9dVXQ8ZThWNmyZXV1//nnn9cE3Dt27NAKHXjNsBhGks6pU6dq9a46depIjx49NHSBY8HGAv6mvCihALj9UzGsRYsW6jFAXjBKD+bOnVufqXHjxnqd888/Xz//97//RYfxch1CEvA2wOOH+3ggTJh3CL6v4eyQbAYCEhSRaGjHPpGjAVoSh1gkj8islX4DweTFIlc0EPnuLzfhHnUd2D3duu0iy9HX3HFWHLiOB+opbw8Yf8mavHKzyL5D7ov1C8NZAk8ALKCh1sr4gIkJqysTnxkIDAZDegN8eneA31PJAGTP4vi906H+We7n9+Pni7SvE+D37hwqHWzYKbJko5+Fcw14vge8Cb0wBfj9UicXkJvA+L3hbABvRvH477//VME/W8DvkRkaNHDCq8GQSsF4YDUf4xcu//fff7+MGTNGXfgxCtx1111qJKMyQvfu3eXaa6/V/AaUCP3666/1GijwGA7wPKhdu3Z0aXHGF+MEzwFkbLxwW7durQaK2MDz1KhRQ/MJYHwgbIDrEApBeVI8CIJldc/oQb4FntuQMCSLgeDAEZHnh/pDB/AaGDTeMXY3H2Mg6HeTEyCOirz5q0ixfCId64k80N6fkIiERXNXi5Q5V+SnGSK//yvy2QSRKUvpCCJXNvS7HZLI8DN3zYpFRV78UeS3WYEbGwzxBO5MJBfEChkbYlP8ccf6999/NbbLDAQGgyE9AX7/2k9+78DcOfx5hUgqjHfgC9f7DQHwdzwHLqkt8sTVIq8OFxno+Pj05SLlCvt5+Mg5Il//6U9qDC6r45ch3hvtlwPg91xn+D9mIzDEH/Dmhg0bamgAJRHPFqyiokixwmr83pDWwKo+njas+uP6/+6772peDnIZfP755xqCg5Ie3Pf5TuLAQYMGaR6AypUra54uDAYY0urWrRuvsUJyRe5/77336n3r1aunoREYAzAisBE2QdUSQiSo1hCabNwQf0T5MMckErAe3XP37XJxnk/louonXAcIHHDA4h8MjnGY3d4T8J39fPdO10sETvSugYDhXTv0upyn1w4cB3NWZ5CPl3aVjz8ZrB3JYIgJDAdiDLF6MtHgThgKwgeYAHGFCgXZWD/77DMVPF544QV1VzQYDIa0BubKl156SYqsf0puaHqygouyZPc/jzXDij1+fApvh0+7T76HkwFC+b1+df/jM/h3wfIAWLklSp778yL56vtRZ1yhMqRv0IdRdgYMGKCrosF5BTyw+glfDxdCQDm1oUOHaqLDwYMHh5UXDIa0DGTh5s2by99//63fUfw95T9PnjwaPsDGeYQm4HEQTg9jLBLigCEAo10oOI4HAckQKVlYpkwZ3ShjyEZZU+b74PvHxwhhOB3Jpi3DxIM3j2x8Ru8L7OQzeB+7+czonpYtmObeedFbyHGDIT5gQiF5CoyfySg4tskDk1c44wAT2KRJk3RSfPLJJ804YDAY0h1gv/BgjycH8+NT9nv73BZ6Lp+h/J4P7/feZ6g8EAwTDg1nAn2kY8eOqnAMGTIkbKgBSn844wD8nrJseB+wqmrGAUN6xapVq1Q5JwSB3AGs4FNVgHwDJBjE0wCjAPkMYlqkZTxhQPDyDISCsYohAgMBi3gPPPCAXHXVVboYV6JECb2351HAuTb/JxzhKXWWgCB58xWQnfvV1h8x2LpHJHeefIFvBkPsIFkKbkyUV8EtClcpJq/YwMTGb0icQibWcBZQg8FgSEsgCzz8NVI4Ps9BrqOsOSxhnCFuwIV64MCBugKJkYAkxWfi93v37tXa8iwIvPPOO+bObEi3QCFnDIwbN05LJFIZ4dlnn5ULL7xQkxvCIwjDIU8HlQUSAhIbsmhHCO+Zxqgh4Uh0A0HbthfLJxNz+YWGFKYft9+0S6TfiFyus1p8mCHuYFIj0QouTGR0/e2336LrvAZv7CMcAaMAqxBkfWVSNBgMhrQM+GnTpk3k14XFZNmmCOD37v7kOnh+WBZp0ry18XtDnIFB/4MPPtDEwqxOkjF969atp/B6NsILMQogE9C/fvjhB82ybjCkVzAOWMlv1qyZKvChYNxQ5QAPm9CFs+CxFfo9eL8HEigWLlxY/vzzz8AeQ1IiUXMQAFy0Xn/9Nfn5u4+kS70NUsfpStmy+NQdMF4Ifax4MHt+evBIlPy7WmTIjCLSukM3eezxp8wFzBBv4O5E5lUMAIsXL9ZEKLgyYTXFKnrgwAFNoELyFGolW8yrwWBILyCudPCgT+S9d16RTjXXStMqPskBvz+bpQeP58dTsednh45GydKNIl9OKyCV6naQ1/q9ETYMzGCIDfB7MqRTi53wAXg9+QVQgli5xECAgkIm9nbt2ulxg8EQM1AxMbhheOvdu3d0iAHJvH/99dfosB7OwzPgvPPOO2VctW3bVnMMAM7hN4xBxmhM4QqGxEGiGwgAE+ncuXNl7B9/yL+zp8qRAzvcBBu/2/BUS5b8J7ly5ZaiRYvGS2bwSZRkyZ5PqtaoL23dJI6F1+LBDQkBgjBlUyirQpKVK664Qi699FIpUqSITl42URkMhvQIlCrcR+H3M6ZPlkP7tjoOHD6ONDasXr1Gr1W2TBknmQR2xgHICpmy5pYK59WRNm1aS4MGDW0xwJAg0A/JLQDPJ56aJGs33XSTFCxYUEqVKmXypMEQR6Bi4oH74osvasUDbxENw8DSpUtPyfM1bNgwufjiizXsB2CYwyPXM/ZyreHDh2sZxmeeecbk7iRGkhgIPCTk0vwWi9P69evltddedR3h7FZmzc3QkFjASECMIhPdxIkTNWbR+pfBYDAkjN+Dn3/+Wb795hv5/Isv1JX0bGDzsSGxgJFgwoQJWm/9jz/+0BJqBoMhfoAvEGLQpUsXTSzoKf+hYLyRy8CrJhJuLuccqoQxJqkyZvN90iJJzS8Q72w3LEOdO3eWefPmyZ49e8OeE5fNYEgMMMlh3WRyoiwSLk7WvwwGg8GPUN4b361Vq1aydds22bx5c9jjcdkMhsQA/J5ka88995zmFapatWrgiMFgiA+YlytUqKBeXST3PBNim8sPHTqkuUGohmDzfdIjov0zCC1AEWOiTujqhMFwNqDf4Qr1ySefSN++feXVV1+VmjVrBo4aDAaDITFAgqv69etr5RhWigyGlAAljnGJZpWyT58+mo3dlBGD4exBTgHKEVIO8Wx1OX63c+dODevFe9eQ9IhoAwGTMslgqCm/YMGCwF6DIXnAhEQc4kMPPaQljfAgqFu3rgkLBoPBkMjAa5A4b2pmk6XaFgUMyQn6G4nTXnjhBS17+OWXX8oll1xi/N5gSARcf/31WgqRMRYOjDMMxDEl/sRw9/3338u1115rYzKZEPEGggsuuEBjTch+SY1NgyE5wAoW4S3NmzfXienrr7+WGjVq2MRkMBgMSYQqVapo8qm7775bVq9eHdhrMCQtMA6sWbNGM6ZTvYCwAni/8XuDIeFgHDVq1Ehq1aqlYbrI1KHgHCqBhUswy/gkRw15wDp16mTjMpmQpEkKEwt0imeffVZWrFghr7zyimaNtw5iSAowHNauXSsffvihTJ8+XXr06KETkmUtNhgMhqQHc/C7774rY8eOlZdeeknLXhm/NyQF6GvENOO1MmrUKOX1JEljFdP6nMGQuCAHwZ133qmfVAKjbPiZxhnGhDFjxsimTZs01LdkyZKBI4akRqqoEUFZjMcee0zzEVx99dW6spAK7BqGVAT6E14Do0eP1jIr5B344Ycf1J3JjAMGg8GQPEBgJLSwZcuWKkRSMtn4vSEx4fH7mTNnahgB3oLffPONljBmBdOMAwZD4oPqBAMGDNDPl19+OVqXi2nbsWOHVjagHOJHH30kJUqUCFzJkBxIFR4EHnjUDz74QONQbrvtNunYsaNaoAyGhAALJd4CeA2Qc4BwFowEXr1Wg8FgMCQv4PdDhw7VcsckjCOGNW/evIGjBsPZAcMAYQSffvqpGgYwCrDwFM612WAwJD5YgCPHx7fffitHjhyRihUrSsGCBdVzB3l89+7dsmTJEj126aWXSq9evSRPnjyBXxuSC6nKQACOHTsmixYt0hjFMmXKqMEgW7ZsZvE1xBt0fQwCZCqeNm2avPjii1o+JaYarAaDwWBIPhBeyCrTgw8+qH8Tv5ovXz6bnw3xBvx+37598sQTT2g8M16pV111leTPn9/6k8GQzMBQhyFgw4YNmgR84cKFmpy2Tp06WlYUz56yZctKgQIFbLEuhZDqDASARyaGhfjE8ePHS8+ePeXKK6+0id4QJyBo4rL03Xffya+//irt2rWThx9+WHLnzm39x2AwGCIMBw8eVFdTwr6uu+469SYoVqyYzdeGMwJFhASEVCEi2TCJrx999FENWaVyhsFgSFkwRtmY19977z31JmBut/k9ZZEqZ0c6Dcrcc889p3Epf//9typ5P/30k3oYpEKbhyGJQZ9gw1rJahQuq4Sn4OJE1mzcl2wyMhgMhshD9uzZdd4eMmSIzuGXXXaZDB48WF1Vjd8bQuHxe2KYkRNZQNq2bZsmI+zfv78ULVrUjAMGQ4SAsegZBPjb+25IWaRKD4JQYHmaOHGiKnoYDsiS2bBhQ3VNMRg8jwGSEGFEatq0qTzyyCOW8MRgMBhSIWbNmqWu4ocOHdKEhpSkY0XYhEoD8iBhKT/++KPyfNyVCSeoXLmy9Q+DIUKBnI4HwcCBA9WDwJDySBMGAuBZi8lKSw1bXMqIL7vxxhs1sZExhvQF+gPbP//8oxPOunXrNKklOQYqVKiglQmsTxgMBkPqA3M7YYZUOEAJJNkcNexvvfVWKVKkiM3t6RAYBshPBb9fsGCB8vr27dtLlSpVrGyhwRDhMANB5CHNGAg88DowCpLOkaOAmvbUtiVLLfUzzznnHHMtS8OA9giO//77r8asIjB06dJF7rrrLssxYDAYDGkMnmJIktnZs2dr+AEhZCQxJnTM+H3aBfIeiQfJeP7+++/LX3/9JZdffrmGoxQqVMhobzBEMBi/W7du1fAf/n7ggQfk6aef1kXdnDlzqs5mMnvKIc0ZCIJBuYzFixfL2LFjZcyYMdrRKJnRoUOHaPdy63ypH14X3rRpk+YUgNaEl7B6gOsp8YZGZ4PBYEi7IP8QiuKkSZNk9OjRaigmNxGeY3iNwQOMD6R+ePyeDOiUvKYiASUK4fctWrTQzOdGZ4Mh8sFYfvnll+Xxxx8P7DkJ5m3ChMzIl3JI0wYCEPx6uJs/++yzWvO+WbNmWu+ekhokq8ucOXPgLENqAbSlTur69eu1VjbGAQwCTDgIhMAEBYPBYEg/8Hg+eWfIS/T777/L+eefr15kKJB4EeJybkh9gN9Tmvjjjz+WDz/8UGrWrKmeonXr1tXjxu8NhtSF//77T6pXr64GXg+M408//VRuvvlmG9MpiDRvIAgGr4o7IvHoVD4gsSG5CohZbNy4sZa/IZENNTetU0YmoCHbqlWrdJUIGjKxNGnSRFq2bCnVqlVTY4/Rz2AwGNIvPF6B+yr1tdnwMMB9FV4Pz69Ro4bxiwiGR0O8A/EMxBt0165d0qhRI+X3GAbwHjD6GQypE3v27JGLLrpI88cx1gFev3iCeQt9hpRBujIQhAJjAWEIEyZM0NqbfBJ6QKKjm266SfLly6eMx2M+xoRSBp6QALA24gXy22+/SatWrdRbgCREVhbFYDAYDDEBfk8irBkzZii/h4eQo+CWW26RHj16RIeiGb9PWXi8nk+8A/EQIBElxpzXXntN6tevb4s4BkMaAXMyuQcGDBigY55xTYLRH374QfOGGVIO6dpAEApc16ZMmaLbwoULdR8WLBgTK9OVKlWyevnJjIMHD2poyOTJk/WT7koYwSWXXKKGAaOFwWAwGOILVqJJZgy/pxoCiwWlS5dWfn/eeecpzyeXjfGY5AM0INEk/H7q1Kly4MAB9Ra4+OKLNRzU4pENhrQFZPphw4bJddddp+OfCmNPPvmklrG18Z6yMANBCGgOVhoOHz4s+/fvV7eXESNGaCIcLF1Yr6mKQLJDLyu+CRCJB9qfDWMNMYafffaZZjMlFokJBIHNcym0djcYDAbD2cLjN/B7jNHkLfAS38H/a9WqpUmN4fmescD4TuICeYuEkoMHD1aeT8gg5c66deum4Z/ZsmWzdjcY0jAw1jLWmYfxDsLLi7nXxnzKwgwEZ4AnQMC0Zs2apVZtLNy4vmEgoAwHKw5kzi1VqpQUL17cGFo84LUvEwQVJ2hj8kNQ+oQVHFyN8Biw8pQGg8FgSEp4/Aildf78+epdwCLB6tWrNZkx/B1+X65cOeX38H/2G7+PG2hbQGlCwgXx3IDf074VK1bUJJLEI2OMMX5vMKQfdO/eXb744gv13pozZ44aCgwpCzMQnAVwg6HEDhvJ8kh+RGUEGB4JkPAyQKnFNQ6XRU9wCBYgUlqY8AShcDhbYYfrnel33j29T1w8hwwZIuPHj1dPAWpYU8cYwYu2tEnCYDAYDCkFFgdIpAW/Z2EA93f4FgYEjAO1a9dWfk/SQ5RcT7FN6/w+rgi+N21GPoFRo0bpPVu3bq3eGWXKlFGjgPF7gyF9ggSyVDMYOHCg5oEzpDzMQJCIwCqOoQCLOJZxhAmEBVYdyGWAywx/FypUSJlhYijAuORQsik+DH7Hjh1qoSMpIwyb1Xq6Ac9FFQcs+DzrueeeG/hF7GC1BUMJLppY/2Ky/ONGSNWIlStXyrhx4zSnAPFGTZs2VaMAMYZ8NxgMBoMhkgHvxRUWr0K8DNauXavGhGLFiqmHATwULwP4qMfvE1pOmTJ/8Mj4rK7Dd5FHyAqOhx5VHVjkyJ8/v5QvX1699DzZJK5yBLIN10Ggj0mGQR6gYhSyAbIGchFthiEFfs8n4YIGg8FACDfhXJQ3LFy4cGCvISVhBoJEBs3JhtLMqgOu82wIDzBnvAxWrFihgwGhAYUcl0Xq+aJc58qVS68TF6s+97jttttUsb/77rtVMIntN5xP5mYyASNgsPKBUOCVeUL4oJwQIRQw8vvuu0+uvvrqGIUR3pMkQlzv22+/1efnkxALrx0wmiAcjBw5Uq+LQEBN6gsvvFCTPvLMvHNc3tdgMBgMhkgBPA7Az+F1Hr/fuHGj8vtFixbJ8uXLlZ9iIIDnoVR7iY/jUymJez3yyCN6n3vvvVcXHWIzFHA+IRJU/cFIAN/Fo9HL4YORACWfxQI+cfHt2bNnjEYMrsdv3n//ffnoo4/02X/55Rf95Bgb7/nXX38pv8dwwn14XyoOVa1aVfk97cBzx/auBoMhfYH5Ay8t9AHzJIoMmIEgmeAxUDYUdWLu/v33X5k3b55+Ymk/dOiQFCxYUFcfsOxjPKDsIq73xOB7m+cxgFDCeRs2bFCme9ddd8m1116rvw+tDQxjp7QTpUSuuuoqNQ4wCMMxaZ4Pz4Kvv/5ahYaHHnpIsmfPHjjqf5ft27erF8Bjjz2mKwT8hufFQIAAg3cA3hQISFR+oGYxiR1ZqUAAic8KiMFgMBgMqQker+cTHg2f93g+PJMkiKzi414PH8d4gAKPgOzxeni/x8u5VpMmTdTwAD8mcS/8GUMB5wbzcs7FlZ9s4O3atdPfeQsBwfBkEowYnI8i/9xzz6nS74HjLHag+JNZnHfg+ixwkMwRXo7xH4MA78YCAfcjXJBwS8vJZDAYDKkPZiCIECAsYMX3NlYg8DTAlY+QgJ07dypThnFTrxkjAMYD6jdjWAAwYI7BnKntTHwf7oiQ+OWXX9a4PwwIcXXf4b5kdOZ6rEJwfe41dOhQ+eCDD9StkhUDrwt54QIIOxggKEOIwEM+AXMlNBgMBoNBlI96vJ4Qv82bN2voHZ6G8F02eCv8Hn4Nv4eXPvjgg1rhxwNKOq76Xbt2VfdclHFAXp+33npLrrnmmlPyIMUGDPvDhw/XRQr4OwYFFhZGjx4t77zzjuZd4ByP32MYqFevnvJ5DP94RBBSwf3IzWAwGAyG1AszEEQYYiMHq/as7LNhqSf+Ect96G8QBvAOIEki7v+sXtx+++3y9NNPhzUOYHgA4Vb1EVReeuklXVVAAOjdu7fel9+Ee1ZWGbivJ5DERTAxGAwGgyG9ITZ+T1hAML/nk3C9UHj8nhC/N954QxX7K6+8Uh5++GE1LITyYO4J/w7nxstCBdfo3LmzXHHFFXqN33//PSy/R17AkMAihfF7g8FgSFswA0Eqg0cuPmHcuO17Cj6AQXuKPisBKPWci4s/IQDhGPiCBQt0RaNu3bqBPadi2bJlGmtIrgMyjZKnAOHFuxeJmbgH3/v16ycPPPCACQoGg8FgMCQAwfyesATCCbx9AD7rbYQZUkUBvs8qfrNmzcLyYfg3PJ88QKHHuTYeDSQKw7hAiCDnExvMMYwKHr+H9+Op+PHHH4e9j8FgMBhSLywQPJXBEwZgzsQNwrCJR8ydO7e6GxJvSJ4BkiHirshqAMp/TMYBGD1ujggBwYJHMAgZIBYS7wFWMRAgMBSQo4BkSYQVIJQQO7lw4cLArwwGg8FgMJwtPH7PRggCn4TrwWsJP8AI8Oqrr2qVAjwFyQkALyfsIBy/B4QJYGwIB37DQgCGBqobkMCQ8AfOJ7Swb9++WuWIygw8w+LFiwO/NBgMBkNagnkQpGLgzj9+/Hhl5sQB8hkc+4dnQZ8+fTR/Qdu2bcMKDJCf8kcIDXgjxCRUEH+I+yEZjMOdw6oCAgrGCgQMg8FgMBgMCQd8eunSpZpbAC8C+D1JDVkYCMaHH36onoXkHoiJl+MROHHiRE1wGJNMwAIDOYaGDRsW7ZEYDGQLDBF8kgvJYDAYDGkLZiBIxQglXSizp8pBgwYNpH379lpiKCZhIC4GAhImsoJAZYKYzjEYDAaDwZD4gFezefw3HB+mLDEKO4mFY8KZDASARIgkOcRDgOTDBoPBYEhfMANBGgar+lQQuP/++7WUkgfcBqmS4JHeq9OMEcEDLoTkJPAECLwD3nzzTTUUhEtuZDAYDAaDIeVQp04dueSSS7SqgAe8AeDxHggpxEhAMmEPlCJu2LBhtDGAsoZUPvrzzz+lWLFius9gMBgM6QeWgyCNIziBIcAogGfBkSNHtIQRG9/ZvO/evlDbEd/Ne8BgMBgMhshDuPUeZIBg3u4lGQyWAdhnMBgMBoMH8yBIw0jMEANWIAgx+Oeff8xIYDAYDAZDhCGxQwxIOpwlS5bAXoPBYDCkF5gHQRoGzL9FixYaHpBQbN++Xd0XDQaDwWAwRB5at24t69atC+tJEFfw2x07duiiguUfMBgMhvQJMxCkYWAg6NKli5YkTAgQGKibfOWVVwb2GAwGg8FgiCTgQUB+IcIGEoJFixZpLgPzFjQYDIb0CTMQpGHA3CmHdM4552hywXCrCpxToEABTUoYkzBA/eWDBw+ekrTQYDAYDAZD5CBfvnzK8wkFjAmUQi5VqlTg2+nYtWuXLirgjWD83mAwGNInzECQxoFxoFu3bvLee+9p9uJwqF69utSvXz/w7VQgLAwePFg9ETAiGAwGg8FgiDxkzpxZbr75Zs0XtHr16rCLAlQlaNOmTVjlf//+/TJo0CC57LLLpFy5coG9BoPBYEhvyPiMQ+BvQxoEQkDFihVVcPj666+lWrVqki1btsDRmIFgQelDjAMdOnSQu+66y+IRDQaDwWCIYFDamI1FAXh/zpw54+QJQFjCN998I5UqVZJnn31W5QTzIDAYDIb0CTMQpANkzJhRPQQ2bdokAwcOlNKlS6vQkCFDhtMEAAwDlDxas2aNZjFu1aqVPP3003EyKhgMBoPBYEg5wNdJMAjf79evnxQuXFjy5s2r30Ewz4ffU+0I2eD9999X2eCdd96R3Llzm3HAYDAY0jGszGE6Ah4Bv/32m7oQEjpArGLZsmVVeEAY2L17t6xatUoTFBGniKviVVddZcYBg8FgMBhSEVD8x40bJ5988omGG+AZUL58ec1TgLFg7969snbtWi1lyLk33HCDXH/99WocMBgMBkP6hhkI0hm8FYPJkyfLBx98IGPHjtW4Q5A9e3Zp1qyZhhO0bNlSQwpsFcFgMBgMhtQH+D3b7Nmz1UOABQIMA4QTsAhA4uFevXrJpZdeKlmzZjV+bzAYDAaFGQjSKTzBAUGBFYbt27dL3759NVcBQoIJCgaDwWAwpH54/J7FgQkTJsiQIUM0R4GXZ8D4vcFgMBiCYVUM0ikQCIhVzJIli+YjYOPvcHkJDAaDwWAwpE54/J4FgDx58qj3AMYB4/cGg8FgCAczEBgMBoPBYDAYDAaDwWAwA4HBYDAYDAaDwWAwGAwGMxCkW1DKcPHixZrBeP369VrmiL+pYECcosFgMBgMhtQP8g8sWbJEFixYICtWrJAdO3Yov2c7ePBg4CyDwWAwGPywJIXpFBs2bJCmTZvq3/v27ZMTJ05oeSM+J02aJKVKldJjBoPBYDAYUi9IRly1alU1/h85ckQrGRQoUEANB4MHD9aqRQaDwWAweDAPgnSKwoULq0Fg1apVsnXrVq1iwN8kMSpRokTgLIPBYDAYDKkZlCyuUqWKrF69Wj0G9+zZIytXrtTFgQYNGgTOMhgMBoPBDzMQpFOQvbhz5866guCBbMbt27cPfDMYDAaDwZAWAL8PrVjQqlUrrWZgMBgMBkMwzECQToGg0KRJEy155AFBgbADK3tkMBgMBkPaQe3atU/xDsSroHnz5sbvDQaDwXAazECQjlG5cmUpU6ZMtICQP39+qV+/vgkMBoPBYDCkEcDT4fXlypUL7BHJlSuXNG7c2Pi9wWAwGE6DGQjSMQoVKiT16tVTAYGtVq1alpzQYDAYDIY0hnPOOUfatm2rngPw+6JFi0qNGjUCRw0Gg8FgOAkzEKRjICR069ZNP8lJ0Lt378ARg8FgMBgMaQmdOnVSXg969eqlSYkNBoPBYAiFlTlM56CsYcmSJfVz7dq1urpgMBgMBoMhbYEyh23atJG//vpLdu7cKTly5AgcMRgMqQ6ob0eP+j/ZosKEC2EQTCpDoJtP5PgxkUzu+gHDY5KCd3S6it43GOgtvHu49zecNcxAkM4B+R955BGti/zuu+9Gry4YDAaDwWBIO4Dff/311/LVV1/JiBEjjN8bDKkYJ3bulGOffSrHJo6TEzOmS8YL20nG888Xn1OgfVs2y7Gxf0iG5i0kx5vvJL7y7OaSI999K0eeeVyyvPuRZGnd2r8/CXFi7Vo5MnCAnDh6XDKVLCmSPZscX7JEorJmkcw33yIZK1UOnJmyOLFunZzYvl0y1ayZqo0WZiAwyOHDh/Uza9as+mkwGAwGgyHt4dixY3LkyBHzHjAY0gKOH5fDzz4hR997S7K8+o5k6XGrf6Xd7T82baocfn+gnPPVkCQxEBybPFkOPdpHsn/6uVPOKwUOJA1ObNsmB1s0lgzNmku2t96TqCxZ9J18Bw7IgU5XihzaL9m//kEyFCsW+EUKwbXL0dGj5fjqVZLttttTtYHAzMcGNQyYccBgMBgMhrQNwgjNOGAwpBGggKoSGvh024mtW8V35IhkrFFTorJl85+H0QD3/OBPNg/e/jMd8447ZLrgAsk58U/JWKGCfg97De97KLzjbMHfwwGj5isviG/PTsl0dWeJQl/B+8m9a9Q550iWx58S34J/5cjgTwLXCdwzdAt3ffaFOx66P/h48LGQ/b69e+XY/74V3/59px4DMf0OeMeCz4npt/wdfCyJYB4EEYhQkpBEMD7g9/H5TXzPjwu8d4jtumd6z+Djif18iY3U9KwGg8FgSL0IYZ2O5wT+SMfw2uRMbRHadsFIiXbkeYx+hrOGUxjVg+BdPAjelizde8ixH/8nGarXkAyVKsuRYT9K5osvkcPPPysnpv4tmbp0leM7dolv0QLJfNsdkrlJE/EdPiyHXntVfFu2iBw4IFFFi0rWBx+SDPny6fWP/PKLHJ84wendJyQqY0bJWL26ZO56oxzs2F5k3x7JdO+DkuXqTnJ8/nw5/OC9IocOSuaX+8mx334T35rVEpU3n2R78SWJyp3b3+G55tg/5MTixZKhREnJUK2qHP3+e8nUspVkbtYs8GIncWLzZjl4bUeRTRsk24jxkrF8+cCRAI4elX0VS2sugnNmzpPDzzwpJ2bPkgwXtRafZBTff4v0nMy97vZf3wutcvsOf/ONHB831v19xLVZTcl6zz1qVDn8Rn85PuIXyeieyVewsJyYPlUyd75OMre7WI78NFyOjRnjv86unZL59jslc/PmcmzBAjny8ANyYsYUiSpSzLVjCcno2inrTd30vTHcHO7/usjePeI7dlwyX99FMrdsqY9y5PPP5NiXn0kG925RzVrK8bFjJdNFF0kW93u8JA69/JJr10Pu7/0iWbJKtr6PSAZHp6SEeRBEGEgUOGnSJBnrOse4ceNk9uzZcvDgwcDRM2P79u36u3379gX2xA6SFnG/VatWBfYkHFyL+Eae44Dr2OFwyHX00aNHy88//yxDhw6VadOmqeujhz179ug1hg8fLr+4yWnNmjWBI5EHjANLlizR5504cWJ0yIbBYDAYDIkJJ2/LpAkiY518OvMfeKXIP9MCB9Mp1q9z7TFaZPzvqt/EiG3bRH4fKTLyJ5FRP/v/Zhv9q8jkiSIbNwROTCYsXyYycTxhnoEdBsNZwymgCxfI0e+GyOF33xQ5dlQVWBT3qBw5JMt9TnFdtUKODv9RMjll1kn/cuTdd/SXR8ePk+NfD5asd9wp2d92+xbPl4OdrhDfrl3uNyudov+zZO/3uuR4623JUKeu+DZulCinjGe+/0E5sXaV+Hbv1utkrFxZMjRpJicWzZNjTh7O1qev/74jh8nh9951j3hCr3ngxuvl2JCv1HBxfMrfcui6TpKxQQPxzXYTWmgCQrB3r/icbiMZMkpU9uyBnUFAUc+TV2TnVvE5fSnLw4/IiZXL5fiw/0nmK6+UHF9+LZluvEkO33KDHP1zkt9I4bZDL7/olPLBku3NtyTH51+4554vh194Vi12mXvcKic2rJNjf4yWjFWqSFT+fHLk4w/lxJYtcmzAG3rbHO++J5lvu10Od+six//7TzJVqyY5fnMTSrYckuGWnpJj1O9+44DDMafLHWjdQjLWry/Z33tfsj72mBy+61bXLgP0nTNfeZVrwIyuPf6UqFy5JMN5VeToZ4P02JF+r4iUKiXZX+/v7jlQ6Zkck4YZCCIEVBH44osv5IorrpCVK1dK4cKFJXfu3PLBBx9Ily5dVOkOXXEPB5Ttq666SpXquJz/n+vUV7oB9Nprr8Xp/LiAFfS33npLHnjgAceQHUcOg4xuIFCHefLkyXLTTTdp+aU5c+ZEPwPll2iDfv366d/UcD4T+O2YMWNk/PjxifYucQHvS7Knxx9/PDrho8FgMBgMiQVYGoaAh+/zrzgXKSqyzCmYd3YXeeqhwEkOnIfMuXhRYEcywIkvMugjvwKeEkA/+Gm4SJ+7RbbH8gx4Jp9bRORe12YvPilyTi6RosVE8uYXGfGLSNeOIqNH+dswqYF8/86rInfdKPLv3MBOg+GsESVRefKo10BUYVaWA24pgc6coVAhkZyuw2fJLJkbNpRsz73sFE6/opu5aTPJ/s1QyVC2rCrgUZWrim/tSjm+erU/4eGkcXLwwfvlyMiRkuWyyyTzzX6lN0NBd01yAXgDxsnqGZiYWLevVEk9BqIKFtAVb1mxhN1yYs1qOTH1L8l42eUampDlRjcA3L0y1anjlO1eqiTHCO4TzoAAqOYA3GtncLoDgzuqbn3JVLWqTphZLrlUokqXkSOP9tEJi9X8Yx8OkExXXS0Z8GyIyiBZet8rx0b+qvfJkD+/U9TzqFdCptq1JevDfSX72++6dy4oWQd8INkef0LPwyhAGxz5+Sf//b1254OJGrhnOzbwbYk6cUQyubZmf8ZSpSVDq3Zy7KvP1MCCUUDyuYkID43zqkrWHj0l+0ef+q9xcL+c+PhdOfTKy3LM6UlZ77nXtbObyJIYZiCIAKDMotTef//98uSTT6rCXKNGDalfv7688847snnzZunZs6fs378/8IuY0bRpU7n++uulRYsWgT2xo4IboN26dZMOHToE9iQclE2sXr26egTEpKij9NeqVUtKly4t77//vnpJ8Bzr1q3T49ndJFXbDUqMBHwWKOAmmTMAI8uUKVPUiyK5UbFiRSlRooQ+g8FgMBgMiQrHSr/4WORyx6qbNhepXlPk2utELnB/HzkUOMfhyBGR34aJkxf88nRy4JC7/8Rx6qWbIkDJb9jYb6iIDcjgtBttmdnpLFWdbF/jfPfbC0RuvdMp7e49XnlUZPMm//lJCfSqCy8Rae3oWTFp87sZ0gmiSpSUjHXqSZZbbkWI1gng6F9/yeFhPwYmgyjJULy4Kp0ZnOytfwOnwB5fuEAOPvaoHHz2GTk+d4473w0mJ8NnKF5CMrS7RE78MVKO9LhB9jeqKyeWLo19cnHKdlThgAKL9Q4l94RfsY/KnUeiChYS34oV4nMTByvvUcVKSganHEfnSwhFzpwSld/pAO55TuAyFXJv8i3I7h0i+c/1Gy1AsIIO3N9RRQqLb/kiDak4zjs4xfv4jBly6L335NDA9+TYuLGSkUkh6HdRBQuqZTFDseKSoVQpvbdvz149/+AjfeTwRx+56xzQMIDT2oTvblLiGN4I6gERnP/FXdu3bo1/4vGQM1fAsFJQww3UYNDpOolybXBs0EA5dElLOXRfb/HFQR9MKMxAEAFAob3xxhulXLlyctFFF+lqtAeSB953331qQBg0aJAqoCjdoZuH8847TxXuYsWKuT7u7+ThzmcDWRyX6t+/v7Rr1+6M57N5iO1YfMA9W7VqJc8884x6TvTu3VvrM8eGmO67ePFi+fbbb0/ZH3xe6OYh+Hvw8eD9HmI77rWfh9DjBoPBYDCcDeAkuKRPmwZv8W+wnOu7Ojkh4GCHgjzsfyJL5/qPB8P7TWybh9DvIPi84OMYB15/WWTTSrcvcJ6H0HNDv4PgfWc6FozYjsUXtGMO14bI7jgAbt16+vWD7xHT95j2hW6Ae3a4UuStgSJ58/r3hTuXLRThzmEzGOhYGZu3dMpsae0Ux/8YIxkKnRs46JAxU+APP1CuD913lxx9f4BkvbWnZH/2OclYt37gqDvuBkSWO3pLtu9/kmyDvpSoylXk6Ifvqit/jEAUDpGHPUSd65T41he73x+QQwMGqIEg68eDY/UcYNU+Y/1GGn/v+29xYO9JHB03Tq2kmbr39BskYoBv7z6RfOdKFJ4OpZ2y7x40Y6PGks3pHdl63yPZ+j4q2Yf8cOo1eK6gdzk2faocvrmzZCxbRrI994KGZcg5OQNHg8CYdJPj4Y8+VM8KNX4QYoExwwOh4NndpJMh6N25d/D9mdSzZpNsQ3+T7N8Ok6wDPhTf8qUaFpLUgz7mljQkG2bNmiVbtmzR1XRW1oOB0skqfzbXub788ktVojEi5HUcZerUqXL33XdL48aNZfr06Vq6CGW7UKFC8sknn7i+49N4+FGjRskANxBff/11zTeAAeHee+/VPAUPP/ywrvh3795djQ+7d++WNm3aSJEiReTjjz+Wzz//XD0b8Ewgxp5r7tixQ2699Vbp0aOH3HHHHdK1a1e9/9kqw7wj17rssstk5MiR8tFHH2luhFDgkUBOBs6988475brrrpPvv/9ejh49qrH/7Fu2bJm88MILcskll2gehz59+qj3AW07YcIE6dy5s3olNG/eXJYuXSozZszQ1f9mzZpp2y5cuFDbFEMF93njjTeiwyRox6pVq6rxZciQIRqawbnhckRAT+6BJwXPY4YCg8FgMJwtEFGrVBP5dYhIu2YiTkaX+QHX9OFj/J9ffyUy4DXHK50M+vgDIte0F1m4wB9u0Nb9pkpRkUkTRe64VaR9a5GZM9w5l4tUKynS50G/LPqhU1gvqCVynjvXY8OHHIv78jORHjeL9HbycLuW7p4/+s9/502RHz4XWbNK5PabRO68xb8Cv9jJ8S0buOsUO+m2f9dtIjWc3tLLXQf8NEykoXun5u5+X7prXOsU5if66kKhbNgg0vch/7N2v9Htf8Qp7lv8v+O+c2aJ3H272+4QefIx9312wuTlLZvFyT8iJcv4vTBon8qFRWbPFLnnLpGLmvjvsdmdd6l7f94L2Z9n4dnqVBRpdJ7/+8aNIhc29rfhUKdvvPKiyG3dRK64RGTJEv/9NqwXadXQtX0Jkcl/+n/Txt2jShGR/7nfEHZ8R3eRDu38bcm7sdEGn38q8pZr97ffEJng9IRnn/bTLSbva0P6gq5SO7n6uBv4x8f8Jhlxg49BYce9/cTsGZKhWFHJ4GRhBp9vo+ucJ1xnc/rDsblzNCs/+QUyXXypZHv9TU1WeLaDTfMarF4lWdpfLlk7dpCs116rYQm6Ah8TMmWSLH0fk6jS5eTIl4M1PEAHmnuGE2vWyNFnn5AM9RpLlm49Tr4nz7drp18h5zw3wH2LFkqmO3vr9TLiEdDmMjn2x+/R9/Y5nejQSy/4rx0DjrvB6NuxTTJf3lGVft+O7Zp0UC2l3gAkH4JrV9+ePXLC6RWEbRBO4Dt8RE5g5XXPg4HE99efkhF3MEIcYoDP0ePoh++Jzw38jHXqSuZOnSVzlxvUCyKpYQaCCMBGOIMDRoDQVWjAKj/HUMwxDHz22Weuf/nUCIBbPh4IJMmjfNFLL72kHggcR+EfOHCgvPLKKxrjjxJ89dVXqyJcpkwZPf7ss8+qazxKNiDvAdcn5p98Bg0aNFDDQpUqVVTZBitWrFBl+eabb5Z3331XihcvriEKCUl0SEgB18IQ8eKLL8o333yj7xAM8hVcfPHFagThXJ4dz4Nff/1V3w0PCzwuHnvsMTVmcB7XqlOnjhpNeAd+V6pUKTWAlC1bVvcR0vHHH3/Ipk2bpG3bttKkSRPNofD222/rPXv16qVJEy+88EJp3bq1/k0OBdp+3rx50W3ngedesGCBGgh4Dp4nHF0NBoPBYIgTHAvBDb5KbceD54u8+rjI1U6J7X6NyCynxIKuTpG+DuXbnftCf5Hvf3FKalW/C3sfd77Pya/jfhe50SmrG1aKUIlr0Ff+BTBPJkbGbneZk3Vha44Fw4Y/dorw5257/mWRd5wiuneXyO8/+cN+H3IK/XlOwS9RSuSDz0QGOuX1XKdYV6wg0ukGd85B/zXAfU7hz5HV3SuQj9jpG1K/kYiTt3UV/ZrOIovcu+GN/JBTyg/udYrwu04RH+x0FSfDv/ma/9jfk917XytCOO+A90UefULkQNzyMkdjh9MxBjgl+7WXRJ52Cj553dq0d9/d+51/vkj/Af7n/tzdu+tNIjs3IfuIkyVEHnxMm/iU90K34r3Yd+65flrRhjOmO0W/l8gTz4rsccr9G64NAaHa1wS1D7+53eku0Gj6FPd+t4o8+ZzTO1xbv+o+OQcdpM89ItPccacjiNNxNJ8Cidnz5nLnxKzXGNIgTjjZ//CTj8lxLEwZouTYL8Pl8OOPyOG+D8uhu3rKoR43OoV8jyqoRz4dpIPkxNzZcvjZp6MVTFbnMz/0mJzYe0AO93tVDn/xhWRs3VaiipWSI+++rZUNji1dLocHvCOH3x3grvOpZEHJdjjywXtqRDj++2hVfI+vXCHHRv7mLppJjg35Uo8d/dJ9HjwoJxYulKOjRkqUG+gZXEc9eHkbOdC2hdtayoHL27lnvUmOx6JDkEMh+9CfJWODRnLoqSfkEO/53LNy6IXnJdO1nSXrwI9Pjct3Mrdv8yY5/P77cvidt+Xgww9L5l69Jdvtt/uNCG7L9lp/yeD0n0PPPyuH33xDjnz0oWRs0VIH25Hvv3MK/i7xLXfv/pxrLwafQ+Y2bSVD2/Zy6LG+cvjDD+TI1KmS8erO4ps8UY58940jygnJfMddcmLSBDnyyUeuLdvovbL0uFWyPPyEHP32G/c8b8khp5dlaNFMsrqJAfoc/X2MegaQyOXIay+fDCHgWXPlkcPff6/tf/jtt+TEoaOSpd3F/mNJCafMGFIYQ4YM8TmF0+eUeN/BgwcDe09i9uzZPqe4+8qXL+9zyqlu+fPn97388su+Y8eO+Y4fP+5zyr6eO3fuXF+xYsV8H330kR5r2LCh79prr9Vzdu/e7Tv33HN9TrH3HTlyRM/nd07x9XXt2lXPAVzfKc6+K6+8Ur9zzuOPP+7LnDmz/s15+/bt8+3cudO3Y8cO3xtvvKHHfv/99+jj9913n69q1aq+VatW6TViglPYfWvWrNG/+e2///7rK126tL7DtGnTfB07dvRt3LhRr/nggw9qOy1cuFDfZfv27b7GjRvr+3B86dKlvpw5c/q+//57vZaHX375xZcjRw7fpEmTfIsXL/bVq1fPV7ZsWT1/7dq1vvfff1/bqk+fPvoe3vOA/v37a5tNnTpVr/noo4/qPfge2vbt27f31a5d2zdo0CC9x9atW3W/wWAwGAwJBazm6FGfb8J4n+/uO32++pV9vgr5fL6mNX2+Xbv85wx4w+crm8vnm/GP/3zA59S/fL7K5/p8nw/2f3esK/p6F7jfP3DvyX2vv+Sum9/nO+aOISpUKODz3Xeb/zg4cODk/cC1l/t8rev7fBvWB3Y4cJ3Bn/h85fL4fCN+8+9b7443cs982/X+7+DBu32+80s72WWOu/4x/z2WLfX5Sp/jePdwn+P1/u3noe59q/qf5/473G9K+XyLFwUu4vDaK25fOZ9vzerAjhjA+1bI6/M1OM/n9Af/O+oWuLcH3qVyYZ/vnbdOHuOdwN+uLasV9/k+eN+/b+9en6/rFT5fvfL+c9n38zCfr6Jrt/fe9v9mmxMHLrnA5+vQ0v8dDB7kp9+kif7fjHTtVLmQz/fm6/77ORHH17GVz9eukf+7E7d8tcr625Xvm9zzl8np802ZHLigIX2BTkOHo1PHtHkdkg7j7WOgsc+Dd9zr6N7m/d475v3N+cH35jP4GtH34Tqnfj/y03DfvnZtfMeRj92+E25wHx49yre3WH7foTf6Bx4oFnj39Qatd+9guH17q1b07e/ZzX/fmM4DMb0bf3vPzTEP3rHg33jfg3/vHedvD8H7vfM98Hfw/YJ/510/3O+SEOZBEAGoXLmysMKMK7tTOAN7T2IXZUEOHNDEhU7RDewVKV++vHoLsMW0Qo2b/PLly8UpqzJ//nxxyqyGEOBtEBu4Hivt4UAiwSeeeEJd53HjxyMBuP6kn2cL7okL/8svv6xeEXgseBUBuPb/2zv/2CqrM44/JFrFolfInYCxjW6B8KtrFwbUDqzMKn9gkWxh6KA6WzdkCWE4mBtzCCmTKWZgGk3ZH8smDcIkg2GIjg2QAGOu66YiMp1lKSoBxuIW6ASz5NnzOec95eV6Ka2VWdj5JIf3x3nOz3vL+55zz/M9aBNwpB1si9jS0uJWMbBrQ77245IAtJcVE6tWrZL9+/fL/PnznXtFc3OzbN68WUaOHOnyRQwSWLERYOUG4pC4XgRYPTBgwAB3zO17tqncsGGDc19g9UEkEolEIj2Fx+u23/pzfuRqeErkxRaRGfd7fS5cc/M9gs94pbBH1XVF/ocn3FzzPDY9ST4c0Pz9zymRK/qdtkf/LJPx57mwEiGsRugqeFaSH664lMEPibSlzV4t2Lmh+Q9mZPX95ly/auH4e2Zn14ijf1RCH+CS7YKVzXUuN3za3++0v84C9gOy4SI5dgF01j5UlvVH38tFRo+zz32ryHv2mf/6eZHrh4oUX5/YRP6/4EvCF5f3+bMF4sOXPdwLf2iBEB/+CEII6UNcOMc+XTbHdB4d5ZBP6hob/oAvs3fsJH/U+y8ZNtyL83VFmT+UG/5oQ9l56MMfXbru+ezS8ZxjQ0jq5wJxgRCXThOu0+lDPOeB9P1gH+A8XV46Xcg/X7rzyP+mlEinlJWVuaX1bPPHgDg90GZAzxJ6josWLbLvxemPjAFqZzBwxQeerRMZ0LP14e7du922ifkG1Lnks0HTAN0B8kI8EZcFlul/XNAmtAXq6+vdABtNAKDdbItInZgoYak/gd0d0C7IhckWNAKAAT+TCAgYsuSfpf9oFOBCgZYAu0WQ/zWs8TOYPAgwMYD7w5XIHydQh/TnkAY9A3QbyJOJCCZ2IpFIJBLpKeykld5FF2G9ar99ttvCL/eJ3WYD7ZWPJxcG8ed4bXAE91bseSxeYgNTtg9MT0AwCZA7IcH17p0iO3ckN3Jga/azTR4w4HdHK7S01B+vvU5k4i0iX7Rw+x0iNXW+nVf19/mkxb/PF7yvnwvqQtvykec16pycLQ1jorE3idxcJbLoIbSORJ59we/iEIn0euyLfekdU+XSuq/L+/fUSHvNTGmfOUPe/84CKWj4iRTceVdi+NFBU+Hfd88QOfEvJ9DYXnfvh/+jinSJOEHQC2DAuW7dOhk9erQb8KLGz6/fDC6bmpqcEN/y5cvdRAKECQSO6cmEcJ0O/NrOIJtBNWKETBAEQUPimXhI26fzAeKDDeBvT2AFAv7+5NPW1ubiWKWQzg/S57lgS3rami6D/qAfGOCHSQqOTEagl7B+/XqXjnps2rTJiS4C9UGQEC0EfskfOtTvHURa9AjQV2Cgz0QAKw+2bNniJktIhw3lkZ771AnNh23btjntAVY2hLYQ0vWFcJ98CGgYcKQcVoCkbSORSCQS6Q48Ql57WeQJG/AfaHVaYvaOILJ1i8jnbvQ+8Izoszag50e7Y38XeeUVEbclepI+HQL2mHKaAf9IdL/YRAgxPnz97RHomL/Y7v3RCx5iY480wf046PMWf8b7x+M2y+5hVyaaW2Gns/bjPt0bb1idzQZb0nIv1CV9zo5m1TZWYFvHMDGBtteyel/fL8+0e/b2+nKLT0ed//ySvZ98IE4YPN2+NNx35STnIeTSEWfn6XoF0BRjMec/rX+IR3CQwGeCrgP2aLx15GM26XJDngTosCPY9RlpQ7D75L/3T9beoyJlJdZPV4u8uN1/H7CJRHo9NnYoqJ4ihb96Tgp//rQUrm6SwjXPSMGt3le/p/TJZOSK1Wuk34FD0u+vbVL4058lMZFuYwOXSC/ABpzO97+xsVGrqqp0woQJWllZqbW1tbp37161wbCza21tdf7thYWFOnz4cF26dKniBw9oApSWlqoNgrWkpER37dql+/btc3oF+NYXFBSoDYY1k8k43/+TJ0+6/LPZrA4ePFgXLlzoNAXIv3///lpUVKQ20NUlS5Y4XYC+ffvqtGnTdPv27Tp58mSdNGmSzp07V3fs2OGuR40apXv27NGmpiaXljxoB23L5fDhw04fYdCgQS7vefPm6alTp5JYz6FDh3T8+PEdvvy0k3SzZs1y2gQ2uNe1a9d26CnQR7QLrYaamho9duyYuw/0TXl5uesP6nPkyBGdMmWK64MA99FMqKur0+nTpzvthhUrVji9Bdi4caMWFxe7/kVr4OjRo+4+6RoaGnTgwIGuL2fPnu0+pyFDhrjPacyYMXn7IBKJRCKRrsAjZPFDqrt2qn6jVvW2m3x49Idqz6jEyMAf/v77VG8e53UKiHv1VdUvlKkO/ZQ//vLZxNgg362/UR3/edXaGtXvf1d15WNmO1B16m2qbx9U/cAezb9Yq3r7rap336X6rTmq77zt0wK+8l+Zqjq5SvWRerVnub9Puh98T3XSRNU5VpfGp6z8EtVRRao/flR13RqvG4Cvf+UYnw+Q7wlrx+Nm86Vq1ZqvWr0e9JoBxBH2v65670zVWdYXDy5QXfCA1fka1fKRqu++4/PJpfkl1VsqvKYCZU4sV12x/HQ7Am++af031uyyqjd+VvXJlWfa8Dq2ytpSaX1MXy+zz+Br01SHDVb9tvUNOgjl1s4hlr7c0re+pXrfPaojrvXaBT9aqvoXq//YEV6noNr69S0rk7JIM87Svv6ab9sIsydd/cO+3EeWqN5wlQ/oO6AVUWL9yfciEolEPi768E8yVxC5gOBj4xfqfIS4gwcPSkVFhduuEPV/G6S67fcaGxvdqgRWF5zLTSFNZ2Xmo7v2FwrdadfF2geRSCQSiVzM2OPbnt/JxScMdfn970SWLRZZvd6vYmBFwd8OiMypExlWIvKEX0wZiUQiPSa6GFygdDboDHGZTMZt74eIIJMDkM1m3dJ5/Pe7O3A93/YXCt1p18XaB5FIJBKJXMz0psc3dcEV5PgJ73bBKx1SSOgSnGwXGVuRGEYikUiPEfkvyIXq8QKVEAsAAAAASUVORK5CYII=;" vertex="1" parent="1">
          <mxGeometry x="-110" y="110" width="1032" height="359" as="geometry" />
        </mxCell>
        <mxCell id="fik9IuDUR1Fv5bedAydr-21" value="" style="endArrow=none;html=1;rounded=0;exitX=0;exitY=0.25;exitDx=0;exitDy=0;entryX=1;entryY=0.25;entryDx=0;entryDy=0;" edge="1" parent="1">
          <mxGeometry width="50" height="50" relative="1" as="geometry">
            <mxPoint x="280" y="630" as="sourcePoint" />
            <mxPoint x="400" y="630" as="targetPoint" />
          </mxGeometry>
        </mxCell>
        <mxCell id="fik9IuDUR1Fv5bedAydr-22" value="&lt;font style=&quot;font-size: 14px;&quot;&gt;W: (64, 32, 3, 3)&lt;/font&gt;&lt;div&gt;&lt;font style=&quot;font-size: 14px;&quot;&gt;B : (64)&lt;/font&gt;&lt;/div&gt;" style="text;html=1;align=center;verticalAlign=middle;whiteSpace=wrap;rounded=0;" vertex="1" parent="1">
          <mxGeometry x="285" y="640" width="110" height="30" as="geometry" />
        </mxCell>
        <mxCell id="fik9IuDUR1Fv5bedAydr-41" style="edgeStyle=orthogonalEdgeStyle;rounded=0;orthogonalLoop=1;jettySize=auto;html=1;entryX=0.5;entryY=0;entryDx=0;entryDy=0;" edge="1" parent="1" source="fik9IuDUR1Fv5bedAydr-23" target="fik9IuDUR1Fv5bedAydr-40">
          <mxGeometry relative="1" as="geometry" />
        </mxCell>
        <mxCell id="fik9IuDUR1Fv5bedAydr-23" value="&lt;font style=&quot;font-size: 18px;&quot;&gt;&lt;b&gt;Conv2&lt;/b&gt;&lt;/font&gt;" style="rounded=1;whiteSpace=wrap;html=1;labelPosition=center;verticalLabelPosition=middle;align=center;verticalAlign=top;spacing=0;" vertex="1" parent="1">
          <mxGeometry x="440" y="600" width="120" height="80" as="geometry" />
        </mxCell>
        <mxCell id="fik9IuDUR1Fv5bedAydr-24" value="" style="endArrow=none;html=1;rounded=0;exitX=0;exitY=0.25;exitDx=0;exitDy=0;entryX=1;entryY=0.25;entryDx=0;entryDy=0;" edge="1" parent="1">
          <mxGeometry width="50" height="50" relative="1" as="geometry">
            <mxPoint x="440" y="630" as="sourcePoint" />
            <mxPoint x="560" y="630" as="targetPoint" />
          </mxGeometry>
        </mxCell>
        <mxCell id="fik9IuDUR1Fv5bedAydr-25" value="&lt;font style=&quot;font-size: 14px;&quot;&gt;W: (64, 32, 3, 3)&lt;/font&gt;&lt;div&gt;&lt;font style=&quot;font-size: 14px;&quot;&gt;B : (64)&lt;/font&gt;&lt;/div&gt;" style="text;html=1;align=center;verticalAlign=middle;whiteSpace=wrap;rounded=0;" vertex="1" parent="1">
          <mxGeometry x="445" y="640" width="110" height="30" as="geometry" />
        </mxCell>
        <mxCell id="fik9IuDUR1Fv5bedAydr-65" style="edgeStyle=orthogonalEdgeStyle;rounded=0;orthogonalLoop=1;jettySize=auto;html=1;entryX=0;entryY=0.25;entryDx=0;entryDy=0;curved=1;" edge="1" parent="1" source="fik9IuDUR1Fv5bedAydr-28" target="fik9IuDUR1Fv5bedAydr-63">
          <mxGeometry relative="1" as="geometry" />
        </mxCell>
        <mxCell id="fik9IuDUR1Fv5bedAydr-28" value="&lt;font style=&quot;font-size: 18px;&quot;&gt;&lt;b&gt;Conv4&lt;/b&gt;&lt;/font&gt;" style="rounded=1;whiteSpace=wrap;html=1;labelPosition=center;verticalLabelPosition=middle;align=center;verticalAlign=top;spacing=0;" vertex="1" parent="1">
          <mxGeometry x="280" y="880" width="120" height="80" as="geometry" />
        </mxCell>
        <mxCell id="fik9IuDUR1Fv5bedAydr-29" value="" style="endArrow=none;html=1;rounded=0;exitX=0;exitY=0.25;exitDx=0;exitDy=0;entryX=1;entryY=0.25;entryDx=0;entryDy=0;" edge="1" parent="1">
          <mxGeometry width="50" height="50" relative="1" as="geometry">
            <mxPoint x="280" y="910" as="sourcePoint" />
            <mxPoint x="400" y="910" as="targetPoint" />
          </mxGeometry>
        </mxCell>
        <mxCell id="fik9IuDUR1Fv5bedAydr-30" value="&lt;font style=&quot;font-size: 14px;&quot;&gt;W: (64, 32, 3, 3)&lt;/font&gt;&lt;div&gt;&lt;font style=&quot;font-size: 14px;&quot;&gt;B : (64)&lt;/font&gt;&lt;/div&gt;" style="text;html=1;align=center;verticalAlign=middle;whiteSpace=wrap;rounded=0;" vertex="1" parent="1">
          <mxGeometry x="285" y="920" width="110" height="30" as="geometry" />
        </mxCell>
        <mxCell id="fik9IuDUR1Fv5bedAydr-64" style="edgeStyle=orthogonalEdgeStyle;rounded=0;orthogonalLoop=1;jettySize=auto;html=1;exitX=0.5;exitY=1;exitDx=0;exitDy=0;entryX=1;entryY=0.25;entryDx=0;entryDy=0;curved=1;" edge="1" parent="1" source="fik9IuDUR1Fv5bedAydr-31" target="fik9IuDUR1Fv5bedAydr-63">
          <mxGeometry relative="1" as="geometry" />
        </mxCell>
        <mxCell id="fik9IuDUR1Fv5bedAydr-31" value="&lt;font style=&quot;font-size: 18px;&quot;&gt;&lt;b&gt;Conv5&lt;/b&gt;&lt;/font&gt;" style="rounded=1;whiteSpace=wrap;html=1;labelPosition=center;verticalLabelPosition=middle;align=center;verticalAlign=top;spacing=0;" vertex="1" parent="1">
          <mxGeometry x="440" y="880" width="120" height="80" as="geometry" />
        </mxCell>
        <mxCell id="fik9IuDUR1Fv5bedAydr-32" value="" style="endArrow=none;html=1;rounded=0;exitX=0;exitY=0.25;exitDx=0;exitDy=0;entryX=1;entryY=0.25;entryDx=0;entryDy=0;" edge="1" parent="1">
          <mxGeometry width="50" height="50" relative="1" as="geometry">
            <mxPoint x="440" y="910" as="sourcePoint" />
            <mxPoint x="560" y="910" as="targetPoint" />
          </mxGeometry>
        </mxCell>
        <mxCell id="fik9IuDUR1Fv5bedAydr-33" value="&lt;font style=&quot;font-size: 14px;&quot;&gt;W: (64, 32, 3, 3)&lt;/font&gt;&lt;div&gt;&lt;font style=&quot;font-size: 14px;&quot;&gt;B : (64)&lt;/font&gt;&lt;/div&gt;" style="text;html=1;align=center;verticalAlign=middle;whiteSpace=wrap;rounded=0;" vertex="1" parent="1">
          <mxGeometry x="445" y="920" width="110" height="30" as="geometry" />
        </mxCell>
        <mxCell id="fik9IuDUR1Fv5bedAydr-53" style="rounded=0;orthogonalLoop=1;jettySize=auto;html=1;entryX=0;entryY=0.25;entryDx=0;entryDy=0;edgeStyle=orthogonalEdgeStyle;curved=1;" edge="1" parent="1" source="fik9IuDUR1Fv5bedAydr-38" target="fik9IuDUR1Fv5bedAydr-43">
          <mxGeometry relative="1" as="geometry">
            <Array as="points">
              <mxPoint x="340" y="810" />
            </Array>
          </mxGeometry>
        </mxCell>
        <mxCell id="fik9IuDUR1Fv5bedAydr-38" value="&lt;b&gt;&lt;font style=&quot;font-size: 18px;&quot;&gt;ReLU&lt;/font&gt;&lt;/b&gt;" style="rounded=1;whiteSpace=wrap;html=1;" vertex="1" parent="1">
          <mxGeometry x="300" y="720" width="80" height="40" as="geometry" />
        </mxCell>
        <mxCell id="fik9IuDUR1Fv5bedAydr-54" style="edgeStyle=orthogonalEdgeStyle;rounded=0;orthogonalLoop=1;jettySize=auto;html=1;entryX=1;entryY=0.25;entryDx=0;entryDy=0;curved=1;" edge="1" parent="1" source="fik9IuDUR1Fv5bedAydr-40" target="fik9IuDUR1Fv5bedAydr-43">
          <mxGeometry relative="1" as="geometry">
            <Array as="points">
              <mxPoint x="500" y="810" />
            </Array>
          </mxGeometry>
        </mxCell>
        <mxCell id="fik9IuDUR1Fv5bedAydr-40" value="&lt;b&gt;&lt;font style=&quot;font-size: 18px;&quot;&gt;ReLU&lt;/font&gt;&lt;/b&gt;" style="rounded=1;whiteSpace=wrap;html=1;" vertex="1" parent="1">
          <mxGeometry x="460" y="720" width="80" height="40" as="geometry" />
        </mxCell>
        <mxCell id="fik9IuDUR1Fv5bedAydr-51" style="edgeStyle=orthogonalEdgeStyle;rounded=0;orthogonalLoop=1;jettySize=auto;html=1;exitX=1;exitY=0.75;exitDx=0;exitDy=0;entryX=0.5;entryY=0;entryDx=0;entryDy=0;curved=1;" edge="1" parent="1" source="fik9IuDUR1Fv5bedAydr-43" target="fik9IuDUR1Fv5bedAydr-31">
          <mxGeometry relative="1" as="geometry" />
        </mxCell>
        <mxCell id="fik9IuDUR1Fv5bedAydr-52" style="edgeStyle=orthogonalEdgeStyle;rounded=0;orthogonalLoop=1;jettySize=auto;html=1;exitX=0;exitY=0.75;exitDx=0;exitDy=0;entryX=0.5;entryY=0;entryDx=0;entryDy=0;curved=1;" edge="1" parent="1" source="fik9IuDUR1Fv5bedAydr-43" target="fik9IuDUR1Fv5bedAydr-28">
          <mxGeometry relative="1" as="geometry" />
        </mxCell>
        <mxCell id="fik9IuDUR1Fv5bedAydr-43" value="&lt;b&gt;&lt;font style=&quot;font-size: 18px;&quot;&gt;Add&lt;/font&gt;&lt;/b&gt;" style="rounded=1;whiteSpace=wrap;html=1;" vertex="1" parent="1">
          <mxGeometry x="380" y="800" width="80" height="40" as="geometry" />
        </mxCell>
        <mxCell id="fik9IuDUR1Fv5bedAydr-59" value="&lt;font style=&quot;font-size: 18px;&quot;&gt;&lt;b&gt;Conv3&lt;/b&gt;&lt;/font&gt;" style="rounded=1;whiteSpace=wrap;html=1;labelPosition=center;verticalLabelPosition=middle;align=center;verticalAlign=top;spacing=0;" vertex="1" parent="1">
          <mxGeometry x="120" y="880" width="120" height="80" as="geometry" />
        </mxCell>
        <mxCell id="fik9IuDUR1Fv5bedAydr-60" value="" style="endArrow=none;html=1;rounded=0;exitX=0;exitY=0.25;exitDx=0;exitDy=0;entryX=1;entryY=0.25;entryDx=0;entryDy=0;" edge="1" parent="1">
          <mxGeometry width="50" height="50" relative="1" as="geometry">
            <mxPoint x="120" y="910" as="sourcePoint" />
            <mxPoint x="240" y="910" as="targetPoint" />
          </mxGeometry>
        </mxCell>
        <mxCell id="fik9IuDUR1Fv5bedAydr-61" value="&lt;font style=&quot;font-size: 14px;&quot;&gt;W: (64, 32, 3, 3)&lt;/font&gt;&lt;div&gt;&lt;font style=&quot;font-size: 14px;&quot;&gt;B : (64)&lt;/font&gt;&lt;/div&gt;" style="text;html=1;align=center;verticalAlign=middle;whiteSpace=wrap;rounded=0;" vertex="1" parent="1">
          <mxGeometry x="125" y="920" width="110" height="30" as="geometry" />
        </mxCell>
        <mxCell id="fik9IuDUR1Fv5bedAydr-67" style="edgeStyle=orthogonalEdgeStyle;rounded=0;orthogonalLoop=1;jettySize=auto;html=1;entryX=1;entryY=0.25;entryDx=0;entryDy=0;curved=1;exitX=0.5;exitY=1;exitDx=0;exitDy=0;" edge="1" parent="1" source="fik9IuDUR1Fv5bedAydr-63" target="fik9IuDUR1Fv5bedAydr-66">
          <mxGeometry relative="1" as="geometry" />
        </mxCell>
        <mxCell id="fik9IuDUR1Fv5bedAydr-63" value="&lt;b&gt;&lt;font style=&quot;font-size: 18px;&quot;&gt;Add&lt;/font&gt;&lt;/b&gt;" style="rounded=1;whiteSpace=wrap;html=1;" vertex="1" parent="1">
          <mxGeometry x="380" y="1000" width="80" height="40" as="geometry" />
        </mxCell>
        <mxCell id="fik9IuDUR1Fv5bedAydr-66" value="&lt;b&gt;&lt;font style=&quot;font-size: 18px;&quot;&gt;Add&lt;/font&gt;&lt;/b&gt;" style="rounded=1;whiteSpace=wrap;html=1;" vertex="1" parent="1">
          <mxGeometry x="280" y="1080" width="80" height="40" as="geometry" />
        </mxCell>
      </root>
    </mxGraphModel>
  </diagram>
</mxfile>
